<?xml version="1.0" standalone="no"?>
<!DOCTYPE svg PUBLIC "-//W3C//DTD SVG 20010904//EN"
        "http://www.w3.org/TR/2001/REC-SVG-20010904/DTD/svg10.dtd">
<svg version="1.0" xmlns="http://www.w3.org/2000/svg"
     width="250.000000pt" height="250.000000pt" viewBox="0 0 250.000000 250.000000"
     preserveAspectRatio="xMidYMid meet">
    <metadata>
        Created by potrace 1.14, written by Peter Selinger 2001-2017
    </metadata>
    <g transform="translate(0.000000,250.000000) scale(0.100000,-0.100000)"
       fill="#000000" stroke="none">
        <path d="M1306 2283 c-23 -3 -53 -15 -69 -29 -17 -14 -35 -23 -42 -20 -10 4
-101 -67 -265 -208 -14 -11 -49 -40 -77 -64 l-53 -43 0 -402 0 -402 33 -10
c18 -6 48 -7 67 -3 19 4 44 4 55 1 53 -17 110 -19 128 -5 7 6 18 7 26 3 7 -4
31 -7 54 -5 22 2 46 0 51 -5 18 -13 159 -11 188 3 14 8 88 59 163 115 l136
102 -6 222 c-3 122 -8 307 -10 410 -2 104 -6 191 -9 194 -5 5 -54 8 -182 12
l-31 1 -2 62 c-1 34 -3 63 -4 64 -7 5 -118 10 -151 7z"/>
        <path d="M449 867 c-1 -1 -2 -37 -3 -79 l-2 -78 48 0 c55 0 68 15 51 61 -6 15
-8 30 -5 34 11 11 12 44 0 51 -10 6 -86 15 -89 11z m76 -42 c0 -16 -7 -20 -30
-20 -24 0 -30 4 -31 23 -1 20 3 23 30 20 23 -2 31 -8 31 -23z m-7 -48 c17 -11
15 -44 -3 -51 -25 -9 -50 7 -51 35 -1 20 3 26 20 25 12 -1 27 -5 34 -9z"/>
        <path d="M616 851 c-18 -20 -21 -92 -6 -122 8 -14 21 -19 50 -19 29 0 42 5 50
19 14 28 12 94 -4 116 -18 25 -70 28 -90 6z m72 -13 c17 -17 15 -84 -3 -102
-16 -15 -44 -11 -57 8 -12 17 -9 81 4 94 7 7 19 12 28 12 9 0 21 -5 28 -12z"/>
        <path d="M786 851 c-18 -20 -21 -92 -6 -122 8 -14 21 -19 50 -19 29 0 42 5 50
19 14 28 12 94 -4 116 -18 25 -70 28 -90 6z m72 -13 c13 -13 16 -76 4 -94 -11
-17 -35 -22 -54 -12 -13 6 -18 21 -18 51 0 45 13 67 40 67 9 0 21 -5 28 -12z"/>
        <path d="M949 868 c-1 -2 -2 -38 -3 -80 -2 -53 1 -78 9 -78 7 0 11 14 10 35
-3 45 14 45 43 0 21 -34 42 -46 42 -25 0 6 -4 10 -8 10 -5 0 -15 12 -23 28 -7
15 -15 30 -17 33 -1 4 9 21 23 38 20 23 23 31 11 31 -8 0 -23 -13 -33 -30 -23
-40 -44 -39 -39 0 2 17 0 33 -5 36 -5 3 -9 4 -10 2z"/>
        <path d="M1170 788 l0 -78 45 0 c50 0 74 25 57 58 -5 9 -7 31 -5 48 6 38 -7
48 -59 50 l-38 0 0 -78z m80 37 c0 -21 -5 -25 -30 -25 -25 0 -30 4 -30 25 0
21 5 25 30 25 25 0 30 -4 30 -25z m4 -60 c7 -19 -19 -44 -41 -41 -25 4 -30 53
-6 58 24 6 40 -1 47 -17z"/>
        <path d="M1336 792 c-14 -41 -24 -77 -22 -80 9 -9 26 10 26 29 0 15 7 19 35
19 29 0 36 -4 41 -25 3 -14 10 -25 15 -25 13 0 12 9 -14 85 -32 95 -49 94 -81
-3z m59 11 c6 -29 4 -32 -16 -28 -29 6 -35 13 -21 27 7 7 12 21 12 32 0 29 16
8 25 -31z"/>
        <path d="M1484 858 c-2 -4 13 -8 35 -10 l40 -3 -40 -57 c-21 -32 -39 -62 -39
-68 0 -5 23 -10 50 -10 29 0 50 5 50 11 0 5 -8 9 -17 8 -64 -6 -65 -3 -23 58
22 31 40 61 40 67 0 13 -89 16 -96 4z"/>
        <path d="M1675 862 c-6 -4 -19 -34 -29 -67 -10 -33 -21 -66 -23 -72 -3 -7 0
-13 6 -13 6 0 13 11 17 25 5 20 13 25 35 25 22 0 32 -7 41 -25 6 -14 15 -25
20 -25 11 0 11 2 -13 72 -23 69 -38 91 -54 80z m35 -83 c0 -5 -10 -7 -22 -5
-13 1 -22 6 -22 10 1 3 5 21 8 39 l7 32 15 -34 c7 -18 14 -37 14 -42z"/>
        <path d="M1806 795 c-29 -82 -30 -85 -16 -85 5 0 12 11 16 25 5 20 12 25 39
25 27 0 34 -5 39 -25 4 -14 11 -25 16 -25 12 0 14 -8 -14 79 -31 99 -47 100
-80 6z m56 5 c2 -18 -2 -25 -14 -25 -21 0 -23 5 -14 48 5 24 9 28 15 17 5 -8
11 -26 13 -40z"/>
        <path d="M1959 862 c-7 -42 -3 -152 5 -149 6 2 11 15 11 28 0 26 4 29 34 29
13 0 20 -9 25 -30 3 -16 10 -30 16 -30 13 0 13 12 0 46 -8 19 -8 30 0 38 14
14 12 42 -5 59 -14 15 -84 21 -86 9z m76 -42 c0 -20 -5 -25 -27 -27 -16 -1
-28 1 -29 5 0 4 -2 17 -5 30 -4 21 -1 23 28 20 28 -2 33 -7 33 -28z"/>
        <path d="M1372 500 c0 -14 2 -19 5 -12 2 6 2 18 0 25 -3 6 -5 1 -5 -13z"/>
        <path d="M1483 495 c0 -8 4 -12 9 -9 5 3 6 10 3 15 -9 13 -12 11 -12 -6z"/>
        <path d="M494 485 c-3 -8 -3 -19 1 -25 8 -13 35 -13 35 0 0 5 -7 7 -17 3 -13
-5 -15 -2 -11 15 7 25 0 30 -8 7z"/>
        <path d="M665 490 c-3 -6 1 -7 9 -4 18 7 21 14 7 14 -6 0 -13 -4 -16 -10z"/>
        <path d="M791 484 c0 -11 3 -14 6 -6 3 7 2 16 -1 19 -3 4 -6 -2 -5 -13z"/>
        <path d="M810 496 c0 -2 7 -7 16 -10 8 -3 12 -2 9 4 -6 10 -25 14 -25 6z"/>
        <path d="M904 492 c5 -8 0 -12 -13 -12 -12 0 -21 -4 -21 -9 0 -11 38 -3 45 10
3 4 0 11 -6 15 -8 4 -9 3 -5 -4z"/>
        <path d="M964 485 c-3 -8 -4 -20 -2 -27 3 -7 7 -1 10 15 6 29 1 36 -8 12z"/>
        <path d="M1113 484 c-3 -8 -2 -19 3 -24 5 -5 9 1 9 16 0 28 -3 30 -12 8z"/>
        <path d="M1145 475 c0 -13 3 -21 8 -18 4 2 7 10 7 18 0 8 -3 16 -7 18 -5 3 -8
-5 -8 -18z"/>
        <path d="M1202 475 c0 -16 2 -22 5 -12 2 9 2 23 0 30 -3 6 -5 -1 -5 -18z"/>
        <path d="M1315 479 c6 -30 15 -37 15 -11 0 11 -4 23 -9 27 -6 3 -8 -4 -6 -16z"/>
        <path d="M1541 484 c0 -11 3 -14 6 -6 3 7 2 16 -1 19 -3 4 -6 -2 -5 -13z"/>
        <path d="M1600 489 c-12 -8 -9 -9 9 -4 21 6 23 5 18 -15 -4 -16 -3 -20 5 -12
11 11 4 42 -9 42 -4 0 -15 -5 -23 -11z"/>
        <path d="M1683 485 c-3 -9 -3 -19 1 -22 3 -4 6 1 6 10 0 8 6 18 13 20 9 4 9 6
-1 6 -7 1 -15 -6 -19 -14z"/>
        <path d="M1782 474 c-1 -13 0 -24 2 -24 7 0 14 40 7 44 -4 3 -8 -6 -9 -20z"/>
        <path d="M1840 485 c0 -8 2 -15 4 -15 2 0 6 7 10 15 3 8 1 15 -4 15 -6 0 -10
-7 -10 -15z"/>
        <path d="M1988 476 c-3 -16 -1 -23 7 -19 7 2 11 13 8 24 -7 25 -10 24 -15 -5z"/>
        <path d="M414 462 c1 -28 3 -30 14 -15 6 9 12 22 12 27 0 6 -4 5 -9 -3 -7 -11
-10 -10 -14 5 -2 10 -4 4 -3 -14z"/>
        <path d="M581 464 c0 -11 3 -14 6 -6 3 7 2 16 -1 19 -3 4 -6 -2 -5 -13z"/>
        <path d="M606 465 c-3 -8 -1 -15 4 -15 6 0 10 7 10 15 0 8 -2 15 -4 15 -2 0
-6 -7 -10 -15z"/>
        <path d="M1043 474 c9 -3 15 -10 12 -15 -4 -5 -1 -9 5 -9 19 0 5 25 -16 27
-16 2 -16 1 -1 -3z"/>
        <path d="M1285 471 c-6 -11 13 -26 22 -17 4 3 1 6 -6 6 -7 0 -9 5 -6 10 3 6 4
10 1 10 -3 0 -7 -4 -11 -9z"/>
        <path d="M1965 469 c-4 -6 -5 -12 -2 -15 2 -3 7 2 10 11 7 17 1 20 -8 4z"/>
        <path d="M2051 464 c0 -11 3 -14 6 -6 3 7 2 16 -1 19 -3 4 -6 -2 -5 -13z"/>
        <path d="M808 463 c-10 -2 -18 -11 -18 -19 0 -11 4 -10 20 3 17 15 26 26 18
22 -2 -1 -11 -3 -20 -6z"/>
        <path d="M1370 460 c0 -5 5 -10 11 -10 5 0 7 5 4 10 -3 6 -8 10 -11 10 -2 0
-4 -4 -4 -10z"/>
    </g>
</svg>
