<svg xmlns="http://www.w3.org/2000/svg" width="500" zoomAndPan="magnify"
     viewBox="0 0 375 374.999991" height="500" preserveAspectRatio="xMidYMid meet" version="1.0">
    <defs>
        <g/>
        <clipPath id="1ca980a0a7">
            <path d="M 40 169 L 58 169 L 58 235.589844 L 40 235.589844 Z M 40 169 " clip-rule="nonzero"/>
        </clipPath>
        <clipPath id="694045dca4">
            <path d="M 40.03125 169.230469 L 57.683594 169.230469 L 57.683594 235.378906 L 40.03125 235.378906 Z M 40.03125 169.230469 "
                  clip-rule="nonzero"/>
        </clipPath>
        <clipPath id="becc6b4991">
            <path d="M 56 151 L 80.816406 151 L 80.816406 235 L 56 235 Z M 56 151 " clip-rule="nonzero"/>
        </clipPath>
        <clipPath id="598ec123b1">
            <path d="M 56.191406 151.296875 L 80.742188 151.296875 L 80.742188 234.496094 L 56.191406 234.496094 Z M 56.191406 151.296875 "
                  clip-rule="nonzero"/>
        </clipPath>
        <clipPath id="39ac88db28">
            <path d="M 75 207 L 80.816406 207 L 80.816406 221 L 75 221 Z M 75 207 " clip-rule="nonzero"/>
        </clipPath>
        <clipPath id="20c150ac04">
            <path d="M 74.589844 206.597656 L 80.742188 206.597656 L 80.742188 221 L 74.589844 221 Z M 74.589844 206.597656 "
                  clip-rule="nonzero"/>
        </clipPath>
        <clipPath id="d9c6c3c7ca">
            <path d="M 31 139.589844 L 62 139.589844 L 62 157 L 31 157 Z M 31 139.589844 " clip-rule="nonzero"/>
        </clipPath>
        <clipPath id="6ef600aa33">
            <path d="M 9.566406 168 L 22 168 L 22 234 L 9.566406 234 Z M 9.566406 168 " clip-rule="nonzero"/>
        </clipPath>
        <clipPath id="ab2e00a3e2">
            <path d="M 9.566406 143 L 43 143 L 43 171 L 9.566406 171 Z M 9.566406 143 " clip-rule="nonzero"/>
        </clipPath>
    </defs>
    <rect x="-37.5" width="450" fill="#ffffff" y="-37.499999" height="449.999989" fill-opacity="1"/>
    <rect x="-37.5" width="450" fill="#545454" y="-37.499999" height="449.999989" fill-opacity="1"/>
    <g clip-path="url(#1ca980a0a7)">
        <path fill="#ed5b2d"
              d="M 56.691406 171.472656 C 56.980469 213.238281 57.125 234.121094 57.125 234.121094 C 49.898438 235.570312 44.34375 235.238281 40.46875 233.125 C 40.46875 233.125 40.46875 211.949219 40.46875 169.605469 C 44.320312 170.988281 49.730469 171.613281 56.691406 171.472656 "
              fill-opacity="1" fill-rule="evenodd"/>
    </g>
    <g clip-path="url(#694045dca4)">
        <path fill="#291b25"
              d="M 56.753906 233.8125 L 56.320312 171.851562 C 52.972656 171.90625 49.992188 171.78125 47.371094 171.480469 C 44.871094 171.191406 42.691406 170.742188 40.839844 170.125 L 40.839844 232.902344 C 42.691406 233.867188 44.933594 234.429688 47.5625 234.585938 C 50.226562 234.746094 53.289062 234.488281 56.753906 233.8125 Z M 57.0625 171.476562 L 57.496094 234.117188 C 57.5 234.300781 57.367188 234.453125 57.199219 234.484375 L 57.199219 234.488281 C 53.554688 235.21875 50.328125 235.5 47.519531 235.332031 C 44.6875 235.160156 42.277344 234.535156 40.292969 233.449219 C 40.164062 233.382812 40.09375 233.25 40.097656 233.113281 L 40.097656 169.605469 C 40.097656 169.398438 40.265625 169.234375 40.46875 169.234375 C 40.515625 169.234375 40.5625 169.242188 40.605469 169.257812 C 42.5 169.9375 44.78125 170.429688 47.457031 170.738281 C 50.148438 171.050781 53.222656 171.167969 56.683594 171.101562 C 56.890625 171.097656 57.058594 171.261719 57.0625 171.464844 L 57.0625 171.476562 "
              fill-opacity="1" fill-rule="evenodd"/>
    </g>
    <g clip-path="url(#becc6b4991)">
        <path fill="#ed5b2d"
              d="M 57.125 234.121094 C 57.125 234.121094 64.875 228.308594 80.371094 216.683594 C 80.371094 216.683594 79.789062 195.011719 78.628906 151.671875 C 78.628906 151.671875 71.316406 158.269531 56.691406 171.472656 C 56.980469 213.238281 57.125 234.121094 57.125 234.121094 "
              fill-opacity="1" fill-rule="evenodd"/>
    </g>
    <g clip-path="url(#598ec123b1)">
        <path fill="#291b25"
              d="M 80.59375 216.980469 L 57.351562 234.414062 C 57.289062 234.464844 57.210938 234.492188 57.128906 234.492188 C 56.921875 234.492188 56.753906 234.328125 56.753906 234.121094 L 56.320312 171.5 C 56.3125 171.390625 56.351562 171.277344 56.441406 171.195312 L 78.382812 151.394531 C 78.445312 151.335938 78.527344 151.300781 78.621094 151.296875 C 78.828125 151.292969 78.996094 151.457031 79 151.660156 L 80.742188 216.675781 C 80.746094 216.792969 80.691406 216.90625 80.59375 216.980469 Z M 57.492188 233.378906 L 79.992188 216.5 L 78.28125 152.488281 L 57.0625 171.640625 L 57.492188 233.378906 "
              fill-opacity="1" fill-rule="evenodd"/>
    </g>
    <path fill="#468b91"
          d="M 78.898438 161.746094 L 78.628906 151.671875 L 71.996094 157.65625 C 73.984375 160.003906 76.285156 161.367188 78.898438 161.746094 "
          fill-opacity="1" fill-rule="evenodd"/>
    <path fill="#291b25"
          d="M 79 151.660156 L 79.269531 161.710938 C 79.273438 161.738281 79.273438 161.769531 79.269531 161.796875 C 79.238281 162 79.050781 162.144531 78.847656 162.113281 C 77.492188 161.917969 76.214844 161.464844 75.023438 160.761719 C 73.839844 160.058594 72.738281 159.109375 71.722656 157.910156 L 71.722656 157.90625 C 71.582031 157.753906 71.597656 157.519531 71.75 157.378906 L 78.382812 151.394531 C 78.445312 151.335938 78.527344 151.300781 78.621094 151.296875 C 78.828125 151.292969 78.996094 151.457031 79 151.660156 Z M 78.515625 161.300781 L 78.28125 152.488281 L 72.519531 157.691406 C 73.417969 158.703125 74.378906 159.511719 75.402344 160.117188 C 76.382812 160.699219 77.417969 161.09375 78.515625 161.300781 "
          fill-opacity="1" fill-rule="evenodd"/>
    <g clip-path="url(#39ac88db28)">
        <path fill="#468b91"
              d="M 75.210938 220.554688 L 80.371094 216.683594 L 80.117188 207.210938 C 76.746094 210.386719 75.113281 214.835938 75.210938 220.554688 "
              fill-opacity="1" fill-rule="evenodd"/>
    </g>
    <g clip-path="url(#20c150ac04)">
        <path fill="#291b25"
              d="M 80.59375 216.980469 L 75.4375 220.847656 C 75.375 220.898438 75.300781 220.925781 75.214844 220.925781 C 75.011719 220.929688 74.839844 220.765625 74.839844 220.5625 C 74.789062 217.652344 75.179688 215.066406 76.011719 212.800781 C 76.851562 210.523438 78.132812 208.570312 79.863281 206.941406 C 79.925781 206.878906 80.011719 206.84375 80.109375 206.839844 C 80.3125 206.835938 80.484375 207 80.488281 207.203125 L 80.742188 216.675781 C 80.746094 216.792969 80.691406 216.90625 80.59375 216.980469 Z M 75.578125 219.8125 L 79.992188 216.5 L 79.769531 208.085938 C 78.425781 209.507812 77.410156 211.164062 76.710938 213.058594 C 75.980469 215.046875 75.601562 217.300781 75.578125 219.8125 "
              fill-opacity="1" fill-rule="evenodd"/>
    </g>
    <path fill="#61a6ab"
          d="M 40.46875 169.605469 C 54.679688 157.316406 61.789062 151.171875 61.789062 151.171875 C 73.015625 151.503906 78.628906 151.671875 78.628906 151.671875 C 78.628906 151.671875 71.316406 158.269531 56.691406 171.472656 C 49.730469 171.613281 44.320312 170.988281 40.46875 169.605469 "
          fill-opacity="1" fill-rule="evenodd"/>
    <path fill="#291b25"
          d="M 61.921875 151.550781 L 41.203125 169.464844 C 42.972656 170.035156 45.058594 170.464844 47.457031 170.738281 C 50.109375 171.046875 53.140625 171.167969 56.542969 171.105469 L 77.691406 152.015625 Z M 40.226562 169.324219 L 61.542969 150.890625 C 61.621094 150.824219 61.714844 150.796875 61.808594 150.800781 L 78.640625 151.296875 C 78.84375 151.304688 79.007812 151.476562 79 151.679688 C 79 151.789062 78.953125 151.882812 78.878906 151.949219 L 56.941406 171.75 C 56.863281 171.820312 56.769531 171.851562 56.671875 171.847656 C 53.183594 171.914062 50.082031 171.792969 47.371094 171.480469 C 44.644531 171.164062 42.300781 170.65625 40.34375 169.957031 C 40.152344 169.886719 40.050781 169.671875 40.121094 169.480469 C 40.140625 169.417969 40.179688 169.363281 40.226562 169.324219 "
          fill-opacity="1" fill-rule="evenodd"/>
    <path fill="#468b91"
          d="M 31.769531 155.15625 C 32.390625 206.96875 32.699219 232.875 32.699219 232.875 C 35.8125 234.03125 38.402344 234.113281 40.46875 233.125 C 40.46875 190.777344 40.46875 169.605469 40.46875 169.605469 C 40.46875 160.554688 40.46875 156.03125 40.46875 156.03125 C 37.867188 156.621094 34.964844 156.328125 31.769531 155.15625 "
          fill-opacity="1" fill-rule="evenodd"/>
    <path fill="#291b25"
          d="M 32.328125 232.878906 L 31.398438 155.179688 C 31.394531 155.132812 31.398438 155.082031 31.417969 155.03125 C 31.488281 154.835938 31.699219 154.738281 31.894531 154.808594 C 33.464844 155.382812 34.957031 155.742188 36.378906 155.882812 C 37.789062 156.023438 39.125 155.953125 40.386719 155.667969 C 40.414062 155.660156 40.441406 155.65625 40.46875 155.65625 C 40.671875 155.65625 40.839844 155.824219 40.839844 156.03125 L 40.839844 233.125 C 40.839844 233.261719 40.761719 233.394531 40.628906 233.460938 C 39.542969 233.980469 38.320312 234.21875 36.964844 234.175781 C 35.625 234.132812 34.164062 233.816406 32.570312 233.226562 L 32.570312 233.222656 C 32.429688 233.171875 32.328125 233.039062 32.328125 232.878906 Z M 32.144531 155.6875 L 33.066406 232.613281 C 34.496094 233.121094 35.800781 233.394531 36.988281 233.433594 C 38.136719 233.46875 39.171875 233.285156 40.097656 232.882812 L 40.097656 156.488281 C 38.890625 156.710938 37.628906 156.757812 36.304688 156.625 C 34.976562 156.492188 33.589844 156.179688 32.144531 155.6875 "
          fill-opacity="1" fill-rule="evenodd"/>
    <path fill="#468b91"
          d="M 40.46875 169.605469 C 54.679688 157.316406 61.789062 151.171875 61.789062 151.171875 C 61.789062 151.171875 61.558594 147.769531 61.101562 140.960938 C 61.101562 140.960938 54.226562 145.984375 40.46875 156.03125 C 40.46875 165.082031 40.46875 169.605469 40.46875 169.605469 "
          fill-opacity="1" fill-rule="evenodd"/>
    <path fill="#291b25"
          d="M 62.03125 151.453125 L 40.710938 169.886719 C 40.648438 169.945312 40.5625 169.976562 40.46875 169.976562 C 40.265625 169.976562 40.097656 169.808594 40.097656 169.605469 L 40.097656 156.03125 C 40.097656 155.914062 40.148438 155.800781 40.25 155.730469 L 60.859375 140.675781 C 60.917969 140.625 60.996094 140.59375 61.078125 140.585938 C 61.28125 140.574219 61.460938 140.730469 61.472656 140.933594 L 62.160156 151.148438 C 62.164062 151.261719 62.121094 151.375 62.03125 151.453125 Z M 40.839844 168.792969 L 61.402344 151.011719 L 60.777344 141.660156 L 40.839844 156.21875 L 40.839844 168.792969 "
          fill-opacity="1" fill-rule="evenodd"/>
    <g clip-path="url(#d9c6c3c7ca)">
        <path fill="#61a6ab"
              d="M 31.769531 155.15625 C 45.855469 145.027344 52.898438 139.964844 52.898438 139.964844 C 58.367188 140.628906 61.101562 140.960938 61.101562 140.960938 C 61.101562 140.960938 54.226562 145.984375 40.46875 156.03125 C 37.867188 156.621094 34.964844 156.328125 31.769531 155.15625 "
              fill-opacity="1" fill-rule="evenodd"/>
        <path fill="#291b25"
              d="M 52.996094 140.351562 L 32.566406 155.042969 C 33.890625 155.480469 35.164062 155.761719 36.378906 155.882812 C 37.761719 156.023438 39.074219 155.957031 40.3125 155.683594 L 60.121094 141.21875 Z M 31.5625 154.847656 L 52.679688 139.660156 C 52.761719 139.605469 52.851562 139.582031 52.941406 139.59375 L 61.148438 140.589844 C 61.351562 140.613281 61.496094 140.800781 61.472656 141.003906 C 61.457031 141.121094 61.390625 141.222656 61.296875 141.28125 L 40.6875 156.332031 C 40.644531 156.363281 40.597656 156.382812 40.550781 156.390625 C 39.210938 156.695312 37.792969 156.773438 36.304688 156.625 C 34.824219 156.476562 33.269531 156.105469 31.640625 155.507812 C 31.449219 155.4375 31.347656 155.226562 31.417969 155.03125 C 31.445312 154.953125 31.5 154.890625 31.5625 154.847656 "
              fill-opacity="1" fill-rule="evenodd"/>
    </g>
    <path fill="#ed5b2d"
          d="M 31.859375 162.753906 C 32.417969 209.5 32.699219 232.875 32.699219 232.875 C 28.800781 234.738281 24.84375 234.527344 20.828125 232.253906 C 20.828125 232.253906 20.808594 208.777344 20.765625 161.820312 C 23.789062 162.894531 27.488281 163.203125 31.859375 162.753906 "
          fill-opacity="1" fill-rule="evenodd"/>
    <path fill="#291b25"
          d="M 32.324219 232.636719 L 31.492188 163.164062 C 29.4375 163.355469 27.53125 163.378906 25.777344 163.230469 C 24.097656 163.089844 22.550781 162.792969 21.136719 162.339844 L 21.199219 232.03125 C 23.09375 233.074219 24.96875 233.644531 26.828125 233.742188 C 28.667969 233.839844 30.503906 233.472656 32.324219 232.636719 Z M 32.230469 162.769531 L 33.070312 232.871094 C 33.074219 233.019531 32.988281 233.152344 32.859375 233.210938 C 30.855469 234.167969 28.832031 234.59375 26.789062 234.488281 C 24.753906 234.378906 22.703125 233.742188 20.644531 232.578125 C 20.519531 232.503906 20.449219 232.371094 20.457031 232.234375 L 20.394531 161.820312 C 20.394531 161.617188 20.5625 161.449219 20.765625 161.449219 C 20.808594 161.449219 20.851562 161.457031 20.890625 161.46875 C 22.371094 161.996094 24.019531 162.332031 25.839844 162.488281 C 27.667969 162.640625 29.660156 162.605469 31.820312 162.382812 C 32.023438 162.363281 32.207031 162.511719 32.230469 162.71875 C 32.230469 162.734375 32.230469 162.75 32.230469 162.769531 "
          fill-opacity="1" fill-rule="evenodd"/>
    <path fill="#f6f6e9"
          d="M 32.59375 224.035156 L 32.699219 232.875 C 28.800781 234.738281 24.84375 234.527344 20.828125 232.253906 L 20.820312 223.199219 C 24.304688 224.753906 28.230469 225.03125 32.59375 224.035156 "
          fill-opacity="1" fill-rule="evenodd"/>
    <path fill="#291b25"
          d="M 32.324219 232.636719 L 32.226562 224.496094 C 30.175781 224.929688 28.214844 225.078125 26.351562 224.945312 C 24.542969 224.816406 22.824219 224.421875 21.191406 223.761719 L 21.199219 232.03125 C 23.09375 233.074219 24.96875 233.644531 26.828125 233.742188 C 28.667969 233.839844 30.503906 233.472656 32.324219 232.636719 Z M 32.964844 224.046875 L 33.070312 232.871094 C 33.074219 233.019531 32.988281 233.152344 32.859375 233.210938 C 30.855469 234.167969 28.832031 234.59375 26.789062 234.488281 C 24.753906 234.378906 22.703125 233.742188 20.644531 232.578125 C 20.519531 232.503906 20.449219 232.371094 20.457031 232.234375 L 20.449219 223.199219 C 20.449219 222.992188 20.617188 222.824219 20.820312 222.824219 C 20.875 222.824219 20.925781 222.835938 20.972656 222.859375 C 22.671875 223.617188 24.484375 224.066406 26.402344 224.203125 C 28.332031 224.339844 30.367188 224.164062 32.511719 223.671875 C 32.710938 223.625 32.910156 223.753906 32.957031 223.953125 C 32.964844 223.984375 32.96875 224.015625 32.964844 224.046875 "
          fill-opacity="1" fill-rule="evenodd"/>
    <path fill="#f6f6e9"
          d="M 31.859375 162.753906 L 31.996094 174.382812 C 28.542969 175.164062 24.804688 175.003906 20.777344 173.898438 L 20.765625 161.820312 C 23.789062 162.894531 27.488281 163.203125 31.859375 162.753906 "
          fill-opacity="1" fill-rule="evenodd"/>
    <path fill="#291b25"
          d="M 31.621094 174.082031 L 31.492188 163.164062 C 29.4375 163.355469 27.53125 163.378906 25.777344 163.230469 C 24.097656 163.089844 22.550781 162.792969 21.136719 162.339844 L 21.148438 173.613281 C 23.035156 174.113281 24.859375 174.398438 26.617188 174.476562 C 28.351562 174.550781 30.019531 174.421875 31.621094 174.082031 Z M 32.230469 162.769531 L 32.371094 174.378906 C 32.371094 174.558594 32.246094 174.707031 32.078125 174.746094 C 30.320312 175.144531 28.488281 175.304688 26.585938 175.21875 C 24.691406 175.136719 22.722656 174.816406 20.679688 174.257812 C 20.511719 174.210938 20.40625 174.0625 20.40625 173.898438 L 20.394531 161.820312 C 20.394531 161.617188 20.5625 161.449219 20.765625 161.449219 C 20.808594 161.449219 20.851562 161.457031 20.890625 161.46875 C 22.371094 161.996094 24.019531 162.332031 25.839844 162.488281 C 27.667969 162.640625 29.660156 162.605469 31.820312 162.382812 C 32.023438 162.363281 32.207031 162.511719 32.230469 162.71875 C 32.230469 162.734375 32.230469 162.75 32.230469 162.769531 "
          fill-opacity="1" fill-rule="evenodd"/>
    <path fill="#ed5b2d"
          d="M 31.859375 162.753906 C 27.617188 163.21875 23.917969 162.90625 20.765625 161.820312 C 38.292969 147.664062 47.054688 140.585938 47.054688 140.585938 L 51.453125 141.003906 L 31.769531 155.15625 L 31.859375 162.753906 "
          fill-opacity="1" fill-rule="evenodd"/>
    <path fill="#291b25"
          d="M 25.933594 162.496094 C 27.664062 162.640625 29.511719 162.617188 31.484375 162.417969 L 31.394531 155.171875 C 31.390625 155.050781 31.445312 154.933594 31.550781 154.855469 L 50.429688 141.28125 L 47.171875 140.972656 L 21.535156 161.679688 C 22.902344 162.089844 24.367188 162.363281 25.933594 162.496094 Z M 31.898438 163.125 C 29.75 163.359375 27.742188 163.398438 25.871094 163.242188 C 23.992188 163.082031 22.25 162.726562 20.644531 162.175781 C 20.449219 162.109375 20.347656 161.894531 20.414062 161.699219 C 20.441406 161.625 20.488281 161.558594 20.550781 161.515625 L 46.824219 140.296875 C 46.90625 140.230469 47.007812 140.203125 47.105469 140.21875 L 51.488281 140.632812 C 51.695312 140.652344 51.84375 140.832031 51.824219 141.039062 C 51.8125 141.152344 51.753906 141.246094 51.667969 141.308594 L 32.140625 155.347656 L 32.230469 162.75 C 32.230469 162.945312 32.085938 163.105469 31.898438 163.125 "
          fill-opacity="1" fill-rule="evenodd"/>
    <path fill="#468b91"
          d="M 20.773438 169.222656 C 20.808594 211.242188 20.828125 232.253906 20.828125 232.253906 C 17.332031 233.996094 13.769531 233.910156 10.136719 232.003906 C 10.097656 190.15625 10.074219 169.230469 10.074219 169.230469 C 13.472656 170.066406 17.035156 170.0625 20.773438 169.222656 "
          fill-opacity="1" fill-rule="evenodd"/>
    <g clip-path="url(#6ef600aa33)">
        <path fill="#291b25"
              d="M 20.457031 232.019531 L 20.402344 169.683594 C 18.664062 170.042969 16.964844 170.226562 15.296875 170.226562 C 13.644531 170.230469 12.027344 170.054688 10.445312 169.703125 L 10.507812 231.777344 C 12.207031 232.636719 13.882812 233.085938 15.542969 233.125 C 17.191406 233.164062 18.832031 232.792969 20.457031 232.019531 Z M 21.144531 169.238281 L 21.199219 232.253906 C 21.199219 232.398438 21.117188 232.527344 20.992188 232.585938 C 19.191406 233.484375 17.367188 233.910156 15.527344 233.867188 C 13.6875 233.824219 11.832031 233.3125 9.964844 232.332031 C 9.839844 232.265625 9.765625 232.136719 9.765625 232.003906 L 9.703125 169.230469 C 9.703125 169.027344 9.871094 168.859375 10.074219 168.859375 C 10.105469 168.859375 10.132812 168.863281 10.164062 168.871094 C 11.832031 169.28125 13.542969 169.484375 15.296875 169.484375 C 17.050781 169.480469 18.847656 169.273438 20.691406 168.859375 C 20.890625 168.8125 21.089844 168.941406 21.136719 169.140625 C 21.144531 169.175781 21.144531 169.207031 21.144531 169.238281 "
              fill-opacity="1" fill-rule="evenodd"/>
    </g>
    <path fill="#ed5b2d"
          d="M 21.652344 162.109375 C 21.347656 162.019531 21.054688 161.925781 20.765625 161.820312 L 42.179688 144.527344 L 40.03125 144.136719 L 10.074219 169.230469 C 13.472656 170.066406 17.035156 170.0625 20.773438 169.222656 L 20.765625 161.820312 C 21.058594 161.921875 21.351562 162.015625 21.652344 162.101562 L 21.652344 162.109375 "
          fill-opacity="1" fill-rule="evenodd"/>
    <g clip-path="url(#ab2e00a3e2)">
        <path fill="#291b25"
              d="M 20.394531 161.847656 C 20.390625 161.796875 20.398438 161.746094 20.414062 161.699219 C 20.441406 161.625 20.488281 161.566406 20.542969 161.523438 L 41.3125 144.746094 L 40.136719 144.535156 L 10.890625 169.035156 C 12.328125 169.335938 13.796875 169.484375 15.296875 169.484375 C 16.957031 169.480469 18.660156 169.292969 20.402344 168.921875 Z M 21.546875 162.464844 C 21.410156 162.425781 21.277344 162.382812 21.136719 162.339844 L 21.144531 169.207031 C 21.152344 169.382812 21.03125 169.546875 20.855469 169.585938 C 18.960938 170.011719 17.109375 170.226562 15.296875 170.226562 C 13.492188 170.230469 11.726562 170.019531 10.007812 169.597656 C 9.925781 169.582031 9.847656 169.539062 9.789062 169.472656 C 9.65625 169.3125 9.679688 169.078125 9.835938 168.945312 L 39.792969 143.851562 C 39.875 143.78125 39.984375 143.75 40.097656 143.769531 L 42.226562 144.15625 C 42.316406 144.167969 42.40625 144.214844 42.46875 144.292969 C 42.597656 144.453125 42.570312 144.6875 42.410156 144.816406 L 21.535156 161.679688 L 21.753906 161.742188 C 21.953125 161.800781 22.066406 162.007812 22.007812 162.207031 L 22 162.234375 C 21.933594 162.421875 21.730469 162.519531 21.546875 162.464844 "
              fill-opacity="1" fill-rule="evenodd"/>
    </g>
    <path fill="#f6f6e9"
          d="M 18.464844 172.4375 C 18.464844 211.171875 18.464844 230.539062 18.464844 230.539062 C 16.15625 231.335938 14 231.210938 12 230.167969 C 12 230.167969 12.125 210.925781 12.375 172.4375 C 14.277344 172.855469 16.308594 172.855469 18.464844 172.4375 "
          fill-opacity="1" fill-rule="evenodd"/>
    <path fill="#291b25"
          d="M 18.09375 230.269531 L 18.09375 172.886719 C 16.21875 173.199219 14.433594 173.203125 12.742188 172.894531 L 12.375 229.9375 C 14.148438 230.800781 16.054688 230.910156 18.09375 230.269531 Z M 18.835938 172.464844 L 18.835938 230.539062 C 18.835938 230.703125 18.730469 230.839844 18.585938 230.890625 L 18.585938 230.894531 C 16.175781 231.722656 13.921875 231.589844 11.828125 230.496094 C 11.691406 230.425781 11.617188 230.28125 11.628906 230.132812 L 12.003906 172.4375 C 12.003906 172.230469 12.171875 172.066406 12.375 172.066406 C 12.402344 172.066406 12.429688 172.070312 12.453125 172.074219 C 14.308594 172.480469 16.289062 172.476562 18.394531 172.074219 C 18.597656 172.035156 18.792969 172.167969 18.832031 172.371094 C 18.835938 172.402344 18.839844 172.433594 18.835938 172.464844 "
          fill-opacity="1" fill-rule="evenodd"/>
    <path fill="#f6f6e9"
          d="M 53.019531 180.535156 C 53.101562 195.8125 53.144531 203.453125 53.144531 203.453125 C 48.9375 204.238281 45.769531 204.03125 43.632812 202.828125 C 43.632812 202.828125 43.675781 195.066406 43.757812 179.539062 C 46.890625 180.195312 49.980469 180.527344 53.019531 180.535156 "
          fill-opacity="1" fill-rule="evenodd"/>
    <path fill="#291b25"
          d="M 52.769531 203.140625 L 52.652344 180.90625 C 51.234375 180.886719 49.8125 180.804688 48.382812 180.648438 C 46.976562 180.5 45.554688 180.28125 44.128906 179.992188 L 44.007812 202.605469 C 44.992188 203.117188 46.203125 203.421875 47.636719 203.515625 C 49.113281 203.609375 50.824219 203.488281 52.769531 203.140625 Z M 53.390625 180.53125 L 53.515625 203.449219 C 53.515625 203.632812 53.386719 203.785156 53.210938 203.816406 C 51.078125 204.21875 49.203125 204.363281 47.589844 204.257812 C 45.945312 204.152344 44.566406 203.785156 43.453125 203.152344 C 43.320312 203.082031 43.253906 202.941406 43.261719 202.800781 L 43.386719 179.535156 C 43.390625 179.332031 43.554688 179.164062 43.761719 179.164062 C 43.785156 179.164062 43.8125 179.167969 43.835938 179.171875 C 45.386719 179.5 46.929688 179.742188 48.464844 179.910156 C 49.996094 180.074219 51.515625 180.160156 53.019531 180.164062 C 53.222656 180.164062 53.390625 180.328125 53.390625 180.53125 "
          fill-opacity="1" fill-rule="evenodd"/>
    <path fill="#f6f6e9"
          d="M 53.152344 206.3125 C 53.113281 207.089844 53.175781 208.992188 53.175781 208.992188 C 49.414062 209.621094 46.132812 209.433594 43.324219 208.433594 C 43.324219 208.433594 43.335938 207.507812 43.355469 205.660156 C 46.816406 206.523438 49.945312 206.757812 53.152344 206.3125 "
          fill-opacity="1" fill-rule="evenodd"/>
    <path fill="#291b25"
          d="M 52.792969 208.675781 C 52.78125 208.21875 52.761719 207.367188 52.769531 206.738281 C 51.289062 206.917969 49.820312 206.953125 48.324219 206.851562 C 46.828125 206.746094 45.308594 206.507812 43.722656 206.132812 L 43.699219 208.167969 C 45 208.605469 46.40625 208.867188 47.914062 208.953125 C 49.433594 209.039062 51.0625 208.949219 52.792969 208.675781 Z M 53.527344 206.339844 C 53.488281 207.109375 53.546875 208.980469 53.546875 208.984375 C 53.550781 209.171875 53.414062 209.332031 53.234375 209.359375 C 51.328125 209.679688 49.539062 209.792969 47.871094 209.695312 C 46.195312 209.601562 44.636719 209.296875 43.199219 208.785156 C 43.039062 208.726562 42.941406 208.570312 42.953125 208.402344 L 42.984375 205.660156 C 42.984375 205.453125 43.152344 205.289062 43.359375 205.289062 C 43.386719 205.289062 43.417969 205.292969 43.445312 205.300781 C 45.152344 205.726562 46.78125 205.996094 48.375 206.105469 C 49.964844 206.214844 51.523438 206.164062 53.101562 205.941406 C 53.304688 205.914062 53.496094 206.058594 53.523438 206.261719 C 53.527344 206.289062 53.527344 206.3125 53.527344 206.339844 "
          fill-opacity="1" fill-rule="evenodd"/>
    <path fill="#291b25"
          d="M 63.699219 151.046875 C 63.800781 150.957031 63.957031 150.96875 64.046875 151.070312 C 64.136719 151.171875 64.128906 151.328125 64.027344 151.417969 L 42.585938 170.390625 C 42.480469 170.484375 42.324219 170.472656 42.234375 170.371094 C 42.144531 170.269531 42.152344 170.109375 42.253906 170.019531 L 63.699219 151.046875 "
          fill-opacity="1" fill-rule="evenodd"/>
    <path fill="#291b25"
          d="M 44.039062 170.726562 C 43.9375 170.820312 43.78125 170.816406 43.6875 170.714844 C 43.59375 170.617188 43.597656 170.460938 43.695312 170.363281 L 50.953125 163.539062 C 51.054688 163.445312 51.210938 163.449219 51.304688 163.550781 C 51.398438 163.652344 51.394531 163.808594 51.292969 163.902344 L 44.039062 170.726562 "
          fill-opacity="1" fill-rule="evenodd"/>
    <path fill="#291b25"
          d="M 76.691406 151.433594 C 76.792969 151.339844 76.949219 151.351562 77.039062 151.453125 C 77.132812 151.554688 77.121094 151.714844 77.019531 151.804688 L 68.9375 158.988281 C 68.835938 159.078125 68.679688 159.066406 68.589844 158.964844 C 68.5 158.863281 68.507812 158.707031 68.609375 158.617188 L 76.691406 151.433594 "
          fill-opacity="1" fill-rule="evenodd"/>
    <path fill="#291b25"
          d="M 48.25 171.367188 C 48.148438 171.460938 47.992188 171.449219 47.902344 171.347656 C 47.808594 171.246094 47.816406 171.089844 47.921875 170.996094 L 70.042969 151.234375 C 70.144531 151.144531 70.304688 151.152344 70.394531 151.257812 C 70.484375 151.359375 70.476562 151.515625 70.375 151.605469 L 48.25 171.367188 "
          fill-opacity="1" fill-rule="evenodd"/>
    <path fill="#291b25"
          d="M 49.957031 171.511719 C 49.855469 171.605469 49.699219 171.597656 49.605469 171.496094 C 49.515625 171.394531 49.519531 171.238281 49.621094 171.144531 L 53.878906 167.210938 C 53.976562 167.117188 54.132812 167.125 54.226562 167.226562 C 54.320312 167.328125 54.3125 167.484375 54.214844 167.578125 L 49.957031 171.511719 "
          fill-opacity="1" fill-rule="evenodd"/>
    <path fill="#291b25"
          d="M 53.929688 171.667969 C 53.828125 171.761719 53.671875 171.753906 53.582031 171.652344 C 53.492188 171.550781 53.5 171.390625 53.601562 171.300781 L 62.738281 163.132812 C 62.839844 163.039062 62.996094 163.050781 63.085938 163.152344 C 63.175781 163.253906 63.167969 163.410156 63.066406 163.5 L 53.929688 171.667969 "
          fill-opacity="1" fill-rule="evenodd"/>
    <path fill="#291b25"
          d="M 74.765625 151.375 C 74.867188 151.285156 75.023438 151.292969 75.117188 151.394531 C 75.207031 151.5 75.199219 151.65625 75.097656 151.746094 L 72.015625 154.503906 C 71.914062 154.59375 71.757812 154.585938 71.667969 154.484375 C 71.574219 154.382812 71.585938 154.226562 71.683594 154.132812 L 74.765625 151.375 "
          fill-opacity="1" fill-rule="evenodd"/>
    <path fill="#291b25"
          d="M 68.519531 151.1875 C 68.625 151.097656 68.78125 151.109375 68.871094 151.214844 C 68.960938 151.316406 68.949219 151.476562 68.84375 151.5625 L 65.550781 154.414062 C 65.445312 154.5 65.289062 154.492188 65.199219 154.386719 C 65.109375 154.28125 65.121094 154.125 65.226562 154.035156 L 68.519531 151.1875 "
          fill-opacity="1" fill-rule="evenodd"/>
    <path fill="#291b25"
          d="M 66.0625 151.117188 C 66.164062 151.027344 66.320312 151.035156 66.414062 151.136719 C 66.503906 151.238281 66.496094 151.398438 66.394531 151.488281 L 58.683594 158.457031 C 58.582031 158.546875 58.425781 158.539062 58.335938 158.4375 C 58.242188 158.335938 58.25 158.179688 58.351562 158.085938 L 66.0625 151.117188 "
          fill-opacity="1" fill-rule="evenodd"/>
    <path fill="#291b25"
          d="M 33.230469 155.792969 C 33.117188 155.875 32.964844 155.851562 32.882812 155.742188 C 32.800781 155.632812 32.824219 155.476562 32.933594 155.394531 L 41.683594 148.917969 C 41.792969 148.835938 41.949219 148.859375 42.03125 148.96875 C 42.113281 149.082031 42.089844 149.234375 41.980469 149.316406 L 33.230469 155.792969 "
          fill-opacity="1" fill-rule="evenodd"/>
    <path fill="#291b25"
          d="M 34.457031 156.117188 C 34.34375 156.199219 34.191406 156.175781 34.109375 156.066406 C 34.027344 155.953125 34.050781 155.796875 34.164062 155.71875 L 38.546875 152.5 C 38.65625 152.417969 38.8125 152.441406 38.894531 152.550781 C 38.972656 152.664062 38.949219 152.820312 38.839844 152.898438 L 34.457031 156.117188 "
          fill-opacity="1" fill-rule="evenodd"/>
    <path fill="#291b25"
          d="M 50.539062 146.957031 C 50.648438 146.875 50.804688 146.898438 50.886719 147.007812 C 50.96875 147.117188 50.945312 147.273438 50.835938 147.355469 L 38.597656 156.507812 C 38.488281 156.589844 38.335938 156.566406 38.25 156.457031 C 38.171875 156.347656 38.191406 156.191406 38.300781 156.109375 L 50.539062 146.957031 "
          fill-opacity="1" fill-rule="evenodd"/>
    <path fill="#291b25"
          d="M 55.480469 140.097656 C 55.585938 140.015625 55.742188 140.035156 55.828125 140.144531 C 55.910156 140.253906 55.890625 140.40625 55.78125 140.492188 L 50.5625 144.550781 C 50.453125 144.632812 50.296875 144.613281 50.210938 144.507812 C 50.128906 144.398438 50.148438 144.242188 50.257812 144.15625 L 55.480469 140.097656 "
          fill-opacity="1" fill-rule="evenodd"/>
    <path fill="#291b25"
          d="M 56.855469 140.261719 C 56.96875 140.179688 57.121094 140.207031 57.203125 140.316406 C 57.28125 140.429688 57.257812 140.582031 57.144531 140.664062 L 53.941406 142.96875 C 53.828125 143.046875 53.675781 143.023438 53.59375 142.910156 C 53.515625 142.800781 53.539062 142.644531 53.652344 142.566406 L 56.855469 140.261719 "
          fill-opacity="1" fill-rule="evenodd"/>
    <path fill="#291b25"
          d="M 31.621094 156.71875 C 31.726562 156.628906 31.882812 156.636719 31.972656 156.738281 C 32.066406 156.839844 32.054688 157 31.953125 157.089844 L 25.339844 162.980469 C 25.238281 163.074219 25.078125 163.066406 24.988281 162.960938 C 24.898438 162.859375 24.90625 162.703125 25.007812 162.609375 L 31.621094 156.71875 "
          fill-opacity="1" fill-rule="evenodd"/>
    <path fill="#291b25"
          d="M 24.066406 162.796875 C 23.964844 162.890625 23.808594 162.882812 23.714844 162.785156 C 23.621094 162.683594 23.628906 162.523438 23.730469 162.433594 L 27.773438 158.710938 C 27.875 158.621094 28.03125 158.625 28.125 158.726562 C 28.214844 158.828125 28.210938 158.984375 28.109375 159.078125 L 24.066406 162.796875 "
          fill-opacity="1" fill-rule="evenodd"/>
    <path fill="#291b25"
          d="M 31.636719 158.214844 C 31.738281 158.125 31.894531 158.128906 31.988281 158.230469 C 32.082031 158.328125 32.074219 158.488281 31.972656 158.578125 L 27.082031 163.113281 C 26.984375 163.207031 26.828125 163.203125 26.734375 163.101562 C 26.640625 163 26.648438 162.84375 26.746094 162.75 L 31.636719 158.214844 "
          fill-opacity="1" fill-rule="evenodd"/>
    <path fill="#291b25"
          d="M 11.78125 169.746094 C 11.675781 169.832031 11.519531 169.816406 11.433594 169.710938 C 11.347656 169.605469 11.363281 169.449219 11.46875 169.359375 L 18.769531 163.34375 C 18.878906 163.257812 19.035156 163.269531 19.121094 163.375 C 19.207031 163.484375 19.191406 163.640625 19.085938 163.726562 L 11.78125 169.746094 "
          fill-opacity="1" fill-rule="evenodd"/>
    <path fill="#291b25"
          d="M 13.589844 169.964844 C 13.488281 170.054688 13.332031 170.046875 13.242188 169.941406 C 13.148438 169.839844 13.160156 169.683594 13.261719 169.589844 L 16.777344 166.492188 C 16.878906 166.402344 17.035156 166.410156 17.125 166.515625 C 17.21875 166.617188 17.207031 166.777344 17.105469 166.867188 L 13.589844 169.964844 "
          fill-opacity="1" fill-rule="evenodd"/>
    <path fill="#291b25"
          d="M 73.910156 174.773438 C 73.871094 174.644531 73.941406 174.503906 74.070312 174.460938 C 74.199219 174.417969 74.339844 174.488281 74.382812 174.617188 L 74.507812 174.992188 C 74.550781 175.125 74.480469 175.261719 74.347656 175.304688 C 74.21875 175.347656 74.078125 175.277344 74.035156 175.148438 L 73.910156 174.773438 "
          fill-opacity="1" fill-rule="evenodd"/>
    <path fill="#291b25"
          d="M 66.628906 174.785156 C 66.617188 174.648438 66.714844 174.527344 66.851562 174.511719 C 66.988281 174.5 67.109375 174.597656 67.121094 174.734375 L 67.183594 175.359375 C 67.199219 175.492188 67.097656 175.617188 66.960938 175.628906 C 66.824219 175.644531 66.703125 175.542969 66.691406 175.40625 L 66.628906 174.785156 "
          fill-opacity="1" fill-rule="evenodd"/>
    <path fill="#291b25"
          d="M 73.960938 167.097656 C 73.824219 167.097656 73.714844 166.988281 73.714844 166.851562 C 73.714844 166.714844 73.824219 166.601562 73.960938 166.601562 L 74.273438 166.601562 C 74.410156 166.601562 74.519531 166.714844 74.519531 166.851562 C 74.519531 166.988281 74.410156 167.097656 74.273438 167.097656 L 73.960938 167.097656 "
          fill-opacity="1" fill-rule="evenodd"/>
    <path fill="#291b25"
          d="M 73.753906 201.613281 C 73.679688 201.496094 73.710938 201.34375 73.824219 201.265625 C 73.9375 201.191406 74.09375 201.222656 74.167969 201.335938 L 74.417969 201.710938 C 74.492188 201.824219 74.460938 201.980469 74.347656 202.054688 C 74.234375 202.132812 74.078125 202.101562 74.003906 201.984375 L 73.753906 201.613281 "
          fill-opacity="1" fill-rule="evenodd"/>
    <path fill="#291b25"
          d="M 61.070312 193.0625 C 61.140625 192.945312 61.296875 192.90625 61.410156 192.980469 C 61.53125 193.050781 61.566406 193.207031 61.492188 193.324219 L 60.996094 194.132812 C 60.925781 194.25 60.773438 194.285156 60.65625 194.214844 C 60.539062 194.140625 60.5 193.988281 60.574219 193.871094 L 61.070312 193.0625 "
          fill-opacity="1" fill-rule="evenodd"/>
    <path fill="#291b25"
          d="M 60.984375 219.210938 C 60.886719 219.113281 60.886719 218.957031 60.984375 218.859375 C 61.078125 218.761719 61.234375 218.761719 61.335938 218.859375 L 61.769531 219.296875 C 61.867188 219.390625 61.867188 219.550781 61.769531 219.648438 C 61.671875 219.746094 61.515625 219.746094 61.417969 219.648438 L 60.984375 219.210938 "
          fill-opacity="1" fill-rule="evenodd"/>
    <path fill="#291b25"
          d="M 68.738281 216.195312 C 68.621094 216.125 68.582031 215.972656 68.652344 215.855469 C 68.722656 215.738281 68.875 215.699219 68.992188 215.769531 L 69.300781 215.957031 C 69.417969 216.027344 69.457031 216.179688 69.386719 216.296875 C 69.316406 216.414062 69.164062 216.453125 69.046875 216.382812 L 68.738281 216.195312 "
          fill-opacity="1" fill-rule="evenodd"/>
    <path fill="#291b25"
          d="M 47.488281 157.296875 C 47.46875 157.160156 47.5625 157.035156 47.699219 157.015625 C 47.832031 156.996094 47.960938 157.089844 47.980469 157.226562 L 48.042969 157.660156 C 48.058594 157.796875 47.964844 157.921875 47.828125 157.941406 C 47.695312 157.960938 47.570312 157.867188 47.550781 157.730469 L 47.488281 157.296875 "
          fill-opacity="1" fill-rule="evenodd"/>
    <path fill="#291b25"
          d="M 57.0625 149.46875 C 56.929688 149.441406 56.847656 149.308594 56.875 149.171875 C 56.90625 149.039062 57.039062 148.957031 57.171875 148.984375 L 57.730469 149.109375 C 57.863281 149.140625 57.949219 149.273438 57.917969 149.40625 C 57.890625 149.539062 57.757812 149.625 57.625 149.59375 L 57.0625 149.46875 "
          fill-opacity="1" fill-rule="evenodd"/>
    <path fill="#291b25"
          d="M 51.335938 149.789062 C 51.335938 149.652344 51.449219 149.539062 51.585938 149.539062 C 51.722656 149.539062 51.835938 149.652344 51.835938 149.789062 L 51.835938 150.160156 C 51.835938 150.296875 51.722656 150.410156 51.585938 150.410156 C 51.449219 150.410156 51.335938 150.296875 51.335938 150.160156 L 51.335938 149.789062 "
          fill-opacity="1" fill-rule="evenodd"/>
    <path fill="#291b25"
          d="M 24.550781 166.289062 C 24.550781 166.152344 24.660156 166.039062 24.800781 166.039062 C 24.9375 166.039062 25.046875 166.152344 25.046875 166.289062 L 25.046875 166.652344 L 25.253906 166.960938 C 25.332031 167.078125 25.300781 167.230469 25.183594 167.308594 C 25.070312 167.382812 24.917969 167.351562 24.839844 167.238281 L 24.601562 166.878906 C 24.570312 166.835938 24.550781 166.785156 24.550781 166.726562 L 24.550781 166.289062 "
          fill-opacity="1" fill-rule="evenodd"/>
    <path fill="#291b25"
          d="M 23.207031 171.835938 C 23.105469 171.746094 23.09375 171.589844 23.179688 171.484375 C 23.269531 171.378906 23.425781 171.367188 23.53125 171.457031 L 23.964844 171.832031 C 24.070312 171.917969 24.082031 172.078125 23.992188 172.179688 C 23.90625 172.285156 23.746094 172.296875 23.644531 172.207031 L 23.207031 171.835938 "
          fill-opacity="1" fill-rule="evenodd"/>
    <path fill="#291b25"
          d="M 29.398438 170.019531 C 29.269531 169.984375 29.1875 169.851562 29.21875 169.71875 C 29.253906 169.582031 29.386719 169.503906 29.519531 169.535156 L 29.769531 169.597656 C 29.902344 169.632812 29.984375 169.765625 29.949219 169.898438 C 29.917969 170.035156 29.78125 170.113281 29.648438 170.082031 L 29.398438 170.019531 "
          fill-opacity="1" fill-rule="evenodd"/>
    <path fill="#291b25"
          d="M 22.378906 226.910156 C 22.257812 226.84375 22.214844 226.695312 22.28125 226.574219 C 22.351562 226.453125 22.5 226.410156 22.621094 226.476562 L 23.179688 226.789062 C 23.300781 226.855469 23.34375 227.007812 23.273438 227.125 C 23.210938 227.246094 23.058594 227.289062 22.9375 227.222656 L 22.378906 226.910156 "
          fill-opacity="1" fill-rule="evenodd"/>
    <path fill="#291b25"
          d="M 25.925781 232.695312 C 25.8125 232.769531 25.660156 232.734375 25.585938 232.621094 C 25.511719 232.503906 25.546875 232.351562 25.660156 232.277344 L 26.34375 231.839844 C 26.460938 231.769531 26.613281 231.800781 26.6875 231.917969 C 26.757812 232.03125 26.726562 232.183594 26.609375 232.257812 L 25.925781 232.695312 "
          fill-opacity="1" fill-rule="evenodd"/>
    <path fill="#291b25"
          d="M 29.929688 227.390625 C 29.824219 227.304688 29.800781 227.148438 29.886719 227.042969 C 29.96875 226.933594 30.125 226.914062 30.234375 226.996094 L 31.042969 227.621094 C 31.148438 227.703125 31.171875 227.859375 31.085938 227.96875 C 31.003906 228.078125 30.847656 228.097656 30.738281 228.011719 L 29.929688 227.390625 "
          fill-opacity="1" fill-rule="evenodd"/>
    <g fill="#f6f6e9" fill-opacity="1">
        <g transform="translate(100.870106, 201.959987)">
            <g>
                <path d="M 14.796875 -11.78125 L 14.796875 -11.65625 C 16.472656 -11.5 17.671875 -10.925781 18.390625 -9.9375 C 19.117188 -8.945312 19.484375 -7.507812 19.484375 -5.625 C 19.484375 -3.351562 18.898438 -1.800781 17.734375 -0.96875 C 16.578125 -0.144531 14.601562 0.265625 11.8125 0.265625 C 7.625 0.265625 4.453125 0.175781 2.296875 0 L 2.296875 -22.59375 C 4.234375 -22.757812 7.054688 -22.84375 10.765625 -22.84375 C 13.773438 -22.84375 15.859375 -22.429688 17.015625 -21.609375 C 18.171875 -20.796875 18.75 -19.242188 18.75 -16.953125 C 18.75 -15.316406 18.4375 -14.078125 17.8125 -13.234375 C 17.195312 -12.398438 16.191406 -11.914062 14.796875 -11.78125 Z M 7.171875 -13.359375 L 10.796875 -13.359375 C 12.023438 -13.359375 12.863281 -13.550781 13.3125 -13.9375 C 13.757812 -14.332031 13.984375 -15.109375 13.984375 -16.265625 C 13.984375 -17.398438 13.738281 -18.148438 13.25 -18.515625 C 12.769531 -18.890625 11.867188 -19.078125 10.546875 -19.078125 L 7.171875 -19.109375 Z M 7.171875 -3.5 L 10.96875 -3.5 C 12.34375 -3.5 13.269531 -3.703125 13.75 -4.109375 C 14.226562 -4.515625 14.46875 -5.335938 14.46875 -6.578125 C 14.46875 -7.929688 14.21875 -8.84375 13.71875 -9.3125 C 13.21875 -9.78125 12.253906 -10.023438 10.828125 -10.046875 L 7.171875 -10.046875 Z M 7.171875 -3.5 "/>
            </g>
        </g>
    </g>
    <g fill="#f6f6e9" fill-opacity="1">
        <g transform="translate(124.657738, 201.959987)">
            <g>
                <path d="M 3.640625 -20.5 C 5.054688 -22.175781 7.570312 -23.015625 11.1875 -23.015625 C 14.8125 -23.015625 17.332031 -22.175781 18.75 -20.5 C 20.175781 -18.832031 20.890625 -15.757812 20.890625 -11.28125 C 20.890625 -6.8125 20.175781 -3.742188 18.75 -2.078125 C 17.332031 -0.410156 14.8125 0.421875 11.1875 0.421875 C 7.570312 0.421875 5.054688 -0.410156 3.640625 -2.078125 C 2.234375 -3.742188 1.53125 -6.8125 1.53125 -11.28125 C 1.53125 -15.757812 2.234375 -18.832031 3.640625 -20.5 Z M 14.671875 -17.375 C 14.054688 -18.445312 12.894531 -18.984375 11.1875 -18.984375 C 9.488281 -18.984375 8.328125 -18.445312 7.703125 -17.375 C 7.085938 -16.3125 6.78125 -14.285156 6.78125 -11.296875 C 6.78125 -8.304688 7.085938 -6.273438 7.703125 -5.203125 C 8.328125 -4.128906 9.488281 -3.59375 11.1875 -3.59375 C 12.894531 -3.59375 14.054688 -4.128906 14.671875 -5.203125 C 15.296875 -6.273438 15.609375 -8.304688 15.609375 -11.296875 C 15.609375 -14.285156 15.296875 -16.3125 14.671875 -17.375 Z M 14.671875 -17.375 "/>
            </g>
        </g>
    </g>
    <g fill="#f6f6e9" fill-opacity="1">
        <g transform="translate(149.983162, 201.959987)">
            <g>
                <path d="M 3.640625 -20.5 C 5.054688 -22.175781 7.570312 -23.015625 11.1875 -23.015625 C 14.8125 -23.015625 17.332031 -22.175781 18.75 -20.5 C 20.175781 -18.832031 20.890625 -15.757812 20.890625 -11.28125 C 20.890625 -6.8125 20.175781 -3.742188 18.75 -2.078125 C 17.332031 -0.410156 14.8125 0.421875 11.1875 0.421875 C 7.570312 0.421875 5.054688 -0.410156 3.640625 -2.078125 C 2.234375 -3.742188 1.53125 -6.8125 1.53125 -11.28125 C 1.53125 -15.757812 2.234375 -18.832031 3.640625 -20.5 Z M 14.671875 -17.375 C 14.054688 -18.445312 12.894531 -18.984375 11.1875 -18.984375 C 9.488281 -18.984375 8.328125 -18.445312 7.703125 -17.375 C 7.085938 -16.3125 6.78125 -14.285156 6.78125 -11.296875 C 6.78125 -8.304688 7.085938 -6.273438 7.703125 -5.203125 C 8.328125 -4.128906 9.488281 -3.59375 11.1875 -3.59375 C 12.894531 -3.59375 14.054688 -4.128906 14.671875 -5.203125 C 15.296875 -6.273438 15.609375 -8.304688 15.609375 -11.296875 C 15.609375 -14.285156 15.296875 -16.3125 14.671875 -17.375 Z M 14.671875 -17.375 "/>
            </g>
        </g>
    </g>
    <g fill="#f6f6e9" fill-opacity="1">
        <g transform="translate(175.308587, 201.959987)">
            <g>
                <path d="M 8.96875 -9.953125 L 7.03125 -9.953125 C 7.1875 -9.078125 7.265625 -8.359375 7.265625 -7.796875 L 7.265625 0 L 2.296875 0 L 2.296875 -22.59375 L 7.265625 -22.59375 L 7.265625 -16.203125 C 7.265625 -15.242188 7.1875 -14.347656 7.03125 -13.515625 L 8.96875 -13.515625 L 14.703125 -22.59375 L 20.09375 -22.59375 L 14.265625 -13.578125 C 13.898438 -12.929688 13.359375 -12.332031 12.640625 -11.78125 L 12.640625 -11.65625 C 13.421875 -11.101562 14.050781 -10.4375 14.53125 -9.65625 L 20.484375 0 L 14.921875 0 Z M 8.96875 -9.953125 "/>
            </g>
        </g>
    </g>
    <g fill="#f6f6e9" fill-opacity="1">
        <g transform="translate(198.899905, 201.959987)">
            <g/>
        </g>
    </g>
    <g fill="#f6f6e9" fill-opacity="1">
        <g transform="translate(208.94562, 201.959987)">
            <g>
                <path d="M 14.796875 -11.78125 L 14.796875 -11.65625 C 16.472656 -11.5 17.671875 -10.925781 18.390625 -9.9375 C 19.117188 -8.945312 19.484375 -7.507812 19.484375 -5.625 C 19.484375 -3.351562 18.898438 -1.800781 17.734375 -0.96875 C 16.578125 -0.144531 14.601562 0.265625 11.8125 0.265625 C 7.625 0.265625 4.453125 0.175781 2.296875 0 L 2.296875 -22.59375 C 4.234375 -22.757812 7.054688 -22.84375 10.765625 -22.84375 C 13.773438 -22.84375 15.859375 -22.429688 17.015625 -21.609375 C 18.171875 -20.796875 18.75 -19.242188 18.75 -16.953125 C 18.75 -15.316406 18.4375 -14.078125 17.8125 -13.234375 C 17.195312 -12.398438 16.191406 -11.914062 14.796875 -11.78125 Z M 7.171875 -13.359375 L 10.796875 -13.359375 C 12.023438 -13.359375 12.863281 -13.550781 13.3125 -13.9375 C 13.757812 -14.332031 13.984375 -15.109375 13.984375 -16.265625 C 13.984375 -17.398438 13.738281 -18.148438 13.25 -18.515625 C 12.769531 -18.890625 11.867188 -19.078125 10.546875 -19.078125 L 7.171875 -19.109375 Z M 7.171875 -3.5 L 10.96875 -3.5 C 12.34375 -3.5 13.269531 -3.703125 13.75 -4.109375 C 14.226562 -4.515625 14.46875 -5.335938 14.46875 -6.578125 C 14.46875 -7.929688 14.21875 -8.84375 13.71875 -9.3125 C 13.21875 -9.78125 12.253906 -10.023438 10.828125 -10.046875 L 7.171875 -10.046875 Z M 7.171875 -3.5 "/>
            </g>
        </g>
    </g>
    <g fill="#f6f6e9" fill-opacity="1">
        <g transform="translate(232.733251, 201.959987)">
            <g>
                <path d="M 14.53125 -5.921875 L 6.78125 -5.921875 L 5.140625 0 L 0.03125 0 L 6.546875 -21.28125 C 6.628906 -21.664062 6.832031 -21.976562 7.15625 -22.21875 C 7.488281 -22.46875 7.863281 -22.59375 8.28125 -22.59375 L 13 -22.59375 C 13.9375 -22.59375 14.515625 -22.15625 14.734375 -21.28125 L 21.25 0 L 16.171875 0 Z M 13.453125 -9.78125 L 11.5625 -16.6875 C 11.289062 -17.78125 11.132812 -18.492188 11.09375 -18.828125 L 10.21875 -18.828125 C 10.164062 -18.609375 10.085938 -18.253906 9.984375 -17.765625 C 9.878906 -17.285156 9.789062 -16.925781 9.71875 -16.6875 L 7.828125 -9.78125 Z M 13.453125 -9.78125 "/>
            </g>
        </g>
    </g>
    <g fill="#f6f6e9" fill-opacity="1">
        <g transform="translate(256.946223, 201.959987)">
            <g>
                <path d="M 17.8125 -3.828125 L 17.8125 0 L 1.3125 0 L 1.3125 -3.828125 L 12.046875 -18.75 L 1.578125 -18.75 L 1.578125 -22.59375 L 17.546875 -22.59375 L 17.546875 -18.75 L 6.8125 -3.828125 Z M 17.8125 -3.828125 "/>
            </g>
        </g>
    </g>
    <g fill="#f6f6e9" fill-opacity="1">
        <g transform="translate(278.967035, 201.959987)">
            <g>
                <path d="M 14.53125 -5.921875 L 6.78125 -5.921875 L 5.140625 0 L 0.03125 0 L 6.546875 -21.28125 C 6.628906 -21.664062 6.832031 -21.976562 7.15625 -22.21875 C 7.488281 -22.46875 7.863281 -22.59375 8.28125 -22.59375 L 13 -22.59375 C 13.9375 -22.59375 14.515625 -22.15625 14.734375 -21.28125 L 21.25 0 L 16.171875 0 Z M 13.453125 -9.78125 L 11.5625 -16.6875 C 11.289062 -17.78125 11.132812 -18.492188 11.09375 -18.828125 L 10.21875 -18.828125 C 10.164062 -18.609375 10.085938 -18.253906 9.984375 -17.765625 C 9.878906 -17.285156 9.789062 -16.925781 9.71875 -16.6875 L 7.828125 -9.78125 Z M 13.453125 -9.78125 "/>
            </g>
        </g>
    </g>
    <g fill="#f6f6e9" fill-opacity="1">
        <g transform="translate(303.180008, 201.959987)">
            <g>
                <path d="M 14.53125 -5.921875 L 6.78125 -5.921875 L 5.140625 0 L 0.03125 0 L 6.546875 -21.28125 C 6.628906 -21.664062 6.832031 -21.976562 7.15625 -22.21875 C 7.488281 -22.46875 7.863281 -22.59375 8.28125 -22.59375 L 13 -22.59375 C 13.9375 -22.59375 14.515625 -22.15625 14.734375 -21.28125 L 21.25 0 L 16.171875 0 Z M 13.453125 -9.78125 L 11.5625 -16.6875 C 11.289062 -17.78125 11.132812 -18.492188 11.09375 -18.828125 L 10.21875 -18.828125 C 10.164062 -18.609375 10.085938 -18.253906 9.984375 -17.765625 C 9.878906 -17.285156 9.789062 -16.925781 9.71875 -16.6875 L 7.828125 -9.78125 Z M 13.453125 -9.78125 "/>
            </g>
        </g>
    </g>
    <g fill="#f6f6e9" fill-opacity="1">
        <g transform="translate(327.392981, 201.959987)">
            <g>
                <path d="M 20.09375 0 L 14.828125 0 L 13.125 -6.90625 C 12.90625 -7.625 12.613281 -8.117188 12.25 -8.390625 C 11.894531 -8.671875 11.378906 -8.8125 10.703125 -8.8125 L 7.203125 -8.84375 L 7.203125 0 L 2.296875 0 L 2.296875 -22.59375 C 4.316406 -22.78125 7.1875 -22.875 10.90625 -22.875 C 13.9375 -22.875 16.082031 -22.394531 17.34375 -21.4375 C 18.613281 -20.476562 19.25 -18.734375 19.25 -16.203125 C 19.25 -14.546875 18.914062 -13.25 18.25 -12.3125 C 17.582031 -11.375 16.472656 -10.804688 14.921875 -10.609375 L 14.921875 -10.4375 C 16.648438 -10.050781 17.722656 -8.914062 18.140625 -7.03125 Z M 7.203125 -12.671875 L 10.796875 -12.671875 C 12.109375 -12.671875 13.003906 -12.894531 13.484375 -13.34375 C 13.960938 -13.789062 14.203125 -14.632812 14.203125 -15.875 C 14.203125 -17.113281 13.96875 -17.953125 13.5 -18.390625 C 13.03125 -18.828125 12.128906 -19.046875 10.796875 -19.046875 L 7.203125 -19.015625 Z M 7.203125 -12.671875 "/>
            </g>
        </g>
    </g>
</svg>