<svg xmlns="http://www.w3.org/2000/svg" width="500" zoomAndPan="magnify"
     viewBox="0 0 375 374.999991" height="500" preserveAspectRatio="xMidYMid meet" version="1.0">
    <defs>
        <clipPath id="26004cb6e7">
            <path d="M 176.832031 149.929688 L 212.878906 149.929688 L 212.878906 284.808594 L 176.832031 284.808594 Z M 176.832031 149.929688 "
                  clip-rule="nonzero"/>
        </clipPath>
        <clipPath id="dd1ece1228">
            <path d="M 210 113.359375 L 259.96875 113.359375 L 259.96875 283 L 210 283 Z M 210 113.359375 "
                  clip-rule="nonzero"/>
        </clipPath>
        <clipPath id="ca036237d5">
            <path d="M 247.402344 226.117188 L 259.96875 226.117188 L 259.96875 255.578125 L 247.402344 255.578125 Z M 247.402344 226.117188 "
                  clip-rule="nonzero"/>
        </clipPath>
        <clipPath id="0b45c478ec">
            <path d="M 159 89.488281 L 221 89.488281 L 221 125 L 159 125 Z M 159 89.488281 " clip-rule="nonzero"/>
        </clipPath>
        <clipPath id="8f8364f6de">
            <path d="M 114.617188 149 L 139 149 L 139 282 L 114.617188 282 Z M 114.617188 149 " clip-rule="nonzero"/>
        </clipPath>
        <clipPath id="63745e2a9f">
            <path d="M 114.617188 98 L 182 98 L 182 152 L 114.617188 152 Z M 114.617188 98 " clip-rule="nonzero"/>
        </clipPath>
    </defs>
    <rect x="-37.5" width="450" fill="#ffffff" y="-37.499999" height="449.999989" fill-opacity="1"/>
    <rect x="-37.5" width="450" fill="#545454" y="-37.499999" height="449.999989" fill-opacity="1"/>
    <path fill="#ed5b2d"
          d="M 210.851562 154.5 C 211.441406 239.660156 211.738281 282.242188 211.738281 282.242188 C 196.976562 285.199219 185.636719 284.523438 177.722656 280.210938 C 177.722656 280.210938 177.722656 237.035156 177.722656 150.691406 C 185.589844 153.511719 196.632812 154.78125 210.851562 154.5 "
          fill-opacity="1" fill-rule="evenodd"/>
    <g clip-path="url(#26004cb6e7)">
        <path fill="#291b25"
              d="M 210.976562 281.617188 L 210.097656 155.273438 C 203.257812 155.382812 197.167969 155.128906 191.820312 154.515625 C 186.710938 153.925781 182.261719 153.007812 178.480469 151.753906 L 178.480469 279.753906 C 182.261719 281.726562 186.839844 282.875 192.207031 283.195312 C 197.652344 283.519531 203.90625 282.992188 210.976562 281.617188 Z M 211.609375 154.507812 L 212.496094 282.238281 C 212.5 282.605469 212.234375 282.917969 211.886719 282.988281 C 204.445312 284.480469 197.855469 285.054688 192.117188 284.710938 C 186.335938 284.367188 181.417969 283.085938 177.359375 280.875 C 177.101562 280.734375 176.957031 280.464844 176.964844 280.1875 L 176.964844 150.691406 C 176.964844 150.273438 177.300781 149.933594 177.722656 149.933594 C 177.816406 149.933594 177.910156 149.949219 177.996094 149.984375 C 181.867188 151.367188 186.53125 152.375 191.992188 153.003906 C 197.488281 153.636719 203.769531 153.882812 210.835938 153.742188 C 211.253906 153.734375 211.601562 154.066406 211.609375 154.484375 L 211.609375 154.507812 "
              fill-opacity="1" fill-rule="evenodd"/>
    </g>
    <path fill="#ed5b2d"
          d="M 211.738281 282.242188 C 211.738281 282.242188 227.5625 270.390625 259.210938 246.6875 C 259.210938 246.6875 258.023438 202.496094 255.65625 114.121094 C 255.65625 114.121094 240.722656 127.582031 210.851562 154.5 C 211.441406 239.660156 211.738281 282.242188 211.738281 282.242188 "
          fill-opacity="1" fill-rule="evenodd"/>
    <g clip-path="url(#dd1ece1228)">
        <path fill="#291b25"
              d="M 259.664062 247.292969 L 212.199219 282.84375 C 212.074219 282.941406 211.914062 283 211.742188 283 C 211.324219 283.003906 210.980469 282.664062 210.980469 282.246094 L 210.09375 154.558594 C 210.074219 154.332031 210.160156 154.097656 210.339844 153.933594 L 255.148438 113.558594 C 255.277344 113.441406 255.449219 113.367188 255.640625 113.363281 C 256.058594 113.351562 256.40625 113.683594 256.414062 114.101562 L 259.96875 246.671875 C 259.972656 246.90625 259.871094 247.140625 259.664062 247.292969 Z M 212.488281 280.734375 L 258.441406 246.316406 L 254.941406 115.789062 L 211.609375 154.839844 L 212.488281 280.734375 "
              fill-opacity="1" fill-rule="evenodd"/>
    </g>
    <path fill="#468b91"
          d="M 256.207031 134.664062 L 255.65625 114.121094 L 242.109375 126.328125 C 246.164062 131.113281 250.863281 133.890625 256.207031 134.664062 "
          fill-opacity="1" fill-rule="evenodd"/>
    <path fill="#291b25"
          d="M 256.414062 114.101562 L 256.964844 134.597656 C 256.96875 134.652344 256.96875 134.710938 256.960938 134.769531 C 256.902344 135.183594 256.515625 135.476562 256.097656 135.414062 C 253.328125 135.015625 250.722656 134.097656 248.289062 132.65625 C 245.875 131.226562 243.625 129.289062 241.550781 126.839844 L 241.546875 126.835938 C 241.265625 126.523438 241.289062 126.046875 241.601562 125.761719 L 255.148438 113.558594 C 255.277344 113.441406 255.449219 113.367188 255.640625 113.363281 C 256.058594 113.351562 256.40625 113.683594 256.414062 114.101562 Z M 255.421875 133.761719 L 254.941406 115.789062 L 243.175781 126.394531 C 245.007812 128.460938 246.96875 130.109375 249.0625 131.347656 C 251.0625 132.527344 253.183594 133.335938 255.421875 133.761719 "
          fill-opacity="1" fill-rule="evenodd"/>
    <path fill="#468b91"
          d="M 248.667969 254.582031 L 259.210938 246.6875 L 258.691406 227.375 C 251.8125 233.851562 248.46875 242.917969 248.667969 254.582031 "
          fill-opacity="1" fill-rule="evenodd"/>
    <g clip-path="url(#ca036237d5)">
        <path fill="#291b25"
              d="M 259.664062 247.292969 L 249.136719 255.179688 C 249.011719 255.277344 248.855469 255.335938 248.683594 255.339844 C 248.261719 255.347656 247.917969 255.011719 247.914062 254.59375 C 247.8125 248.664062 248.609375 243.390625 250.3125 238.769531 C 252.023438 234.125 254.644531 230.140625 258.171875 226.820312 C 258.304688 226.695312 258.480469 226.621094 258.671875 226.613281 C 259.09375 226.605469 259.441406 226.9375 259.449219 227.355469 L 259.96875 246.671875 C 259.972656 246.90625 259.871094 247.140625 259.664062 247.292969 Z M 249.421875 253.070312 L 258.441406 246.316406 L 257.980469 229.15625 C 255.242188 232.050781 253.160156 235.433594 251.738281 239.292969 C 250.246094 243.351562 249.472656 247.945312 249.421875 253.070312 "
              fill-opacity="1" fill-rule="evenodd"/>
    </g>
    <path fill="#61a6ab"
          d="M 177.722656 150.691406 C 206.746094 125.632812 221.257812 113.105469 221.257812 113.105469 C 244.191406 113.785156 255.65625 114.121094 255.65625 114.121094 C 255.65625 114.121094 240.722656 127.582031 210.851562 154.5 C 196.632812 154.78125 185.589844 153.511719 177.722656 150.691406 "
          fill-opacity="1" fill-rule="evenodd"/>
    <path fill="#291b25"
          d="M 221.53125 113.871094 L 179.222656 150.402344 C 182.835938 151.570312 187.097656 152.441406 191.992188 153.003906 C 197.414062 153.628906 203.601562 153.875 210.550781 153.75 L 253.738281 114.824219 Z M 177.226562 150.117188 L 220.761719 112.53125 C 220.917969 112.398438 221.109375 112.335938 221.300781 112.347656 L 255.675781 113.363281 C 256.09375 113.375 256.425781 113.722656 256.414062 114.144531 C 256.410156 114.359375 256.3125 114.550781 256.164062 114.6875 L 211.359375 155.066406 C 211.203125 155.207031 211.007812 155.269531 210.816406 155.261719 C 203.6875 155.398438 197.351562 155.152344 191.820312 154.515625 C 186.246094 153.875 181.460938 152.835938 177.46875 151.40625 C 177.074219 151.265625 176.867188 150.828125 177.007812 150.433594 C 177.054688 150.308594 177.128906 150.199219 177.226562 150.117188 "
          fill-opacity="1" fill-rule="evenodd"/>
    <path fill="#468b91"
          d="M 159.949219 121.230469 C 161.21875 226.878906 161.855469 279.703125 161.855469 279.703125 C 168.210938 282.058594 173.5 282.230469 177.722656 280.210938 C 177.722656 193.863281 177.722656 150.691406 177.722656 150.691406 C 177.722656 132.238281 177.722656 123.007812 177.722656 123.007812 C 172.402344 124.210938 166.480469 123.621094 159.949219 121.230469 "
          fill-opacity="1" fill-rule="evenodd"/>
    <path fill="#291b25"
          d="M 161.097656 279.710938 L 159.191406 121.28125 C 159.183594 121.179688 159.199219 121.074219 159.238281 120.972656 C 159.378906 120.578125 159.8125 120.375 160.207031 120.519531 C 163.414062 121.691406 166.46875 122.421875 169.367188 122.710938 C 172.246094 123 174.976562 122.851562 177.554688 122.269531 C 177.609375 122.257812 177.664062 122.25 177.722656 122.25 C 178.140625 122.25 178.480469 122.589844 178.480469 123.007812 L 178.480469 280.210938 C 178.480469 280.492188 178.320312 280.765625 178.046875 280.894531 C 175.828125 281.957031 173.332031 282.445312 170.566406 282.355469 C 167.832031 282.269531 164.839844 281.621094 161.589844 280.417969 L 161.589844 280.414062 C 161.304688 280.308594 161.097656 280.035156 161.097656 279.710938 Z M 160.722656 122.3125 L 162.605469 279.164062 C 165.523438 280.203125 168.191406 280.761719 170.613281 280.839844 C 172.957031 280.914062 175.074219 280.542969 176.964844 279.71875 L 176.960938 123.941406 C 174.5 124.398438 171.917969 124.492188 169.214844 124.222656 C 166.503906 123.953125 163.671875 123.316406 160.722656 122.3125 "
          fill-opacity="1" fill-rule="evenodd"/>
    <path fill="#468b91"
          d="M 177.722656 150.691406 C 206.746094 125.632812 221.257812 113.105469 221.257812 113.105469 C 221.257812 113.105469 220.792969 106.164062 219.859375 92.28125 C 219.859375 92.28125 205.8125 102.523438 177.722656 123.007812 C 177.722656 141.464844 177.722656 150.691406 177.722656 150.691406 "
          fill-opacity="1" fill-rule="evenodd"/>
    <path fill="#291b25"
          d="M 221.753906 113.679688 L 178.21875 151.265625 C 178.085938 151.382812 177.910156 151.449219 177.722656 151.449219 C 177.300781 151.449219 176.964844 151.109375 176.964844 150.691406 L 176.960938 123.007812 C 176.964844 122.777344 177.070312 122.546875 177.273438 122.394531 L 219.367188 91.703125 C 219.484375 91.601562 219.640625 91.535156 219.808594 91.523438 C 220.226562 91.496094 220.589844 91.8125 220.617188 92.230469 L 222.015625 113.054688 C 222.03125 113.285156 221.941406 113.519531 221.753906 113.679688 Z M 178.480469 149.035156 L 220.472656 112.78125 L 219.195312 93.707031 L 178.480469 123.394531 L 178.480469 149.035156 "
          fill-opacity="1" fill-rule="evenodd"/>
    <path fill="#61a6ab"
          d="M 159.949219 121.230469 C 188.71875 100.578125 203.105469 90.25 203.105469 90.25 C 214.277344 91.605469 219.859375 92.28125 219.859375 92.28125 C 219.859375 92.28125 205.8125 102.523438 177.722656 123.007812 C 172.402344 124.210938 166.480469 123.621094 159.949219 121.230469 "
          fill-opacity="1" fill-rule="evenodd"/>
    <g clip-path="url(#0b45c478ec)">
        <path fill="#291b25"
              d="M 203.304688 91.039062 L 161.582031 120.996094 C 164.289062 121.890625 166.882812 122.464844 169.367188 122.710938 C 172.191406 122.992188 174.871094 122.859375 177.402344 122.304688 L 217.855469 92.804688 Z M 159.53125 120.597656 L 202.664062 89.632812 C 202.824219 89.519531 203.011719 89.476562 203.195312 89.496094 L 219.949219 91.527344 C 220.367188 91.574219 220.664062 91.953125 220.613281 92.371094 C 220.585938 92.613281 220.449219 92.816406 220.253906 92.933594 L 178.167969 123.621094 C 178.078125 123.6875 177.984375 123.726562 177.886719 123.75 C 175.148438 124.371094 172.257812 124.527344 169.214844 124.222656 C 166.191406 123.921875 163.015625 123.164062 159.691406 121.949219 C 159.296875 121.804688 159.09375 121.367188 159.238281 120.972656 C 159.292969 120.8125 159.402344 120.6875 159.53125 120.597656 "
              fill-opacity="1" fill-rule="evenodd"/>
    </g>
    <path fill="#ed5b2d"
          d="M 160.136719 136.722656 C 161.28125 232.042969 161.855469 279.703125 161.855469 279.703125 C 153.894531 283.5 145.8125 283.074219 137.609375 278.433594 C 137.609375 278.433594 137.566406 230.5625 137.484375 134.820312 C 143.660156 137.007812 151.210938 137.640625 160.136719 136.722656 "
          fill-opacity="1" fill-rule="evenodd"/>
    <path fill="#291b25"
          d="M 161.089844 279.21875 L 159.386719 137.558594 C 155.1875 137.949219 151.300781 137.996094 147.714844 137.691406 C 144.285156 137.40625 141.125 136.800781 138.242188 135.878906 L 138.367188 277.984375 C 142.234375 280.113281 146.066406 281.273438 149.863281 281.472656 C 153.625 281.667969 157.367188 280.917969 161.089844 279.21875 Z M 160.894531 136.75 L 162.613281 279.691406 C 162.617188 280 162.441406 280.265625 162.183594 280.386719 L 162.183594 280.390625 C 158.089844 282.339844 153.957031 283.207031 149.785156 282.992188 C 145.625 282.773438 141.441406 281.472656 137.234375 279.09375 C 136.976562 278.945312 136.839844 278.671875 136.851562 278.398438 L 136.726562 134.820312 C 136.726562 134.398438 137.0625 134.058594 137.484375 134.058594 C 137.570312 134.058594 137.65625 134.078125 137.734375 134.105469 C 140.761719 135.171875 144.128906 135.863281 147.839844 136.175781 C 151.578125 136.488281 155.648438 136.417969 160.058594 135.96875 C 160.476562 135.921875 160.847656 136.226562 160.894531 136.644531 C 160.894531 136.679688 160.898438 136.714844 160.894531 136.75 "
          fill-opacity="1" fill-rule="evenodd"/>
    <path fill="#f6f6e9"
          d="M 161.640625 261.679688 L 161.855469 279.703125 C 153.894531 283.5 145.8125 283.074219 137.609375 278.433594 L 137.59375 259.96875 C 144.714844 263.140625 152.726562 263.710938 161.640625 261.679688 "
          fill-opacity="1" fill-rule="evenodd"/>
    <path fill="#291b25"
          d="M 161.089844 279.21875 L 160.890625 262.621094 C 156.695312 263.5 152.695312 263.808594 148.890625 263.535156 C 145.195312 263.273438 141.683594 262.46875 138.351562 261.117188 L 138.367188 277.984375 C 142.234375 280.113281 146.066406 281.273438 149.863281 281.472656 C 153.625 281.667969 157.367188 280.917969 161.089844 279.21875 Z M 162.398438 261.703125 L 162.613281 279.691406 C 162.617188 280 162.441406 280.265625 162.183594 280.386719 L 162.183594 280.390625 C 158.089844 282.339844 153.957031 283.207031 149.785156 282.992188 C 145.625 282.773438 141.441406 281.472656 137.234375 279.09375 C 136.976562 278.945312 136.839844 278.671875 136.851562 278.398438 L 136.835938 259.96875 C 136.835938 259.550781 137.175781 259.210938 137.59375 259.210938 C 137.703125 259.210938 137.808594 259.234375 137.902344 259.277344 C 141.378906 260.828125 145.078125 261.738281 148.996094 262.015625 C 152.933594 262.296875 157.089844 261.9375 161.472656 260.9375 C 161.878906 260.84375 162.289062 261.101562 162.378906 261.511719 C 162.394531 261.578125 162.398438 261.640625 162.398438 261.703125 "
          fill-opacity="1" fill-rule="evenodd"/>
    <path fill="#f6f6e9"
          d="M 160.136719 136.722656 L 160.421875 160.433594 C 153.367188 162.027344 145.730469 161.699219 137.503906 159.441406 L 137.484375 134.820312 C 143.660156 137.007812 151.210938 137.640625 160.136719 136.722656 "
          fill-opacity="1" fill-rule="evenodd"/>
    <path fill="#291b25"
          d="M 159.65625 159.824219 L 159.386719 137.558594 C 155.1875 137.949219 151.300781 137.996094 147.714844 137.691406 C 144.285156 137.40625 141.125 136.800781 138.242188 135.878906 L 138.261719 158.859375 C 142.121094 159.878906 145.84375 160.46875 149.4375 160.621094 C 152.972656 160.777344 156.378906 160.507812 159.65625 159.824219 Z M 160.894531 136.75 L 161.179688 160.425781 C 161.183594 160.789062 160.929688 161.097656 160.585938 161.175781 C 156.996094 161.984375 153.257812 162.308594 149.371094 162.140625 C 145.496094 161.972656 141.476562 161.316406 137.304688 160.175781 C 136.96875 160.082031 136.746094 159.777344 136.746094 159.441406 L 136.726562 134.820312 C 136.726562 134.398438 137.0625 134.058594 137.484375 134.058594 C 137.570312 134.058594 137.65625 134.078125 137.734375 134.105469 C 140.761719 135.171875 144.128906 135.863281 147.839844 136.175781 C 151.578125 136.488281 155.648438 136.417969 160.058594 135.96875 C 160.476562 135.921875 160.847656 136.226562 160.894531 136.644531 C 160.894531 136.679688 160.898438 136.714844 160.894531 136.75 "
          fill-opacity="1" fill-rule="evenodd"/>
    <path fill="#ed5b2d"
          d="M 160.136719 136.722656 C 151.472656 137.664062 143.921875 137.03125 137.484375 134.820312 C 173.277344 105.953125 191.171875 91.519531 191.171875 91.519531 L 200.15625 92.367188 L 159.949219 121.230469 L 160.136719 136.722656 "
          fill-opacity="1" fill-rule="evenodd"/>
    <path fill="#291b25"
          d="M 148.039062 136.195312 C 151.570312 136.492188 155.347656 136.4375 159.371094 136.035156 L 159.191406 121.257812 C 159.183594 121.011719 159.292969 120.769531 159.507812 120.617188 L 198.066406 92.933594 L 191.410156 92.304688 L 139.054688 134.527344 C 141.847656 135.371094 144.839844 135.925781 148.039062 136.195312 Z M 160.214844 137.476562 C 155.832031 137.957031 151.730469 138.03125 147.914062 137.714844 C 144.074219 137.390625 140.515625 136.664062 137.238281 135.539062 C 136.839844 135.402344 136.628906 134.972656 136.761719 134.574219 C 136.816406 134.414062 136.917969 134.285156 137.042969 134.199219 L 190.699219 90.925781 C 190.867188 90.792969 191.074219 90.742188 191.273438 90.765625 L 200.226562 91.613281 C 200.644531 91.652344 200.949219 92.019531 200.910156 92.4375 C 200.890625 92.671875 200.765625 92.867188 200.589844 92.992188 L 160.714844 121.617188 L 160.894531 136.714844 C 160.898438 137.109375 160.601562 137.433594 160.214844 137.476562 "
          fill-opacity="1" fill-rule="evenodd"/>
    <path fill="#468b91"
          d="M 137.496094 149.910156 C 137.570312 235.589844 137.609375 278.433594 137.609375 278.433594 C 130.472656 281.984375 123.191406 281.8125 115.777344 277.925781 C 115.691406 192.59375 115.648438 149.929688 115.648438 149.929688 C 122.585938 151.628906 129.867188 151.625 137.496094 149.910156 "
          fill-opacity="1" fill-rule="evenodd"/>
    <g clip-path="url(#8f8364f6de)">
        <path fill="#291b25"
              d="M 136.851562 277.957031 L 136.738281 150.851562 C 133.191406 151.585938 129.714844 151.957031 126.3125 151.957031 C 122.9375 151.960938 119.636719 151.605469 116.410156 150.886719 L 116.535156 277.460938 C 120 279.214844 123.425781 280.132812 126.8125 280.210938 C 130.183594 280.289062 133.53125 279.535156 136.851562 277.957031 Z M 138.257812 149.945312 L 138.371094 278.433594 C 138.371094 278.730469 138.195312 278.992188 137.945312 279.113281 C 134.269531 280.941406 130.546875 281.816406 126.78125 281.726562 C 123.023438 281.640625 119.238281 280.597656 115.425781 278.597656 C 115.167969 278.460938 115.019531 278.195312 115.019531 277.925781 L 114.890625 149.929688 C 114.890625 149.511719 115.230469 149.171875 115.648438 149.171875 C 115.710938 149.171875 115.769531 149.179688 115.828125 149.191406 C 119.238281 150.027344 122.734375 150.445312 126.3125 150.441406 C 129.894531 150.4375 133.566406 150.015625 137.328125 149.167969 C 137.738281 149.078125 138.144531 149.332031 138.234375 149.746094 C 138.253906 149.8125 138.257812 149.878906 138.257812 149.945312 "
              fill-opacity="1" fill-rule="evenodd"/>
    </g>
    <path fill="#ed5b2d"
          d="M 139.289062 135.402344 C 138.675781 135.222656 138.070312 135.027344 137.484375 134.820312 L 181.210938 99.554688 L 176.828125 98.757812 L 115.648438 149.929688 C 122.585938 151.628906 129.867188 151.625 137.496094 149.910156 L 137.484375 134.820312 C 138.078125 135.023438 138.679688 135.214844 139.292969 135.390625 L 139.289062 135.402344 "
          fill-opacity="1" fill-rule="evenodd"/>
    <g clip-path="url(#63745e2a9f)">
        <path fill="#291b25"
              d="M 136.726562 134.871094 C 136.71875 134.769531 136.730469 134.667969 136.765625 134.566406 C 136.816406 134.417969 136.914062 134.296875 137.03125 134.210938 L 179.441406 100.003906 L 177.042969 99.566406 L 117.316406 149.527344 C 120.253906 150.140625 123.25 150.445312 126.3125 150.441406 C 129.707031 150.4375 133.183594 150.058594 136.738281 149.300781 Z M 139.074219 136.132812 C 138.800781 136.050781 138.523438 135.96875 138.242188 135.875 L 138.257812 149.875 C 138.273438 150.238281 138.027344 150.570312 137.664062 150.652344 C 133.796875 151.519531 130.011719 151.957031 126.3125 151.957031 C 122.625 151.960938 119.023438 151.535156 115.511719 150.679688 C 115.34375 150.648438 115.183594 150.558594 115.066406 150.417969 C 114.796875 150.09375 114.839844 149.617188 115.160156 149.347656 L 176.339844 98.175781 L 176.34375 98.175781 C 176.507812 98.035156 176.734375 97.96875 176.964844 98.011719 L 181.3125 98.800781 C 181.496094 98.824219 181.675781 98.917969 181.800781 99.078125 C 182.066406 99.40625 182.015625 99.882812 181.6875 100.148438 L 139.054688 134.527344 L 139.503906 134.660156 C 139.90625 134.777344 140.136719 135.199219 140.019531 135.601562 L 140.003906 135.660156 C 139.863281 136.039062 139.457031 136.246094 139.074219 136.132812 "
              fill-opacity="1" fill-rule="evenodd"/>
    </g>
    <path fill="#f6f6e9"
          d="M 132.78125 156.46875 C 132.78125 235.449219 132.78125 274.941406 132.78125 274.941406 C 128.066406 276.558594 123.664062 276.304688 119.582031 274.179688 C 119.582031 274.179688 119.835938 234.941406 120.34375 156.46875 C 124.234375 157.316406 128.378906 157.316406 132.78125 156.46875 "
          fill-opacity="1" fill-rule="evenodd"/>
    <path fill="#291b25"
          d="M 132.023438 274.390625 L 132.023438 157.378906 C 128.191406 158.023438 124.550781 158.027344 121.097656 157.398438 L 120.34375 273.710938 C 123.972656 275.472656 127.863281 275.699219 132.023438 274.390625 Z M 133.542969 156.519531 L 133.542969 274.941406 C 133.542969 275.273438 133.328125 275.554688 133.027344 275.660156 L 133.03125 275.660156 C 128.105469 277.351562 123.507812 277.082031 119.230469 274.855469 C 118.949219 274.707031 118.796875 274.410156 118.824219 274.113281 L 119.585938 156.464844 C 119.585938 156.046875 119.929688 155.707031 120.347656 155.710938 C 120.402344 155.710938 120.453125 155.714844 120.503906 155.726562 C 124.292969 156.550781 128.339844 156.550781 132.640625 155.722656 C 133.050781 155.644531 133.449219 155.914062 133.53125 156.328125 C 133.542969 156.394531 133.546875 156.457031 133.542969 156.519531 "
          fill-opacity="1" fill-rule="evenodd"/>
    <path fill="#f6f6e9"
          d="M 203.351562 172.976562 C 203.523438 204.128906 203.605469 219.707031 203.605469 219.707031 C 195.015625 221.3125 188.542969 220.890625 184.1875 218.4375 C 184.1875 218.4375 184.273438 202.605469 184.441406 170.945312 C 190.839844 172.28125 197.144531 172.960938 203.351562 172.976562 "
          fill-opacity="1" fill-rule="evenodd"/>
    <path fill="#291b25"
          d="M 202.84375 219.074219 L 202.597656 173.730469 C 199.707031 173.699219 196.800781 173.523438 193.886719 173.210938 C 191.007812 172.902344 188.109375 172.457031 185.195312 171.875 L 184.949219 217.980469 C 186.957031 219.023438 189.429688 219.644531 192.355469 219.835938 C 195.375 220.03125 198.871094 219.777344 202.84375 219.074219 Z M 204.113281 172.972656 L 204.367188 219.703125 C 204.367188 220.074219 204.101562 220.386719 203.746094 220.453125 C 199.386719 221.265625 195.558594 221.570312 192.261719 221.351562 C 188.90625 221.132812 186.09375 220.382812 183.816406 219.097656 C 183.546875 218.949219 183.40625 218.660156 183.429688 218.375 L 183.683594 170.941406 C 183.683594 170.523438 184.027344 170.1875 184.445312 170.1875 C 184.496094 170.1875 184.546875 170.191406 184.59375 170.203125 C 187.769531 170.863281 190.917969 171.363281 194.046875 171.699219 C 197.179688 172.035156 200.28125 172.210938 203.351562 172.21875 C 203.769531 172.21875 204.109375 172.558594 204.113281 172.972656 "
          fill-opacity="1" fill-rule="evenodd"/>
    <path fill="#f6f6e9"
          d="M 203.625 225.539062 C 203.542969 227.125 203.667969 231.007812 203.667969 231.007812 C 195.992188 232.289062 189.285156 231.90625 183.550781 229.863281 C 183.550781 229.863281 183.574219 227.980469 183.613281 224.214844 C 190.683594 225.972656 197.074219 226.453125 203.625 225.539062 "
          fill-opacity="1" fill-rule="evenodd"/>
    <path fill="#291b25"
          d="M 202.890625 230.363281 C 202.867188 229.425781 202.828125 227.6875 202.84375 226.40625 C 199.816406 226.773438 196.816406 226.84375 193.765625 226.636719 C 190.710938 226.425781 187.605469 225.9375 184.363281 225.175781 L 184.316406 229.324219 C 186.976562 230.214844 189.84375 230.75 192.921875 230.921875 C 196.03125 231.101562 199.351562 230.914062 202.890625 230.363281 Z M 204.386719 225.597656 C 204.304688 227.164062 204.429688 230.976562 204.429688 230.988281 C 204.4375 231.371094 204.160156 231.695312 203.792969 231.753906 C 199.902344 232.40625 196.25 232.636719 192.839844 232.441406 C 189.414062 232.246094 186.234375 231.628906 183.300781 230.578125 C 182.96875 230.464844 182.769531 230.140625 182.792969 229.804688 L 182.859375 224.207031 C 182.863281 223.789062 183.203125 223.453125 183.621094 223.453125 C 183.683594 223.457031 183.738281 223.460938 183.796875 223.476562 C 187.289062 224.34375 190.609375 224.894531 193.867188 225.117188 C 197.113281 225.34375 200.300781 225.234375 203.523438 224.785156 C 203.9375 224.730469 204.324219 225.019531 204.378906 225.433594 C 204.386719 225.488281 204.386719 225.542969 204.386719 225.597656 "
          fill-opacity="1" fill-rule="evenodd"/>
    <path fill="#291b25"
          d="M 225.160156 112.851562 C 225.371094 112.667969 225.691406 112.6875 225.875 112.898438 C 226.058594 113.105469 226.039062 113.425781 225.832031 113.609375 L 182.042969 152.296875 C 181.832031 152.480469 181.511719 152.460938 181.328125 152.253906 C 181.140625 152.042969 181.160156 151.722656 181.371094 151.539062 L 225.160156 112.851562 "
          fill-opacity="1" fill-rule="evenodd"/>
    <path fill="#291b25"
          d="M 185.007812 152.976562 C 184.804688 153.171875 184.484375 153.160156 184.292969 152.957031 C 184.101562 152.753906 184.109375 152.433594 184.3125 152.238281 L 199.132812 138.324219 C 199.335938 138.132812 199.65625 138.140625 199.851562 138.347656 C 200.042969 138.550781 200.03125 138.871094 199.828125 139.0625 L 185.007812 152.976562 "
          fill-opacity="1" fill-rule="evenodd"/>
    <path fill="#291b25"
          d="M 251.695312 113.636719 C 251.90625 113.449219 252.222656 113.46875 252.410156 113.679688 C 252.59375 113.890625 252.574219 114.207031 252.363281 114.394531 L 235.863281 129.039062 C 235.652344 129.226562 235.335938 129.207031 235.148438 128.996094 C 234.964844 128.785156 234.984375 128.46875 235.195312 128.28125 L 251.695312 113.636719 "
          fill-opacity="1" fill-rule="evenodd"/>
    <path fill="#291b25"
          d="M 193.613281 154.285156 C 193.40625 154.472656 193.085938 154.453125 192.898438 154.242188 C 192.710938 154.035156 192.730469 153.714844 192.941406 153.527344 L 238.121094 113.234375 C 238.328125 113.050781 238.652344 113.066406 238.835938 113.277344 C 239.019531 113.484375 239.003906 113.808594 238.796875 113.992188 L 193.613281 154.285156 "
          fill-opacity="1" fill-rule="evenodd"/>
    <path fill="#291b25"
          d="M 197.097656 154.574219 C 196.894531 154.765625 196.570312 154.753906 196.382812 154.546875 C 196.191406 154.339844 196.203125 154.019531 196.410156 153.828125 L 205.105469 145.8125 C 205.308594 145.621094 205.628906 145.636719 205.820312 145.839844 C 206.007812 146.046875 205.996094 146.367188 205.789062 146.558594 L 197.097656 154.574219 "
          fill-opacity="1" fill-rule="evenodd"/>
    <path fill="#291b25"
          d="M 205.214844 154.902344 C 205.007812 155.085938 204.6875 155.070312 204.5 154.863281 C 204.3125 154.65625 204.332031 154.335938 204.539062 154.148438 L 223.195312 137.492188 C 223.40625 137.304688 223.722656 137.320312 223.910156 137.53125 C 224.097656 137.738281 224.078125 138.058594 223.871094 138.246094 L 205.214844 154.902344 "
          fill-opacity="1" fill-rule="evenodd"/>
    <path fill="#291b25"
          d="M 247.761719 113.523438 C 247.972656 113.335938 248.292969 113.351562 248.476562 113.5625 C 248.664062 113.769531 248.644531 114.089844 248.4375 114.277344 L 242.148438 119.894531 C 241.941406 120.082031 241.621094 120.066406 241.433594 119.855469 C 241.25 119.648438 241.265625 119.328125 241.472656 119.140625 L 247.761719 113.523438 "
          fill-opacity="1" fill-rule="evenodd"/>
    <path fill="#291b25"
          d="M 235.007812 113.140625 C 235.222656 112.957031 235.539062 112.976562 235.722656 113.191406 C 235.90625 113.402344 235.882812 113.722656 235.671875 113.90625 L 228.941406 119.710938 C 228.730469 119.894531 228.410156 119.871094 228.226562 119.660156 C 228.042969 119.449219 228.066406 119.128906 228.28125 118.945312 L 235.007812 113.140625 "
          fill-opacity="1" fill-rule="evenodd"/>
    <path fill="#291b25"
          d="M 229.988281 112.996094 C 230.195312 112.808594 230.515625 112.824219 230.703125 113.035156 C 230.890625 113.242188 230.875 113.5625 230.664062 113.75 L 214.921875 127.960938 C 214.714844 128.144531 214.394531 128.128906 214.207031 127.921875 C 214.019531 127.714844 214.039062 127.390625 214.246094 127.207031 L 229.988281 112.996094 "
          fill-opacity="1" fill-rule="evenodd"/>
    <path fill="#291b25"
          d="M 162.9375 122.527344 C 162.710938 122.695312 162.390625 122.648438 162.226562 122.425781 C 162.058594 122.199219 162.105469 121.882812 162.332031 121.714844 L 180.203125 108.511719 C 180.429688 108.34375 180.746094 108.390625 180.910156 108.613281 C 181.078125 108.839844 181.03125 109.15625 180.804688 109.324219 L 162.9375 122.527344 "
          fill-opacity="1" fill-rule="evenodd"/>
    <path fill="#291b25"
          d="M 165.441406 123.191406 C 165.214844 123.355469 164.898438 123.308594 164.734375 123.082031 C 164.566406 122.855469 164.617188 122.539062 164.839844 122.371094 L 173.796875 115.808594 C 174.019531 115.644531 174.335938 115.691406 174.503906 115.917969 C 174.667969 116.144531 174.617188 116.460938 174.394531 116.625 L 165.441406 123.191406 "
          fill-opacity="1" fill-rule="evenodd"/>
    <path fill="#291b25"
          d="M 198.289062 104.511719 C 198.511719 104.34375 198.832031 104.390625 199 104.613281 C 199.164062 104.835938 199.121094 105.15625 198.894531 105.324219 L 173.902344 123.984375 C 173.679688 124.148438 173.363281 124.105469 173.191406 123.878906 C 173.027344 123.65625 173.070312 123.335938 173.296875 123.171875 L 198.289062 104.511719 "
          fill-opacity="1" fill-rule="evenodd"/>
    <path fill="#291b25"
          d="M 208.375 90.523438 C 208.597656 90.355469 208.914062 90.394531 209.085938 90.617188 C 209.257812 90.839844 209.214844 91.15625 208.996094 91.328125 L 198.332031 99.605469 C 198.109375 99.773438 197.792969 99.734375 197.617188 99.511719 C 197.449219 99.292969 197.488281 98.972656 197.710938 98.800781 L 208.375 90.523438 "
          fill-opacity="1" fill-rule="evenodd"/>
    <path fill="#291b25"
          d="M 211.1875 90.855469 C 211.414062 90.691406 211.730469 90.742188 211.894531 90.96875 C 212.058594 91.199219 212.003906 91.511719 211.78125 91.675781 L 205.234375 96.375 C 205.007812 96.539062 204.691406 96.488281 204.527344 96.261719 C 204.363281 96.035156 204.414062 95.71875 204.644531 95.554688 L 211.1875 90.855469 "
          fill-opacity="1" fill-rule="evenodd"/>
    <path fill="#291b25"
          d="M 159.65625 124.410156 C 159.867188 124.226562 160.1875 124.246094 160.371094 124.453125 C 160.558594 124.664062 160.539062 124.984375 160.328125 125.171875 L 146.824219 137.183594 C 146.613281 137.371094 146.292969 137.355469 146.105469 137.144531 C 145.921875 136.933594 145.9375 136.613281 146.148438 136.425781 L 159.65625 124.410156 "
          fill-opacity="1" fill-rule="evenodd"/>
    <path fill="#291b25"
          d="M 144.222656 136.808594 C 144.015625 137 143.695312 136.988281 143.507812 136.78125 C 143.316406 136.574219 143.332031 136.253906 143.539062 136.0625 L 151.792969 128.480469 C 152 128.289062 152.320312 128.304688 152.511719 128.507812 C 152.699219 128.714844 152.683594 129.035156 152.480469 129.226562 L 144.222656 136.808594 "
          fill-opacity="1" fill-rule="evenodd"/>
    <path fill="#291b25"
          d="M 159.6875 127.46875 C 159.890625 127.277344 160.210938 127.289062 160.402344 127.496094 C 160.589844 127.699219 160.578125 128.019531 160.375 128.210938 L 150.386719 137.457031 C 150.179688 137.648438 149.863281 137.632812 149.671875 137.429688 C 149.484375 137.226562 149.496094 136.90625 149.699219 136.714844 L 159.6875 127.46875 "
          fill-opacity="1" fill-rule="evenodd"/>
    <path fill="#291b25"
          d="M 119.136719 150.972656 C 118.917969 151.152344 118.601562 151.121094 118.421875 150.90625 C 118.246094 150.6875 118.277344 150.371094 118.492188 150.191406 L 133.410156 137.921875 C 133.625 137.746094 133.945312 137.773438 134.121094 137.992188 C 134.300781 138.207031 134.269531 138.527344 134.054688 138.703125 L 119.136719 150.972656 "
          fill-opacity="1" fill-rule="evenodd"/>
    <path fill="#291b25"
          d="M 122.832031 151.425781 C 122.621094 151.609375 122.300781 151.589844 122.113281 151.378906 C 121.929688 151.167969 121.949219 150.847656 122.160156 150.664062 L 129.335938 144.34375 C 129.542969 144.160156 129.863281 144.179688 130.050781 144.390625 C 130.234375 144.601562 130.214844 144.921875 130.003906 145.105469 L 122.832031 151.425781 "
          fill-opacity="1" fill-rule="evenodd"/>
    <path fill="#291b25"
          d="M 246.019531 161.230469 C 245.933594 160.964844 246.078125 160.679688 246.339844 160.59375 C 246.605469 160.503906 246.894531 160.648438 246.980469 160.914062 L 247.234375 161.675781 C 247.324219 161.941406 247.179688 162.226562 246.914062 162.316406 C 246.648438 162.402344 246.363281 162.257812 246.273438 161.992188 L 246.019531 161.230469 "
          fill-opacity="1" fill-rule="evenodd"/>
    <path fill="#291b25"
          d="M 231.144531 161.25 C 231.121094 160.972656 231.324219 160.722656 231.601562 160.695312 C 231.878906 160.667969 232.125 160.871094 232.15625 161.152344 L 232.28125 162.421875 C 232.308594 162.699219 232.105469 162.945312 231.824219 162.972656 C 231.546875 163 231.300781 162.796875 231.273438 162.519531 L 231.144531 161.25 "
          fill-opacity="1" fill-rule="evenodd"/>
    <path fill="#291b25"
          d="M 246.121094 145.582031 C 245.839844 145.582031 245.613281 145.355469 245.613281 145.074219 C 245.613281 144.792969 245.839844 144.566406 246.121094 144.566406 L 246.757812 144.566406 C 247.035156 144.566406 247.265625 144.792969 247.265625 145.074219 C 247.265625 145.355469 247.035156 145.582031 246.757812 145.582031 L 246.121094 145.582031 "
          fill-opacity="1" fill-rule="evenodd"/>
    <path fill="#291b25"
          d="M 245.699219 215.953125 C 245.542969 215.71875 245.609375 215.40625 245.84375 215.25 C 246.074219 215.097656 246.390625 215.160156 246.542969 215.394531 L 247.050781 216.15625 C 247.203125 216.390625 247.140625 216.703125 246.90625 216.859375 C 246.675781 217.011719 246.359375 216.949219 246.207031 216.714844 L 245.699219 215.953125 "
          fill-opacity="1" fill-rule="evenodd"/>
    <path fill="#291b25"
          d="M 219.792969 198.519531 C 219.941406 198.28125 220.253906 198.207031 220.492188 198.351562 C 220.730469 198.5 220.804688 198.8125 220.660156 199.050781 L 219.644531 200.703125 C 219.496094 200.941406 219.183594 201.015625 218.945312 200.867188 C 218.707031 200.722656 218.632812 200.410156 218.777344 200.171875 L 219.792969 198.519531 "
          fill-opacity="1" fill-rule="evenodd"/>
    <path fill="#291b25"
          d="M 219.613281 251.839844 C 219.417969 251.640625 219.417969 251.320312 219.613281 251.121094 C 219.8125 250.925781 220.132812 250.925781 220.332031 251.121094 L 221.21875 252.011719 C 221.417969 252.210938 221.417969 252.53125 221.21875 252.730469 C 221.019531 252.929688 220.699219 252.929688 220.5 252.730469 L 219.613281 251.839844 "
          fill-opacity="1" fill-rule="evenodd"/>
    <path fill="#291b25"
          d="M 235.453125 245.695312 C 235.210938 245.550781 235.132812 245.238281 235.277344 245 C 235.421875 244.761719 235.734375 244.683594 235.972656 244.824219 L 236.605469 245.207031 C 236.847656 245.347656 236.925781 245.660156 236.78125 245.902344 C 236.636719 246.140625 236.324219 246.21875 236.089844 246.074219 L 235.453125 245.695312 "
          fill-opacity="1" fill-rule="evenodd"/>
    <path fill="#291b25"
          d="M 192.054688 125.589844 C 192.015625 125.3125 192.207031 125.058594 192.484375 125.015625 C 192.761719 124.976562 193.019531 125.171875 193.058594 125.449219 L 193.1875 126.335938 C 193.222656 126.613281 193.03125 126.871094 192.753906 126.910156 C 192.476562 126.949219 192.21875 126.757812 192.179688 126.480469 L 192.054688 125.589844 "
          fill-opacity="1" fill-rule="evenodd"/>
    <path fill="#291b25"
          d="M 211.613281 109.632812 C 211.339844 109.574219 211.167969 109.304688 211.226562 109.03125 C 211.289062 108.757812 211.558594 108.585938 211.832031 108.644531 L 212.976562 108.898438 C 213.246094 108.957031 213.417969 109.230469 213.359375 109.503906 C 213.296875 109.777344 213.027344 109.945312 212.753906 109.886719 L 211.613281 109.632812 "
          fill-opacity="1" fill-rule="evenodd"/>
    <path fill="#291b25"
          d="M 199.917969 110.28125 C 199.917969 110.003906 200.144531 109.773438 200.425781 109.773438 C 200.707031 109.773438 200.933594 110.003906 200.933594 110.28125 L 200.933594 111.042969 C 200.933594 111.324219 200.707031 111.550781 200.425781 111.550781 C 200.144531 111.550781 199.917969 111.324219 199.917969 111.042969 L 199.917969 110.28125 "
          fill-opacity="1" fill-rule="evenodd"/>
    <path fill="#291b25"
          d="M 145.210938 143.929688 C 145.210938 143.652344 145.441406 143.421875 145.71875 143.421875 C 146 143.421875 146.226562 143.652344 146.226562 143.929688 L 146.226562 144.667969 L 146.648438 145.300781 C 146.804688 145.535156 146.742188 145.851562 146.507812 146.003906 C 146.273438 146.160156 145.960938 146.09375 145.804688 145.863281 L 145.316406 145.128906 C 145.25 145.042969 145.210938 144.9375 145.210938 144.820312 L 145.210938 143.929688 "
          fill-opacity="1" fill-rule="evenodd"/>
    <path fill="#291b25"
          d="M 142.46875 155.234375 C 142.257812 155.054688 142.234375 154.734375 142.414062 154.523438 C 142.597656 154.308594 142.917969 154.285156 143.128906 154.464844 L 144.015625 155.226562 C 144.230469 155.410156 144.253906 155.730469 144.074219 155.941406 C 143.890625 156.15625 143.570312 156.179688 143.359375 155.996094 L 142.46875 155.234375 "
          fill-opacity="1" fill-rule="evenodd"/>
    <path fill="#291b25"
          d="M 155.117188 151.535156 C 154.847656 151.464844 154.679688 151.191406 154.746094 150.917969 C 154.816406 150.648438 155.089844 150.480469 155.363281 150.550781 L 155.871094 150.675781 C 156.140625 150.746094 156.308594 151.019531 156.238281 151.292969 C 156.171875 151.5625 155.894531 151.726562 155.625 151.660156 L 155.117188 151.535156 "
          fill-opacity="1" fill-rule="evenodd"/>
    <path fill="#291b25"
          d="M 140.777344 267.542969 C 140.53125 267.40625 140.445312 267.097656 140.582031 266.855469 C 140.71875 266.609375 141.023438 266.523438 141.269531 266.65625 L 142.410156 267.292969 C 142.65625 267.429688 142.746094 267.738281 142.605469 267.980469 C 142.472656 268.226562 142.164062 268.3125 141.917969 268.175781 L 140.777344 267.542969 "
          fill-opacity="1" fill-rule="evenodd"/>
    <path fill="#291b25"
          d="M 148.023438 279.335938 C 147.789062 279.488281 147.472656 279.417969 147.324219 279.179688 C 147.175781 278.945312 147.246094 278.632812 147.476562 278.484375 L 148.875 277.59375 C 149.109375 277.445312 149.421875 277.511719 149.574219 277.75 C 149.722656 277.984375 149.652344 278.296875 149.417969 278.445312 L 148.023438 279.335938 "
          fill-opacity="1" fill-rule="evenodd"/>
    <path fill="#291b25"
          d="M 156.199219 268.515625 C 155.976562 268.347656 155.9375 268.027344 156.105469 267.804688 C 156.28125 267.585938 156.597656 267.542969 156.820312 267.714844 L 158.46875 268.984375 C 158.691406 269.15625 158.730469 269.472656 158.558594 269.695312 C 158.386719 269.917969 158.070312 269.957031 157.847656 269.785156 L 156.199219 268.515625 "
          fill-opacity="1" fill-rule="evenodd"/>
</svg>