<svg xmlns="http://www.w3.org/2000/svg" width="500" zoomAndPan="magnify"
     viewBox="0 0 375 374.999991" height="500" preserveAspectRatio="xMidYMid meet" version="1.0">
    <defs>
        <g/>
        <clipPath id="aba1002c7c">
            <path d="M 177.707031 87.691406 L 211 87.691406 L 211 213.265625 L 177.707031 213.265625 Z M 177.707031 87.691406 "
                  clip-rule="nonzero"/>
        </clipPath>
        <clipPath id="ee2347a8ff">
            <path d="M 208.492188 53.644531 L 255.265625 53.644531 L 255.265625 211.585938 L 208.492188 211.585938 Z M 208.492188 53.644531 "
                  clip-rule="nonzero"/>
        </clipPath>
        <clipPath id="c391ffba15">
            <path d="M 244 159 L 255.265625 159 L 255.265625 186 L 244 186 Z M 244 159 " clip-rule="nonzero"/>
        </clipPath>
        <clipPath id="0ffcd1f4fd">
            <path d="M 161 31.417969 L 219 31.417969 L 219 64 L 161 64 Z M 161 31.417969 " clip-rule="nonzero"/>
        </clipPath>
        <clipPath id="99b8e67baf">
            <path d="M 119.660156 86 L 142 86 L 142 211 L 119.660156 211 Z M 119.660156 86 " clip-rule="nonzero"/>
        </clipPath>
        <clipPath id="20743d56d6">
            <path d="M 119.660156 39 L 183 39 L 183 90 L 119.660156 90 Z M 119.660156 39 " clip-rule="nonzero"/>
        </clipPath>
    </defs>
    <rect x="-37.5" width="450" fill="#ffffff" y="-37.499999" height="449.999989" fill-opacity="1"/>
    <rect x="-37.5" width="450" fill="#545454" y="-37.499999" height="449.999989" fill-opacity="1"/>
    <path fill="#ed5b2d"
          d="M 209.445312 91.945312 C 209.996094 171.234375 210.273438 210.878906 210.273438 210.878906 C 196.5 213.632812 185.921875 213 178.539062 208.988281 C 178.539062 208.988281 178.539062 168.789062 178.539062 88.398438 C 185.878906 91.027344 196.179688 92.207031 209.445312 91.945312 "
          fill-opacity="1" fill-rule="evenodd"/>
    <g clip-path="url(#aba1002c7c)">
        <path fill="#291b25"
              d="M 209.5625 210.292969 L 208.742188 92.664062 C 202.363281 92.765625 196.679688 92.53125 191.691406 91.957031 C 186.921875 91.410156 182.773438 90.554688 179.246094 89.390625 L 179.246094 208.5625 C 182.773438 210.398438 187.042969 211.464844 192.050781 211.765625 C 197.128906 212.066406 202.964844 211.578125 209.5625 210.292969 Z M 210.152344 91.953125 L 210.980469 210.875 C 210.984375 211.21875 210.738281 211.507812 210.410156 211.570312 L 210.414062 211.574219 C 203.46875 212.960938 197.320312 213.496094 191.96875 213.175781 C 186.574219 212.855469 181.988281 211.664062 178.199219 209.605469 C 177.957031 209.472656 177.824219 209.222656 177.832031 208.964844 L 177.832031 88.398438 C 177.832031 88.007812 178.148438 87.691406 178.539062 87.691406 C 178.628906 87.691406 178.714844 87.710938 178.792969 87.742188 C 182.40625 89.027344 186.757812 89.96875 191.851562 90.550781 C 196.976562 91.140625 202.839844 91.367188 209.429688 91.238281 C 209.824219 91.230469 210.144531 91.542969 210.152344 91.933594 L 210.152344 91.953125 "
              fill-opacity="1" fill-rule="evenodd"/>
    </g>
    <path fill="#ed5b2d"
          d="M 210.273438 210.878906 C 210.273438 210.878906 225.035156 199.84375 254.558594 177.773438 C 254.558594 177.773438 253.453125 136.632812 251.246094 54.351562 C 251.246094 54.351562 237.3125 66.882812 209.445312 91.945312 C 209.996094 171.234375 210.273438 210.878906 210.273438 210.878906 "
          fill-opacity="1" fill-rule="evenodd"/>
    <g clip-path="url(#ee2347a8ff)">
        <path fill="#291b25"
              d="M 254.984375 178.339844 L 210.703125 211.4375 C 210.585938 211.527344 210.4375 211.582031 210.277344 211.582031 C 209.886719 211.585938 209.566406 211.269531 209.566406 210.878906 L 208.738281 92 C 208.722656 91.789062 208.800781 91.574219 208.96875 91.417969 L 250.769531 53.828125 C 250.890625 53.71875 251.050781 53.648438 251.226562 53.644531 C 251.617188 53.636719 251.941406 53.945312 251.953125 54.335938 L 255.265625 177.757812 C 255.273438 177.980469 255.175781 178.195312 254.984375 178.339844 Z M 210.972656 209.472656 L 253.84375 177.429688 L 250.578125 55.90625 L 210.152344 92.261719 L 210.972656 209.472656 "
              fill-opacity="1" fill-rule="evenodd"/>
    </g>
    <path fill="#468b91"
          d="M 251.757812 73.476562 L 251.246094 54.351562 L 238.609375 65.71875 C 242.390625 70.171875 246.773438 72.757812 251.757812 73.476562 "
          fill-opacity="1" fill-rule="evenodd"/>
    <path fill="#291b25"
          d="M 251.953125 54.335938 L 252.464844 73.414062 C 252.46875 73.46875 252.46875 73.519531 252.460938 73.578125 C 252.40625 73.960938 252.046875 74.234375 251.65625 74.175781 C 249.074219 73.804688 246.644531 72.949219 244.371094 71.609375 C 242.117188 70.277344 240.019531 68.472656 238.085938 66.195312 L 238.082031 66.191406 C 237.816406 65.898438 237.839844 65.453125 238.132812 65.191406 L 250.769531 53.828125 C 250.890625 53.71875 251.050781 53.648438 251.226562 53.644531 C 251.617188 53.636719 251.941406 53.945312 251.953125 54.335938 Z M 251.027344 72.636719 L 250.578125 55.90625 L 239.597656 65.777344 C 241.3125 67.699219 243.140625 69.238281 245.09375 70.386719 C 246.960938 71.488281 248.9375 72.238281 251.027344 72.636719 "
          fill-opacity="1" fill-rule="evenodd"/>
    <path fill="#468b91"
          d="M 244.726562 185.125 L 254.558594 177.773438 L 254.074219 159.792969 C 247.65625 165.824219 244.539062 174.265625 244.726562 185.125 "
          fill-opacity="1" fill-rule="evenodd"/>
    <g clip-path="url(#c391ffba15)">
        <path fill="#291b25"
              d="M 254.984375 178.339844 L 245.160156 185.683594 C 245.042969 185.773438 244.898438 185.828125 244.738281 185.828125 C 244.347656 185.835938 244.023438 185.523438 244.019531 185.136719 C 243.925781 179.617188 244.671875 174.707031 246.257812 170.402344 C 247.855469 166.078125 250.300781 162.371094 253.589844 159.277344 C 253.714844 159.164062 253.878906 159.089844 254.058594 159.085938 C 254.449219 159.078125 254.773438 159.386719 254.785156 159.777344 L 255.265625 177.757812 C 255.273438 177.980469 255.175781 178.195312 254.984375 178.339844 Z M 245.429688 183.714844 L 253.84375 177.429688 L 253.414062 161.453125 C 250.859375 164.148438 248.917969 167.296875 247.589844 170.890625 C 246.195312 174.667969 245.476562 178.945312 245.429688 183.714844 "
              fill-opacity="1" fill-rule="evenodd"/>
    </g>
    <path fill="#61a6ab"
          d="M 178.539062 88.398438 C 205.613281 65.070312 219.15625 53.40625 219.15625 53.40625 C 240.546875 54.035156 251.246094 54.351562 251.246094 54.351562 C 251.246094 54.351562 237.3125 66.882812 209.445312 91.945312 C 196.179688 92.207031 185.878906 91.027344 178.539062 88.398438 "
          fill-opacity="1" fill-rule="evenodd"/>
    <path fill="#291b25"
          d="M 219.410156 54.121094 L 179.9375 88.128906 C 183.3125 89.21875 187.285156 90.027344 191.851562 90.550781 C 196.90625 91.132812 202.679688 91.363281 209.164062 91.246094 L 249.457031 55.007812 Z M 178.074219 87.863281 L 218.691406 52.871094 C 218.835938 52.746094 219.015625 52.691406 219.195312 52.699219 L 251.261719 53.644531 C 251.652344 53.65625 251.960938 53.980469 251.953125 54.371094 C 251.945312 54.574219 251.855469 54.75 251.71875 54.878906 L 209.917969 92.472656 C 209.773438 92.601562 209.589844 92.664062 209.410156 92.652344 C 202.761719 92.78125 196.851562 92.550781 191.691406 91.957031 C 186.488281 91.363281 182.023438 90.398438 178.300781 89.0625 C 177.933594 88.933594 177.742188 88.527344 177.875 88.160156 C 177.914062 88.042969 177.984375 87.941406 178.074219 87.863281 "
          fill-opacity="1" fill-rule="evenodd"/>
    <path fill="#468b91"
          d="M 161.960938 60.972656 C 163.144531 159.332031 163.734375 208.511719 163.734375 208.511719 C 169.667969 210.707031 174.601562 210.867188 178.539062 208.988281 C 178.539062 128.59375 178.539062 88.398438 178.539062 88.398438 C 178.539062 71.21875 178.539062 62.625 178.539062 62.625 C 173.578125 63.746094 168.050781 63.195312 161.960938 60.972656 "
          fill-opacity="1" fill-rule="evenodd"/>
    <path fill="#291b25"
          d="M 163.03125 208.519531 L 161.253906 61.015625 C 161.246094 60.921875 161.257812 60.824219 161.292969 60.730469 C 161.425781 60.363281 161.832031 60.175781 162.199219 60.308594 C 165.191406 61.398438 168.039062 62.078125 170.742188 62.347656 C 173.429688 62.617188 175.976562 62.480469 178.382812 61.9375 C 178.433594 61.925781 178.484375 61.921875 178.539062 61.921875 C 178.929688 61.921875 179.246094 62.238281 179.246094 62.625 L 179.246094 208.988281 C 179.246094 209.25 179.097656 209.5 178.84375 209.625 C 176.769531 210.613281 174.441406 211.066406 171.863281 210.984375 C 169.3125 210.902344 166.523438 210.300781 163.488281 209.179688 L 163.488281 209.175781 C 163.222656 209.078125 163.03125 208.820312 163.03125 208.519531 Z M 162.679688 61.976562 L 164.4375 208.011719 C 167.15625 208.980469 169.648438 209.5 171.90625 209.570312 C 174.089844 209.640625 176.066406 209.292969 177.832031 208.53125 L 177.828125 63.496094 C 175.53125 63.921875 173.125 64.007812 170.605469 63.757812 C 168.074219 63.503906 165.433594 62.910156 162.679688 61.976562 "
          fill-opacity="1" fill-rule="evenodd"/>
    <path fill="#468b91"
          d="M 178.539062 88.398438 C 205.613281 65.070312 219.15625 53.40625 219.15625 53.40625 C 219.15625 53.40625 218.71875 46.945312 217.851562 34.015625 C 217.851562 34.015625 204.746094 43.554688 178.539062 62.625 C 178.539062 79.808594 178.539062 88.398438 178.539062 88.398438 "
          fill-opacity="1" fill-rule="evenodd"/>
    <path fill="#291b25"
          d="M 219.617188 53.941406 L 179.003906 88.933594 C 178.878906 89.042969 178.714844 89.105469 178.539062 89.105469 C 178.148438 89.105469 177.832031 88.789062 177.832031 88.398438 L 177.828125 62.625 C 177.832031 62.410156 177.929688 62.195312 178.121094 62.054688 L 217.386719 33.480469 C 217.5 33.382812 217.644531 33.324219 217.800781 33.3125 C 218.191406 33.285156 218.53125 33.582031 218.558594 33.972656 L 219.863281 53.359375 C 219.875 53.574219 219.792969 53.789062 219.617188 53.941406 Z M 179.246094 86.855469 L 218.421875 53.101562 L 217.230469 35.34375 L 179.246094 62.988281 L 179.246094 86.855469 "
          fill-opacity="1" fill-rule="evenodd"/>
    <path fill="#61a6ab"
          d="M 161.960938 60.972656 C 188.796875 41.742188 202.21875 32.125 202.21875 32.125 C 212.640625 33.386719 217.851562 34.015625 217.851562 34.015625 C 217.851562 34.015625 204.746094 43.554688 178.539062 62.625 C 173.578125 63.746094 168.050781 63.195312 161.960938 60.972656 "
          fill-opacity="1" fill-rule="evenodd"/>
    <g clip-path="url(#0ffcd1f4fd)">
        <path fill="#291b25"
              d="M 202.40625 32.863281 L 163.480469 60.75 C 166.007812 61.585938 168.429688 62.117188 170.742188 62.347656 C 173.378906 62.613281 175.878906 62.484375 178.242188 61.96875 L 215.980469 34.507812 Z M 161.570312 60.382812 L 201.804688 31.554688 C 201.957031 31.445312 202.132812 31.40625 202.304688 31.425781 L 202.304688 31.421875 L 217.933594 33.316406 C 218.320312 33.359375 218.601562 33.710938 218.554688 34.101562 C 218.527344 34.328125 218.398438 34.515625 218.214844 34.625 L 178.953125 63.199219 C 178.871094 63.257812 178.785156 63.296875 178.691406 63.316406 C 176.136719 63.894531 173.441406 64.039062 170.605469 63.757812 C 167.78125 63.472656 164.820312 62.769531 161.71875 61.636719 C 161.351562 61.503906 161.160156 61.097656 161.292969 60.730469 C 161.347656 60.582031 161.449219 60.464844 161.570312 60.382812 "
              fill-opacity="1" fill-rule="evenodd"/>
    </g>
    <path fill="#ed5b2d"
          d="M 162.132812 75.394531 C 163.203125 164.140625 163.734375 208.511719 163.734375 208.511719 C 156.308594 212.046875 148.769531 211.652344 141.117188 207.332031 C 141.117188 207.332031 141.078125 162.761719 141 73.621094 C 146.761719 75.660156 153.804688 76.246094 162.132812 75.394531 "
          fill-opacity="1" fill-rule="evenodd"/>
    <path fill="#291b25"
          d="M 163.023438 208.0625 L 161.433594 76.171875 C 157.519531 76.535156 153.890625 76.578125 150.546875 76.296875 C 147.34375 76.03125 144.398438 75.464844 141.707031 74.609375 L 141.824219 206.914062 C 145.433594 208.894531 149.007812 209.976562 152.546875 210.160156 C 156.058594 210.34375 159.550781 209.644531 163.023438 208.0625 Z M 162.839844 75.417969 L 164.441406 208.503906 C 164.445312 208.789062 164.28125 209.035156 164.042969 209.152344 C 160.222656 210.96875 156.367188 211.777344 152.476562 211.574219 C 148.59375 211.371094 144.691406 210.160156 140.769531 207.945312 C 140.527344 207.808594 140.398438 207.554688 140.410156 207.296875 L 140.292969 73.621094 C 140.292969 73.230469 140.609375 72.914062 141 72.914062 C 141.082031 72.914062 141.160156 72.929688 141.234375 72.957031 C 144.058594 73.953125 147.199219 74.59375 150.664062 74.882812 C 154.148438 75.175781 157.945312 75.113281 162.0625 74.691406 C 162.449219 74.648438 162.796875 74.933594 162.839844 75.324219 C 162.839844 75.355469 162.84375 75.386719 162.839844 75.417969 "
          fill-opacity="1" fill-rule="evenodd"/>
    <path fill="#f6f6e9"
          d="M 163.535156 191.730469 L 163.734375 208.511719 C 156.308594 212.046875 148.769531 211.652344 141.117188 207.332031 L 141.101562 190.140625 C 147.746094 193.09375 155.222656 193.625 163.535156 191.730469 "
          fill-opacity="1" fill-rule="evenodd"/>
    <path fill="#291b25"
          d="M 163.023438 208.0625 L 162.835938 192.609375 C 158.925781 193.429688 155.191406 193.714844 151.640625 193.460938 C 148.195312 193.214844 144.917969 192.46875 141.8125 191.210938 L 141.824219 206.914062 C 145.433594 208.894531 149.007812 209.976562 152.546875 210.160156 C 156.058594 210.34375 159.550781 209.644531 163.023438 208.0625 Z M 164.242188 191.753906 L 164.441406 208.503906 C 164.445312 208.789062 164.28125 209.035156 164.042969 209.152344 C 160.222656 210.96875 156.367188 211.777344 152.476562 211.574219 C 148.59375 211.371094 144.691406 210.160156 140.769531 207.945312 C 140.527344 207.808594 140.398438 207.554688 140.410156 207.296875 L 140.394531 190.140625 C 140.394531 189.75 140.710938 189.4375 141.101562 189.4375 C 141.203125 189.4375 141.300781 189.457031 141.390625 189.496094 C 144.632812 190.9375 148.085938 191.789062 151.742188 192.046875 C 155.414062 192.308594 159.292969 191.972656 163.378906 191.042969 C 163.761719 190.957031 164.140625 191.195312 164.226562 191.578125 C 164.238281 191.636719 164.246094 191.695312 164.242188 191.753906 "
          fill-opacity="1" fill-rule="evenodd"/>
    <path fill="#f6f6e9"
          d="M 162.132812 75.394531 L 162.398438 97.46875 C 155.820312 98.953125 148.695312 98.648438 141.019531 96.546875 L 141 73.621094 C 146.761719 75.660156 153.804688 76.246094 162.132812 75.394531 "
          fill-opacity="1" fill-rule="evenodd"/>
    <path fill="#291b25"
          d="M 161.683594 96.902344 L 161.433594 76.171875 C 157.519531 76.535156 153.890625 76.578125 150.546875 76.296875 C 147.34375 76.03125 144.398438 75.464844 141.707031 74.609375 L 141.726562 96.003906 C 145.324219 96.953125 148.800781 97.5 152.148438 97.644531 C 155.449219 97.789062 158.628906 97.539062 161.683594 96.902344 Z M 162.839844 75.417969 L 163.105469 97.460938 C 163.109375 97.800781 162.875 98.085938 162.554688 98.160156 C 159.203125 98.914062 155.714844 99.214844 152.089844 99.058594 C 148.476562 98.902344 144.722656 98.292969 140.835938 97.226562 C 140.519531 97.144531 140.3125 96.859375 140.3125 96.546875 L 140.292969 73.621094 C 140.292969 73.230469 140.609375 72.914062 141 72.914062 C 141.082031 72.914062 141.160156 72.929688 141.234375 72.957031 C 144.058594 73.953125 147.199219 74.59375 150.664062 74.882812 C 154.148438 75.175781 157.945312 75.113281 162.0625 74.691406 C 162.449219 74.648438 162.796875 74.933594 162.839844 75.324219 C 162.839844 75.355469 162.84375 75.386719 162.839844 75.417969 "
          fill-opacity="1" fill-rule="evenodd"/>
    <path fill="#ed5b2d"
          d="M 162.132812 75.394531 C 154.050781 76.273438 147.007812 75.679688 141 73.621094 C 174.390625 46.746094 191.085938 33.308594 191.085938 33.308594 L 199.46875 34.097656 L 161.960938 60.972656 L 162.132812 75.394531 "
          fill-opacity="1" fill-rule="evenodd"/>
    <path fill="#291b25"
          d="M 150.847656 74.902344 C 154.140625 75.179688 157.664062 75.128906 161.417969 74.753906 L 161.25 60.996094 C 161.242188 60.769531 161.347656 60.542969 161.546875 60.398438 L 197.519531 34.625 L 191.308594 34.039062 L 142.464844 73.347656 C 145.070312 74.132812 147.863281 74.652344 150.847656 74.902344 Z M 162.207031 76.097656 C 158.117188 76.542969 154.292969 76.613281 150.730469 76.316406 C 147.148438 76.015625 143.828125 75.339844 140.769531 74.292969 C 140.398438 74.167969 140.203125 73.761719 140.328125 73.390625 C 140.378906 73.246094 140.472656 73.125 140.589844 73.042969 L 190.644531 32.757812 C 190.800781 32.632812 190.996094 32.582031 191.183594 32.609375 L 199.535156 33.394531 C 199.925781 33.429688 200.207031 33.773438 200.171875 34.164062 C 200.152344 34.382812 200.035156 34.5625 199.871094 34.679688 L 162.671875 61.332031 L 162.839844 75.386719 C 162.84375 75.753906 162.566406 76.058594 162.207031 76.097656 "
          fill-opacity="1" fill-rule="evenodd"/>
    <path fill="#468b91"
          d="M 141.011719 87.671875 C 141.082031 167.445312 141.117188 207.332031 141.117188 207.332031 C 134.457031 210.636719 127.667969 210.480469 120.75 206.859375 C 120.671875 127.410156 120.628906 87.691406 120.628906 87.691406 C 127.101562 89.273438 133.894531 89.265625 141.011719 87.671875 "
          fill-opacity="1" fill-rule="evenodd"/>
    <g clip-path="url(#99b8e67baf)">
        <path fill="#291b25"
              d="M 140.410156 206.886719 L 140.304688 88.546875 C 136.996094 89.234375 133.753906 89.578125 130.578125 89.578125 C 127.429688 89.582031 124.347656 89.25 121.339844 88.582031 L 121.457031 206.429688 C 124.691406 208.058594 127.886719 208.914062 131.046875 208.988281 C 134.1875 209.058594 137.3125 208.359375 140.410156 206.886719 Z M 141.722656 87.703125 L 141.828125 207.332031 C 141.828125 207.609375 141.664062 207.851562 141.429688 207.964844 C 138 209.667969 134.527344 210.480469 131.015625 210.398438 C 127.511719 210.316406 123.980469 209.347656 120.421875 207.484375 C 120.179688 207.355469 120.042969 207.113281 120.042969 206.859375 L 119.921875 87.691406 C 119.921875 87.300781 120.238281 86.984375 120.628906 86.984375 C 120.6875 86.984375 120.742188 86.992188 120.796875 87.003906 C 123.980469 87.78125 127.238281 88.167969 130.578125 88.167969 C 133.921875 88.164062 137.347656 87.769531 140.855469 86.980469 C 141.238281 86.898438 141.617188 87.136719 141.703125 87.519531 C 141.71875 87.582031 141.722656 87.640625 141.722656 87.703125 "
              fill-opacity="1" fill-rule="evenodd"/>
    </g>
    <path fill="#ed5b2d"
          d="M 142.683594 74.167969 C 142.109375 73.996094 141.546875 73.816406 141 73.621094 L 181.792969 40.789062 L 177.707031 40.046875 L 120.628906 87.691406 C 127.101562 89.273438 133.894531 89.265625 141.011719 87.671875 L 141 73.621094 C 141.554688 73.8125 142.117188 73.988281 142.6875 74.152344 L 142.683594 74.167969 "
          fill-opacity="1" fill-rule="evenodd"/>
    <g clip-path="url(#20743d56d6)">
        <path fill="#291b25"
              d="M 140.292969 73.667969 C 140.285156 73.578125 140.296875 73.480469 140.332031 73.386719 C 140.378906 73.246094 140.46875 73.136719 140.578125 73.054688 L 180.144531 41.207031 L 177.90625 40.800781 L 122.183594 87.316406 C 124.925781 87.886719 127.722656 88.167969 130.578125 88.167969 C 133.746094 88.164062 136.988281 87.808594 140.304688 87.105469 Z M 142.484375 74.84375 C 142.230469 74.769531 141.96875 74.691406 141.707031 74.605469 L 141.722656 87.640625 C 141.734375 87.976562 141.507812 88.285156 141.167969 88.363281 C 137.558594 89.171875 134.03125 89.578125 130.578125 89.578125 C 127.136719 89.582031 123.777344 89.183594 120.503906 88.386719 C 120.34375 88.359375 120.199219 88.277344 120.085938 88.144531 C 119.835938 87.84375 119.875 87.398438 120.175781 87.148438 L 177.25 39.503906 C 177.40625 39.375 177.617188 39.3125 177.832031 39.351562 L 181.886719 40.089844 C 182.058594 40.109375 182.226562 40.199219 182.34375 40.34375 C 182.589844 40.648438 182.542969 41.09375 182.238281 41.339844 L 142.464844 73.351562 L 142.882812 73.476562 C 143.261719 73.585938 143.476562 73.976562 143.367188 74.351562 L 143.351562 74.40625 C 143.222656 74.757812 142.839844 74.949219 142.484375 74.84375 "
              fill-opacity="1" fill-rule="evenodd"/>
    </g>
    <path fill="#f6f6e9"
          d="M 136.613281 93.777344 C 136.613281 167.3125 136.613281 204.082031 136.613281 204.082031 C 132.214844 205.585938 128.109375 205.351562 124.300781 203.371094 C 124.300781 203.371094 124.535156 166.839844 125.011719 93.777344 C 128.640625 94.570312 132.507812 94.570312 136.613281 93.777344 "
          fill-opacity="1" fill-rule="evenodd"/>
    <path fill="#291b25"
          d="M 135.90625 203.566406 L 135.90625 94.625 C 132.332031 95.222656 128.933594 95.230469 125.714844 94.640625 L 125.011719 202.933594 C 128.394531 204.574219 132.027344 204.785156 135.90625 203.566406 Z M 137.324219 93.824219 L 137.324219 204.082031 C 137.324219 204.390625 137.125 204.652344 136.84375 204.75 C 132.25 206.324219 127.960938 206.074219 123.972656 204 C 123.710938 203.863281 123.570312 203.585938 123.59375 203.308594 L 124.304688 93.777344 C 124.304688 93.386719 124.625 93.070312 125.011719 93.070312 C 125.0625 93.070312 125.113281 93.078125 125.160156 93.089844 L 125.160156 93.085938 C 128.695312 93.855469 132.46875 93.855469 136.480469 93.082031 C 136.867188 93.007812 137.238281 93.261719 137.3125 93.648438 C 137.324219 93.707031 137.328125 93.765625 137.324219 93.824219 "
          fill-opacity="1" fill-rule="evenodd"/>
    <path fill="#f6f6e9"
          d="M 202.449219 109.148438 C 202.609375 138.152344 202.6875 152.652344 202.6875 152.652344 C 194.671875 154.148438 188.632812 153.757812 184.570312 151.472656 C 184.570312 151.472656 184.648438 136.734375 184.804688 107.257812 C 190.773438 108.503906 196.65625 109.132812 202.449219 109.148438 "
          fill-opacity="1" fill-rule="evenodd"/>
    <path fill="#291b25"
          d="M 201.976562 152.066406 L 201.746094 109.851562 C 199.050781 109.820312 196.339844 109.660156 193.617188 109.367188 C 190.933594 109.082031 188.230469 108.664062 185.507812 108.121094 L 185.28125 151.046875 C 187.15625 152.019531 189.460938 152.597656 192.191406 152.773438 C 195.007812 152.957031 198.269531 152.71875 201.976562 152.066406 Z M 203.15625 109.144531 L 203.394531 152.648438 C 203.394531 152.996094 203.148438 153.289062 202.816406 153.347656 C 198.75 154.109375 195.179688 154.386719 192.101562 154.1875 C 188.972656 153.980469 186.347656 153.285156 184.222656 152.089844 C 183.972656 151.949219 183.84375 151.683594 183.863281 151.417969 L 184.097656 107.253906 C 184.101562 106.863281 184.417969 106.550781 184.808594 106.550781 C 184.859375 106.550781 184.90625 106.554688 184.949219 106.5625 C 187.910156 107.179688 190.847656 107.648438 193.769531 107.957031 C 196.691406 108.273438 199.585938 108.433594 202.449219 108.441406 C 202.839844 108.441406 203.15625 108.757812 203.15625 109.144531 "
          fill-opacity="1" fill-rule="evenodd"/>
    <path fill="#f6f6e9"
          d="M 202.703125 158.085938 C 202.628906 159.5625 202.746094 163.175781 202.746094 163.175781 C 195.582031 164.367188 189.324219 164.015625 183.976562 162.113281 C 183.976562 162.113281 183.996094 160.355469 184.035156 156.851562 C 190.632812 158.488281 196.589844 158.933594 202.703125 158.085938 "
          fill-opacity="1" fill-rule="evenodd"/>
    <path fill="#291b25"
          d="M 202.019531 162.574219 C 201.996094 161.703125 201.960938 160.085938 201.972656 158.894531 C 199.152344 159.234375 196.351562 159.300781 193.503906 159.105469 C 190.65625 158.914062 187.757812 158.457031 184.734375 157.746094 L 184.691406 161.609375 C 187.171875 162.4375 189.847656 162.933594 192.71875 163.097656 C 195.617188 163.261719 198.71875 163.089844 202.019531 162.574219 Z M 203.414062 158.136719 C 203.339844 159.597656 203.453125 163.148438 203.453125 163.160156 C 203.460938 163.515625 203.203125 163.816406 202.863281 163.871094 C 199.230469 164.480469 195.820312 164.691406 192.640625 164.511719 C 189.445312 164.332031 186.480469 163.753906 183.742188 162.777344 C 183.433594 162.667969 183.246094 162.367188 183.269531 162.054688 L 183.328125 156.84375 C 183.332031 156.457031 183.652344 156.140625 184.042969 156.144531 C 184.097656 156.144531 184.152344 156.152344 184.207031 156.164062 C 187.464844 156.972656 190.5625 157.484375 193.601562 157.691406 C 196.628906 157.902344 199.601562 157.800781 202.609375 157.382812 C 202.996094 157.332031 203.355469 157.601562 203.40625 157.988281 C 203.414062 158.039062 203.414062 158.089844 203.414062 158.136719 "
          fill-opacity="1" fill-rule="evenodd"/>
    <path fill="#291b25"
          d="M 222.792969 53.167969 C 222.992188 52.996094 223.289062 53.015625 223.460938 53.210938 C 223.632812 53.40625 223.617188 53.703125 223.417969 53.875 L 182.570312 89.894531 C 182.375 90.066406 182.074219 90.046875 181.902344 89.851562 C 181.730469 89.65625 181.746094 89.359375 181.941406 89.1875 L 222.792969 53.167969 "
          fill-opacity="1" fill-rule="evenodd"/>
    <path fill="#291b25"
          d="M 185.335938 90.527344 C 185.148438 90.707031 184.847656 90.699219 184.667969 90.507812 C 184.488281 90.320312 184.5 90.019531 184.6875 89.839844 L 198.515625 76.886719 C 198.703125 76.707031 199.003906 76.714844 199.183594 76.90625 C 199.363281 77.097656 199.351562 77.394531 199.160156 77.574219 L 185.335938 90.527344 "
          fill-opacity="1" fill-rule="evenodd"/>
    <path fill="#291b25"
          d="M 247.546875 53.898438 C 247.742188 53.726562 248.042969 53.746094 248.214844 53.9375 C 248.386719 54.136719 248.371094 54.433594 248.171875 54.605469 L 232.78125 68.242188 C 232.582031 68.414062 232.285156 68.394531 232.113281 68.203125 C 231.941406 68.003906 231.957031 67.707031 232.152344 67.535156 L 247.546875 53.898438 "
          fill-opacity="1" fill-rule="evenodd"/>
    <path fill="#291b25"
          d="M 193.363281 91.746094 C 193.167969 91.917969 192.871094 91.902344 192.695312 91.707031 C 192.519531 91.511719 192.539062 91.214844 192.734375 91.039062 L 234.886719 53.523438 C 235.078125 53.355469 235.378906 53.371094 235.554688 53.5625 C 235.726562 53.761719 235.707031 54.058594 235.515625 54.230469 L 193.363281 91.746094 "
          fill-opacity="1" fill-rule="evenodd"/>
    <path fill="#291b25"
          d="M 196.613281 92.015625 C 196.421875 92.191406 196.125 92.179688 195.945312 91.988281 C 195.769531 91.796875 195.78125 91.5 195.972656 91.320312 L 204.082031 83.855469 C 204.277344 83.679688 204.574219 83.691406 204.75 83.882812 C 204.925781 84.074219 204.914062 84.375 204.722656 84.550781 L 196.613281 92.015625 "
          fill-opacity="1" fill-rule="evenodd"/>
    <path fill="#291b25"
          d="M 204.1875 92.320312 C 203.992188 92.492188 203.695312 92.476562 203.519531 92.285156 C 203.347656 92.089844 203.363281 91.792969 203.558594 91.617188 L 220.960938 76.109375 C 221.15625 75.9375 221.453125 75.953125 221.628906 76.144531 C 221.800781 76.339844 221.785156 76.636719 221.589844 76.8125 L 204.1875 92.320312 "
          fill-opacity="1" fill-rule="evenodd"/>
    <path fill="#291b25"
          d="M 243.878906 53.792969 C 244.074219 53.621094 244.371094 53.636719 244.546875 53.832031 C 244.71875 54.023438 244.703125 54.320312 244.507812 54.496094 L 238.644531 59.726562 C 238.449219 59.902344 238.148438 59.886719 237.976562 59.691406 C 237.804688 59.496094 237.820312 59.199219 238.011719 59.027344 L 243.878906 53.792969 "
          fill-opacity="1" fill-rule="evenodd"/>
    <path fill="#291b25"
          d="M 231.980469 53.4375 C 232.179688 53.265625 232.476562 53.285156 232.648438 53.484375 C 232.820312 53.679688 232.796875 53.980469 232.601562 54.148438 L 226.324219 59.554688 C 226.125 59.726562 225.828125 59.703125 225.65625 59.507812 C 225.484375 59.3125 225.507812 59.011719 225.703125 58.84375 L 231.980469 53.4375 "
          fill-opacity="1" fill-rule="evenodd"/>
    <path fill="#291b25"
          d="M 227.296875 53.304688 C 227.492188 53.128906 227.792969 53.144531 227.964844 53.339844 C 228.140625 53.53125 228.125 53.832031 227.929688 54.003906 L 213.242188 67.234375 C 213.050781 67.410156 212.75 67.394531 212.574219 67.199219 C 212.402344 67.007812 212.417969 66.707031 212.609375 66.535156 L 227.296875 53.304688 "
          fill-opacity="1" fill-rule="evenodd"/>
    <path fill="#291b25"
          d="M 164.746094 62.179688 C 164.535156 62.335938 164.238281 62.289062 164.082031 62.082031 C 163.925781 61.871094 163.972656 61.578125 164.179688 61.421875 L 180.855469 49.128906 C 181.0625 48.972656 181.359375 49.015625 181.511719 49.226562 C 181.667969 49.433594 181.625 49.730469 181.414062 49.882812 L 164.746094 62.179688 "
          fill-opacity="1" fill-rule="evenodd"/>
    <path fill="#291b25"
          d="M 167.082031 62.792969 C 166.871094 62.949219 166.574219 62.902344 166.421875 62.691406 C 166.265625 62.484375 166.3125 62.1875 166.523438 62.035156 L 174.875 55.921875 C 175.085938 55.769531 175.382812 55.8125 175.535156 56.023438 C 175.691406 56.234375 175.644531 56.53125 175.433594 56.683594 L 167.082031 62.792969 "
          fill-opacity="1" fill-rule="evenodd"/>
    <path fill="#291b25"
          d="M 197.726562 45.402344 C 197.933594 45.246094 198.230469 45.289062 198.386719 45.5 C 198.542969 45.707031 198.5 46.003906 198.292969 46.160156 L 174.976562 63.535156 C 174.765625 63.6875 174.472656 63.644531 174.3125 63.4375 C 174.160156 63.230469 174.199219 62.929688 174.410156 62.777344 L 197.726562 45.402344 "
          fill-opacity="1" fill-rule="evenodd"/>
    <path fill="#291b25"
          d="M 207.136719 32.382812 C 207.339844 32.222656 207.640625 32.261719 207.796875 32.46875 C 207.957031 32.675781 207.917969 32.96875 207.714844 33.128906 L 197.765625 40.835938 C 197.558594 40.992188 197.261719 40.957031 197.101562 40.75 C 196.941406 40.546875 196.980469 40.246094 197.1875 40.089844 L 207.136719 32.382812 "
          fill-opacity="1" fill-rule="evenodd"/>
    <path fill="#291b25"
          d="M 209.757812 32.691406 C 209.96875 32.539062 210.265625 32.585938 210.417969 32.796875 C 210.570312 33.007812 210.523438 33.300781 210.3125 33.457031 L 204.203125 37.828125 C 203.992188 37.980469 203.699219 37.933594 203.546875 37.722656 C 203.394531 37.511719 203.441406 37.214844 203.652344 37.066406 L 209.757812 32.691406 "
          fill-opacity="1" fill-rule="evenodd"/>
    <path fill="#291b25"
          d="M 161.683594 63.933594 C 161.878906 63.761719 162.179688 63.777344 162.351562 63.972656 C 162.527344 64.167969 162.507812 64.464844 162.3125 64.636719 L 149.714844 75.824219 C 149.515625 76 149.21875 75.980469 149.042969 75.785156 C 148.871094 75.59375 148.886719 75.292969 149.085938 75.121094 L 161.683594 63.933594 "
          fill-opacity="1" fill-rule="evenodd"/>
    <path fill="#291b25"
          d="M 147.289062 75.476562 C 147.09375 75.652344 146.796875 75.640625 146.621094 75.449219 C 146.441406 75.257812 146.457031 74.957031 146.648438 74.78125 L 154.351562 67.71875 C 154.539062 67.542969 154.839844 67.554688 155.019531 67.746094 C 155.195312 67.9375 155.179688 68.238281 154.992188 68.414062 L 147.289062 75.476562 "
          fill-opacity="1" fill-rule="evenodd"/>
    <path fill="#291b25"
          d="M 161.714844 66.777344 C 161.90625 66.601562 162.203125 66.613281 162.378906 66.804688 C 162.554688 66.992188 162.542969 67.292969 162.355469 67.46875 L 153.035156 76.078125 C 152.847656 76.253906 152.546875 76.242188 152.371094 76.050781 C 152.195312 75.863281 152.207031 75.5625 152.394531 75.386719 L 161.714844 66.777344 "
          fill-opacity="1" fill-rule="evenodd"/>
    <path fill="#291b25"
          d="M 123.882812 88.664062 C 123.679688 88.828125 123.386719 88.800781 123.21875 88.597656 C 123.054688 88.398438 123.082031 88.097656 123.285156 87.933594 L 137.199219 76.511719 C 137.402344 76.347656 137.699219 76.375 137.863281 76.574219 C 138.03125 76.777344 138 77.074219 137.800781 77.238281 L 123.882812 88.664062 "
          fill-opacity="1" fill-rule="evenodd"/>
    <path fill="#291b25"
          d="M 127.332031 89.082031 C 127.132812 89.257812 126.835938 89.234375 126.664062 89.039062 C 126.488281 88.84375 126.507812 88.546875 126.703125 88.371094 L 133.398438 82.488281 C 133.59375 82.316406 133.894531 82.335938 134.066406 82.53125 C 134.238281 82.726562 134.21875 83.027344 134.023438 83.199219 L 127.332031 89.082031 "
          fill-opacity="1" fill-rule="evenodd"/>
    <path fill="#291b25"
          d="M 242.253906 98.214844 C 242.171875 97.964844 242.308594 97.699219 242.554688 97.617188 C 242.800781 97.535156 243.070312 97.671875 243.152344 97.917969 L 243.386719 98.625 C 243.46875 98.875 243.335938 99.140625 243.085938 99.222656 C 242.839844 99.304688 242.574219 99.167969 242.492188 98.921875 L 242.253906 98.214844 "
          fill-opacity="1" fill-rule="evenodd"/>
    <path fill="#291b25"
          d="M 228.378906 98.230469 C 228.355469 97.972656 228.542969 97.738281 228.804688 97.714844 C 229.0625 97.6875 229.292969 97.878906 229.320312 98.136719 L 229.4375 99.320312 C 229.460938 99.578125 229.273438 99.808594 229.011719 99.835938 C 228.753906 99.859375 228.523438 99.671875 228.496094 99.410156 L 228.378906 98.230469 "
          fill-opacity="1" fill-rule="evenodd"/>
    <path fill="#291b25"
          d="M 242.347656 83.640625 C 242.085938 83.640625 241.875 83.429688 241.875 83.167969 C 241.875 82.910156 242.085938 82.695312 242.347656 82.695312 L 242.941406 82.695312 C 243.203125 82.695312 243.414062 82.910156 243.414062 83.167969 C 243.414062 83.429688 243.203125 83.640625 242.941406 83.640625 L 242.347656 83.640625 "
          fill-opacity="1" fill-rule="evenodd"/>
    <path fill="#291b25"
          d="M 241.953125 149.160156 C 241.808594 148.941406 241.871094 148.652344 242.085938 148.507812 C 242.304688 148.363281 242.597656 148.425781 242.742188 148.640625 L 243.214844 149.347656 C 243.359375 149.566406 243.300781 149.859375 243.082031 150.003906 C 242.863281 150.148438 242.570312 150.089844 242.429688 149.871094 L 241.953125 149.160156 "
          fill-opacity="1" fill-rule="evenodd"/>
    <path fill="#291b25"
          d="M 217.789062 132.929688 C 217.925781 132.707031 218.214844 132.636719 218.4375 132.773438 C 218.664062 132.910156 218.730469 133.203125 218.59375 133.425781 L 217.648438 134.960938 C 217.511719 135.183594 217.21875 135.253906 216.996094 135.117188 C 216.773438 134.980469 216.703125 134.691406 216.839844 134.464844 L 217.789062 132.929688 "
          fill-opacity="1" fill-rule="evenodd"/>
    <path fill="#291b25"
          d="M 217.621094 182.574219 C 217.4375 182.386719 217.4375 182.089844 217.621094 181.90625 C 217.804688 181.71875 218.105469 181.71875 218.289062 181.90625 L 219.117188 182.730469 C 219.304688 182.917969 219.304688 183.214844 219.117188 183.402344 C 218.933594 183.585938 218.632812 183.585938 218.449219 183.402344 L 217.621094 182.574219 "
          fill-opacity="1" fill-rule="evenodd"/>
    <path fill="#291b25"
          d="M 232.398438 176.851562 C 232.171875 176.71875 232.097656 176.425781 232.230469 176.203125 C 232.367188 175.980469 232.65625 175.910156 232.878906 176.042969 L 233.472656 176.394531 C 233.695312 176.527344 233.769531 176.820312 233.632812 177.042969 C 233.5 177.265625 233.210938 177.339844 232.988281 177.207031 L 232.398438 176.851562 "
          fill-opacity="1" fill-rule="evenodd"/>
    <path fill="#291b25"
          d="M 191.910156 65.03125 C 191.871094 64.769531 192.054688 64.53125 192.3125 64.496094 C 192.570312 64.460938 192.808594 64.636719 192.847656 64.898438 L 192.964844 65.722656 C 193 65.984375 192.820312 66.222656 192.5625 66.257812 C 192.304688 66.296875 192.0625 66.117188 192.027344 65.855469 L 191.910156 65.03125 "
          fill-opacity="1" fill-rule="evenodd"/>
    <path fill="#291b25"
          d="M 210.15625 50.171875 C 209.902344 50.117188 209.742188 49.867188 209.796875 49.609375 C 209.855469 49.359375 210.105469 49.199219 210.359375 49.253906 L 211.425781 49.488281 C 211.679688 49.542969 211.839844 49.796875 211.785156 50.050781 C 211.726562 50.304688 211.476562 50.464844 211.222656 50.410156 L 210.15625 50.171875 "
          fill-opacity="1" fill-rule="evenodd"/>
    <path fill="#291b25"
          d="M 199.246094 50.777344 C 199.246094 50.515625 199.457031 50.304688 199.71875 50.304688 C 199.980469 50.304688 200.195312 50.515625 200.195312 50.777344 L 200.195312 51.484375 C 200.195312 51.746094 199.980469 51.957031 199.71875 51.957031 C 199.457031 51.957031 199.246094 51.746094 199.246094 51.484375 L 199.246094 50.777344 "
          fill-opacity="1" fill-rule="evenodd"/>
    <path fill="#291b25"
          d="M 148.210938 82.105469 C 148.210938 81.84375 148.421875 81.632812 148.683594 81.632812 C 148.945312 81.632812 149.15625 81.84375 149.15625 82.105469 L 149.15625 82.792969 L 149.550781 83.382812 C 149.695312 83.601562 149.636719 83.890625 149.417969 84.035156 C 149.199219 84.179688 148.90625 84.121094 148.761719 83.902344 L 148.308594 83.222656 C 148.246094 83.140625 148.210938 83.042969 148.210938 82.933594 L 148.210938 82.105469 "
          fill-opacity="1" fill-rule="evenodd"/>
    <path fill="#291b25"
          d="M 145.652344 92.628906 C 145.453125 92.460938 145.433594 92.164062 145.601562 91.964844 C 145.769531 91.769531 146.070312 91.742188 146.265625 91.914062 L 147.09375 92.625 C 147.292969 92.792969 147.316406 93.089844 147.148438 93.289062 C 146.980469 93.484375 146.679688 93.511719 146.480469 93.339844 L 145.652344 92.628906 "
          fill-opacity="1" fill-rule="evenodd"/>
    <path fill="#291b25"
          d="M 157.449219 89.183594 C 157.199219 89.121094 157.042969 88.863281 157.105469 88.609375 C 157.167969 88.359375 157.425781 88.203125 157.679688 88.269531 L 158.152344 88.386719 C 158.40625 88.449219 158.5625 88.707031 158.496094 88.957031 C 158.433594 89.210938 158.175781 89.363281 157.921875 89.300781 L 157.449219 89.183594 "
          fill-opacity="1" fill-rule="evenodd"/>
    <path fill="#291b25"
          d="M 144.074219 197.191406 C 143.84375 197.066406 143.761719 196.777344 143.890625 196.550781 C 144.015625 196.324219 144.304688 196.242188 144.53125 196.367188 L 145.597656 196.960938 C 145.828125 197.085938 145.90625 197.371094 145.78125 197.601562 C 145.65625 197.828125 145.367188 197.910156 145.136719 197.78125 L 144.074219 197.191406 "
          fill-opacity="1" fill-rule="evenodd"/>
    <path fill="#291b25"
          d="M 150.832031 208.171875 C 150.613281 208.3125 150.320312 208.246094 150.179688 208.027344 C 150.042969 207.808594 150.105469 207.519531 150.324219 207.378906 L 151.625 206.550781 C 151.847656 206.410156 152.140625 206.472656 152.277344 206.695312 C 152.417969 206.914062 152.355469 207.203125 152.132812 207.34375 L 150.832031 208.171875 "
          fill-opacity="1" fill-rule="evenodd"/>
    <path fill="#291b25"
          d="M 158.460938 198.097656 C 158.253906 197.941406 158.214844 197.644531 158.375 197.4375 C 158.535156 197.230469 158.832031 197.195312 159.039062 197.351562 L 160.574219 198.535156 C 160.785156 198.695312 160.820312 198.988281 160.660156 199.195312 C 160.503906 199.402344 160.207031 199.441406 160 199.28125 L 158.460938 198.097656 "
          fill-opacity="1" fill-rule="evenodd"/>
    <g fill="#f6f6e9" fill-opacity="1">
        <g transform="translate(41.011083, 277.762628)">
            <g>
                <path d="M 17.515625 -13.9375 L 17.515625 -13.796875 C 19.492188 -13.609375 20.910156 -12.925781 21.765625 -11.75 C 22.617188 -10.582031 23.046875 -8.882812 23.046875 -6.65625 C 23.046875 -3.976562 22.359375 -2.144531 20.984375 -1.15625 C 19.617188 -0.175781 17.285156 0.3125 13.984375 0.3125 C 9.023438 0.3125 5.269531 0.207031 2.71875 0 L 2.71875 -26.734375 C 5.007812 -26.929688 8.351562 -27.03125 12.75 -27.03125 C 16.3125 -27.03125 18.773438 -26.546875 20.140625 -25.578125 C 21.503906 -24.609375 22.1875 -22.769531 22.1875 -20.0625 C 22.1875 -18.125 21.816406 -16.65625 21.078125 -15.65625 C 20.347656 -14.664062 19.160156 -14.09375 17.515625 -13.9375 Z M 8.484375 -15.796875 L 12.78125 -15.796875 C 14.226562 -15.796875 15.21875 -16.03125 15.75 -16.5 C 16.28125 -16.96875 16.546875 -17.882812 16.546875 -19.25 C 16.546875 -20.59375 16.257812 -21.484375 15.6875 -21.921875 C 15.113281 -22.359375 14.039062 -22.578125 12.46875 -22.578125 L 8.484375 -22.625 Z M 8.484375 -4.140625 L 12.96875 -4.140625 C 14.601562 -4.140625 15.703125 -4.378906 16.265625 -4.859375 C 16.835938 -5.335938 17.125 -6.3125 17.125 -7.78125 C 17.125 -9.382812 16.828125 -10.460938 16.234375 -11.015625 C 15.640625 -11.578125 14.503906 -11.867188 12.828125 -11.890625 L 8.484375 -11.890625 Z M 8.484375 -4.140625 "/>
            </g>
        </g>
    </g>
    <g fill="#f6f6e9" fill-opacity="1">
        <g transform="translate(69.160652, 277.762628)">
            <g>
                <path d="M 4.3125 -24.265625 C 5.976562 -26.242188 8.953125 -27.234375 13.234375 -27.234375 C 17.523438 -27.234375 20.507812 -26.242188 22.1875 -24.265625 C 23.875 -22.285156 24.71875 -18.648438 24.71875 -13.359375 C 24.71875 -8.066406 23.875 -4.429688 22.1875 -2.453125 C 20.507812 -0.484375 17.523438 0.5 13.234375 0.5 C 8.953125 0.5 5.976562 -0.484375 4.3125 -2.453125 C 2.65625 -4.429688 1.828125 -8.066406 1.828125 -13.359375 C 1.828125 -18.648438 2.65625 -22.285156 4.3125 -24.265625 Z M 17.359375 -20.5625 C 16.628906 -21.832031 15.253906 -22.46875 13.234375 -22.46875 C 11.222656 -22.46875 9.847656 -21.832031 9.109375 -20.5625 C 8.378906 -19.300781 8.015625 -16.898438 8.015625 -13.359375 C 8.015625 -9.828125 8.378906 -7.425781 9.109375 -6.15625 C 9.847656 -4.894531 11.222656 -4.265625 13.234375 -4.265625 C 15.253906 -4.265625 16.628906 -4.894531 17.359375 -6.15625 C 18.097656 -7.425781 18.46875 -9.828125 18.46875 -13.359375 C 18.46875 -16.898438 18.097656 -19.300781 17.359375 -20.5625 Z M 17.359375 -20.5625 "/>
            </g>
        </g>
    </g>
    <g fill="#f6f6e9" fill-opacity="1">
        <g transform="translate(99.130002, 277.762628)">
            <g>
                <path d="M 4.3125 -24.265625 C 5.976562 -26.242188 8.953125 -27.234375 13.234375 -27.234375 C 17.523438 -27.234375 20.507812 -26.242188 22.1875 -24.265625 C 23.875 -22.285156 24.71875 -18.648438 24.71875 -13.359375 C 24.71875 -8.066406 23.875 -4.429688 22.1875 -2.453125 C 20.507812 -0.484375 17.523438 0.5 13.234375 0.5 C 8.953125 0.5 5.976562 -0.484375 4.3125 -2.453125 C 2.65625 -4.429688 1.828125 -8.066406 1.828125 -13.359375 C 1.828125 -18.648438 2.65625 -22.285156 4.3125 -24.265625 Z M 17.359375 -20.5625 C 16.628906 -21.832031 15.253906 -22.46875 13.234375 -22.46875 C 11.222656 -22.46875 9.847656 -21.832031 9.109375 -20.5625 C 8.378906 -19.300781 8.015625 -16.898438 8.015625 -13.359375 C 8.015625 -9.828125 8.378906 -7.425781 9.109375 -6.15625 C 9.847656 -4.894531 11.222656 -4.265625 13.234375 -4.265625 C 15.253906 -4.265625 16.628906 -4.894531 17.359375 -6.15625 C 18.097656 -7.425781 18.46875 -9.828125 18.46875 -13.359375 C 18.46875 -16.898438 18.097656 -19.300781 17.359375 -20.5625 Z M 17.359375 -20.5625 "/>
            </g>
        </g>
    </g>
    <g fill="#f6f6e9" fill-opacity="1">
        <g transform="translate(129.099353, 277.762628)">
            <g>
                <path d="M 10.609375 -11.78125 L 8.328125 -11.78125 C 8.503906 -10.738281 8.59375 -9.882812 8.59375 -9.21875 L 8.59375 0 L 2.71875 0 L 2.71875 -26.734375 L 8.59375 -26.734375 L 8.59375 -19.171875 C 8.59375 -18.035156 8.503906 -16.976562 8.328125 -16 L 10.609375 -16 L 17.390625 -26.734375 L 23.78125 -26.734375 L 16.890625 -16.078125 C 16.453125 -15.296875 15.804688 -14.582031 14.953125 -13.9375 L 14.953125 -13.796875 C 15.878906 -13.148438 16.628906 -12.359375 17.203125 -11.421875 L 24.25 0 L 17.65625 0 Z M 10.609375 -11.78125 "/>
            </g>
        </g>
    </g>
    <g fill="#f6f6e9" fill-opacity="1">
        <g transform="translate(157.016607, 277.762628)">
            <g/>
        </g>
    </g>
    <g fill="#f6f6e9" fill-opacity="1">
        <g transform="translate(168.904293, 277.762628)">
            <g>
                <path d="M 17.515625 -13.9375 L 17.515625 -13.796875 C 19.492188 -13.609375 20.910156 -12.925781 21.765625 -11.75 C 22.617188 -10.582031 23.046875 -8.882812 23.046875 -6.65625 C 23.046875 -3.976562 22.359375 -2.144531 20.984375 -1.15625 C 19.617188 -0.175781 17.285156 0.3125 13.984375 0.3125 C 9.023438 0.3125 5.269531 0.207031 2.71875 0 L 2.71875 -26.734375 C 5.007812 -26.929688 8.351562 -27.03125 12.75 -27.03125 C 16.3125 -27.03125 18.773438 -26.546875 20.140625 -25.578125 C 21.503906 -24.609375 22.1875 -22.769531 22.1875 -20.0625 C 22.1875 -18.125 21.816406 -16.65625 21.078125 -15.65625 C 20.347656 -14.664062 19.160156 -14.09375 17.515625 -13.9375 Z M 8.484375 -15.796875 L 12.78125 -15.796875 C 14.226562 -15.796875 15.21875 -16.03125 15.75 -16.5 C 16.28125 -16.96875 16.546875 -17.882812 16.546875 -19.25 C 16.546875 -20.59375 16.257812 -21.484375 15.6875 -21.921875 C 15.113281 -22.359375 14.039062 -22.578125 12.46875 -22.578125 L 8.484375 -22.625 Z M 8.484375 -4.140625 L 12.96875 -4.140625 C 14.601562 -4.140625 15.703125 -4.378906 16.265625 -4.859375 C 16.835938 -5.335938 17.125 -6.3125 17.125 -7.78125 C 17.125 -9.382812 16.828125 -10.460938 16.234375 -11.015625 C 15.640625 -11.578125 14.503906 -11.867188 12.828125 -11.890625 L 8.484375 -11.890625 Z M 8.484375 -4.140625 "/>
            </g>
        </g>
    </g>
    <g fill="#f6f6e9" fill-opacity="1">
        <g transform="translate(197.053862, 277.762628)">
            <g>
                <path d="M 17.203125 -7.015625 L 8.015625 -7.015625 L 6.078125 0 L 0.03125 0 L 7.75 -25.171875 C 7.851562 -25.640625 8.097656 -26.015625 8.484375 -26.296875 C 8.867188 -26.585938 9.304688 -26.734375 9.796875 -26.734375 L 15.375 -26.734375 C 16.488281 -26.734375 17.175781 -26.210938 17.4375 -25.171875 L 25.140625 0 L 19.140625 0 Z M 15.921875 -11.578125 L 13.671875 -19.75 C 13.359375 -21.039062 13.175781 -21.878906 13.125 -22.265625 L 12.078125 -22.265625 C 12.023438 -22.015625 11.9375 -21.601562 11.8125 -21.03125 C 11.6875 -20.46875 11.582031 -20.039062 11.5 -19.75 L 9.25 -11.578125 Z M 15.921875 -11.578125 "/>
            </g>
        </g>
    </g>
    <g fill="#f6f6e9" fill-opacity="1">
        <g transform="translate(225.706776, 277.762628)">
            <g>
                <path d="M 21.078125 -4.53125 L 21.078125 0 L 1.546875 0 L 1.546875 -4.53125 L 14.25 -22.1875 L 1.859375 -22.1875 L 1.859375 -26.734375 L 20.765625 -26.734375 L 20.765625 -22.1875 L 8.0625 -4.53125 Z M 21.078125 -4.53125 "/>
            </g>
        </g>
    </g>
    <g fill="#f6f6e9" fill-opacity="1">
        <g transform="translate(251.765532, 277.762628)">
            <g>
                <path d="M 17.203125 -7.015625 L 8.015625 -7.015625 L 6.078125 0 L 0.03125 0 L 7.75 -25.171875 C 7.851562 -25.640625 8.097656 -26.015625 8.484375 -26.296875 C 8.867188 -26.585938 9.304688 -26.734375 9.796875 -26.734375 L 15.375 -26.734375 C 16.488281 -26.734375 17.175781 -26.210938 17.4375 -25.171875 L 25.140625 0 L 19.140625 0 Z M 15.921875 -11.578125 L 13.671875 -19.75 C 13.359375 -21.039062 13.175781 -21.878906 13.125 -22.265625 L 12.078125 -22.265625 C 12.023438 -22.015625 11.9375 -21.601562 11.8125 -21.03125 C 11.6875 -20.46875 11.582031 -20.039062 11.5 -19.75 L 9.25 -11.578125 Z M 15.921875 -11.578125 "/>
            </g>
        </g>
    </g>
    <g fill="#f6f6e9" fill-opacity="1">
        <g transform="translate(280.418446, 277.762628)">
            <g>
                <path d="M 17.203125 -7.015625 L 8.015625 -7.015625 L 6.078125 0 L 0.03125 0 L 7.75 -25.171875 C 7.851562 -25.640625 8.097656 -26.015625 8.484375 -26.296875 C 8.867188 -26.585938 9.304688 -26.734375 9.796875 -26.734375 L 15.375 -26.734375 C 16.488281 -26.734375 17.175781 -26.210938 17.4375 -25.171875 L 25.140625 0 L 19.140625 0 Z M 15.921875 -11.578125 L 13.671875 -19.75 C 13.359375 -21.039062 13.175781 -21.878906 13.125 -22.265625 L 12.078125 -22.265625 C 12.023438 -22.015625 11.9375 -21.601562 11.8125 -21.03125 C 11.6875 -20.46875 11.582031 -20.039062 11.5 -19.75 L 9.25 -11.578125 Z M 15.921875 -11.578125 "/>
            </g>
        </g>
    </g>
    <g fill="#f6f6e9" fill-opacity="1">
        <g transform="translate(309.07136, 277.762628)">
            <g>
                <path d="M 23.78125 0 L 17.546875 0 L 15.53125 -8.171875 C 15.269531 -9.023438 14.925781 -9.613281 14.5 -9.9375 C 14.070312 -10.257812 13.460938 -10.421875 12.671875 -10.421875 L 8.515625 -10.453125 L 8.515625 0 L 2.71875 0 L 2.71875 -26.734375 C 5.113281 -26.960938 8.507812 -27.078125 12.90625 -27.078125 C 16.488281 -27.078125 19.03125 -26.507812 20.53125 -25.375 C 22.03125 -24.238281 22.78125 -22.171875 22.78125 -19.171875 C 22.78125 -17.210938 22.382812 -15.675781 21.59375 -14.5625 C 20.800781 -13.457031 19.488281 -12.785156 17.65625 -12.546875 L 17.65625 -12.359375 C 19.695312 -11.890625 20.960938 -10.546875 21.453125 -8.328125 Z M 8.515625 -14.984375 L 12.78125 -14.984375 C 14.332031 -14.984375 15.390625 -15.25 15.953125 -15.78125 C 16.523438 -16.3125 16.8125 -17.3125 16.8125 -18.78125 C 16.8125 -20.257812 16.53125 -21.253906 15.96875 -21.765625 C 15.414062 -22.285156 14.351562 -22.546875 12.78125 -22.546875 L 8.515625 -22.5 Z M 8.515625 -14.984375 "/>
            </g>
        </g>
    </g>
    <g fill="#f6f6e9" fill-opacity="1">
        <g transform="translate(80.720036, 319.098613)">
            <g>
                <path d="M 11.96875 -10.65625 L 8.1875 0.15625 C 7.988281 0.726562 7.738281 1.257812 7.4375 1.75 C 7.144531 2.238281 6.769531 2.707031 6.3125 3.15625 C 5.851562 3.613281 5.28125 3.953125 4.59375 4.171875 C 3.90625 4.390625 3.144531 4.445312 2.3125 4.34375 L 2.046875 2.46875 C 2.910156 2.238281 3.585938 1.9375 4.078125 1.5625 C 4.566406 1.195312 4.953125 0.707031 5.234375 0.09375 L 5.265625 0 L 4.671875 0 C 4.140625 0 3.789062 -0.257812 3.625 -0.78125 L 0.15625 -10.65625 L 3.5625 -10.65625 L 5.546875 -3.765625 C 5.679688 -3.253906 5.789062 -2.71875 5.875 -2.15625 L 6.15625 -2.15625 C 6.195312 -2.332031 6.269531 -2.601562 6.375 -2.96875 C 6.476562 -3.332031 6.550781 -3.597656 6.59375 -3.765625 L 8.5625 -10.65625 Z M 11.96875 -10.65625 "/>
            </g>
        </g>
    </g>
    <g fill="#f6f6e9" fill-opacity="1">
        <g transform="translate(98.823284, 319.098613)">
            <g>
                <path d="M 6.359375 -10.953125 C 8.335938 -10.953125 9.738281 -10.523438 10.5625 -9.671875 C 11.394531 -8.816406 11.8125 -7.363281 11.8125 -5.3125 C 11.8125 -3.269531 11.394531 -1.828125 10.5625 -0.984375 C 9.738281 -0.140625 8.335938 0.28125 6.359375 0.28125 C 4.347656 0.28125 2.925781 -0.140625 2.09375 -0.984375 C 1.269531 -1.828125 0.859375 -3.269531 0.859375 -5.3125 C 0.859375 -7.375 1.269531 -8.828125 2.09375 -9.671875 C 2.925781 -10.523438 4.347656 -10.953125 6.359375 -10.953125 Z M 6.359375 -8.5625 C 5.503906 -8.5625 4.929688 -8.34375 4.640625 -7.90625 C 4.359375 -7.476562 4.21875 -6.613281 4.21875 -5.3125 C 4.21875 -4.050781 4.359375 -3.203125 4.640625 -2.765625 C 4.929688 -2.335938 5.503906 -2.125 6.359375 -2.125 C 7.171875 -2.125 7.722656 -2.335938 8.015625 -2.765625 C 8.316406 -3.203125 8.46875 -4.050781 8.46875 -5.3125 C 8.46875 -6.59375 8.320312 -7.453125 8.03125 -7.890625 C 7.75 -8.335938 7.191406 -8.5625 6.359375 -8.5625 Z M 6.359375 -8.5625 "/>
            </g>
        </g>
    </g>
    <g fill="#f6f6e9" fill-opacity="1">
        <g transform="translate(117.466475, 319.098613)">
            <g>
                <path d="M 11.4375 -10.65625 L 11.4375 0 L 8.90625 0 L 8.671875 -1.46875 C 7.203125 -0.300781 5.726562 0.28125 4.25 0.28125 C 2.25 0.28125 1.25 -0.703125 1.25 -2.671875 L 1.25 -10.65625 L 4.453125 -10.65625 L 4.453125 -3.65625 C 4.441406 -3.1875 4.519531 -2.859375 4.6875 -2.671875 C 4.863281 -2.492188 5.164062 -2.40625 5.59375 -2.40625 C 6.21875 -2.40625 7.101562 -2.695312 8.25 -3.28125 L 8.25 -10.65625 Z M 11.4375 -10.65625 "/>
            </g>
        </g>
    </g>
    <g fill="#f6f6e9" fill-opacity="1">
        <g transform="translate(136.174452, 319.098613)">
            <g>
                <path d="M 8.96875 -10.953125 L 8.640625 -8 L 7.78125 -8 C 7.070312 -8 5.984375 -7.753906 4.515625 -7.265625 L 4.515625 0 L 1.3125 0 L 1.3125 -10.65625 L 3.796875 -10.65625 L 4.078125 -9.09375 C 5.535156 -10.332031 6.976562 -10.953125 8.40625 -10.953125 Z M 8.96875 -10.953125 "/>
            </g>
        </g>
    </g>
    <g fill="#f6f6e9" fill-opacity="1">
        <g transform="translate(151.318818, 319.098613)">
            <g/>
        </g>
    </g>
    <g fill="#f6f6e9" fill-opacity="1">
        <g transform="translate(161.970864, 319.098613)">
            <g>
                <path d="M 3.90625 -10.65625 L 4.15625 -9.09375 C 4.59375 -9.625 5.203125 -10.0625 5.984375 -10.40625 C 6.773438 -10.757812 7.578125 -10.9375 8.390625 -10.9375 C 10.835938 -10.9375 12.0625 -9.035156 12.0625 -5.234375 C 12.0625 -3.179688 11.734375 -1.75 11.078125 -0.9375 C 10.421875 -0.125 9.394531 0.28125 8 0.28125 C 6.550781 0.28125 5.363281 -0.0625 4.4375 -0.75 C 4.5 -0.0195312 4.519531 0.738281 4.5 1.53125 L 4.5 4.109375 L 1.3125 4.109375 L 1.3125 -10.65625 Z M 4.5 -7.40625 L 4.5 -2.53125 C 5.625 -2.238281 6.429688 -2.09375 6.921875 -2.09375 C 7.617188 -2.09375 8.097656 -2.296875 8.359375 -2.703125 C 8.628906 -3.109375 8.765625 -3.953125 8.765625 -5.234375 C 8.765625 -6.484375 8.640625 -7.328125 8.390625 -7.765625 C 8.148438 -8.203125 7.722656 -8.421875 7.109375 -8.421875 C 6.398438 -8.421875 5.53125 -8.082031 4.5 -7.40625 Z M 4.5 -7.40625 "/>
            </g>
        </g>
    </g>
    <g fill="#f6f6e9" fill-opacity="1">
        <g transform="translate(180.894824, 319.098613)">
            <g>
                <path d="M 8.109375 -4.25 L 4.25 -4.25 C 4.351562 -3.476562 4.585938 -2.957031 4.953125 -2.6875 C 5.328125 -2.425781 5.9375 -2.296875 6.78125 -2.296875 C 7.925781 -2.296875 9.253906 -2.375 10.765625 -2.53125 L 11.0625 -0.546875 C 9.957031 -0.00390625 8.410156 0.265625 6.421875 0.265625 C 4.421875 0.265625 2.992188 -0.164062 2.140625 -1.03125 C 1.285156 -1.894531 0.859375 -3.320312 0.859375 -5.3125 C 0.859375 -7.40625 1.269531 -8.867188 2.09375 -9.703125 C 2.925781 -10.535156 4.320312 -10.953125 6.28125 -10.953125 C 8.0625 -10.953125 9.347656 -10.644531 10.140625 -10.03125 C 10.929688 -9.425781 11.332031 -8.492188 11.34375 -7.234375 C 11.34375 -6.242188 11.085938 -5.5 10.578125 -5 C 10.066406 -4.5 9.242188 -4.25 8.109375 -4.25 Z M 4.1875 -6.1875 L 7.21875 -6.1875 C 7.601562 -6.1875 7.863281 -6.273438 8 -6.453125 C 8.144531 -6.640625 8.21875 -6.914062 8.21875 -7.28125 C 8.21875 -7.78125 8.085938 -8.128906 7.828125 -8.328125 C 7.566406 -8.523438 7.085938 -8.625 6.390625 -8.625 C 5.578125 -8.625 5.015625 -8.460938 4.703125 -8.140625 C 4.398438 -7.816406 4.226562 -7.164062 4.1875 -6.1875 Z M 4.1875 -6.1875 "/>
            </g>
        </g>
    </g>
    <g fill="#f6f6e9" fill-opacity="1">
        <g transform="translate(198.95487, 319.098613)">
            <g>
                <path d="M 8.96875 -10.953125 L 8.640625 -8 L 7.78125 -8 C 7.070312 -8 5.984375 -7.753906 4.515625 -7.265625 L 4.515625 0 L 1.3125 0 L 1.3125 -10.65625 L 3.796875 -10.65625 L 4.078125 -9.09375 C 5.535156 -10.332031 6.976562 -10.953125 8.40625 -10.953125 Z M 8.96875 -10.953125 "/>
            </g>
        </g>
    </g>
    <g fill="#f6f6e9" fill-opacity="1">
        <g transform="translate(214.099237, 319.098613)">
            <g>
                <path d="M 6.046875 -3.953125 L 3.390625 -4.671875 C 2.410156 -4.953125 1.734375 -5.34375 1.359375 -5.84375 C 0.984375 -6.34375 0.796875 -7.03125 0.796875 -7.90625 C 0.796875 -9.019531 1.140625 -9.804688 1.828125 -10.265625 C 2.515625 -10.722656 3.6875 -10.953125 5.34375 -10.953125 C 7.257812 -10.921875 8.898438 -10.785156 10.265625 -10.546875 L 10.046875 -8.5 C 8.234375 -8.519531 6.863281 -8.53125 5.9375 -8.53125 C 5.4375 -8.53125 5.085938 -8.523438 4.890625 -8.515625 C 4.703125 -8.515625 4.507812 -8.492188 4.3125 -8.453125 C 4.113281 -8.410156 3.992188 -8.34375 3.953125 -8.25 C 3.910156 -8.15625 3.890625 -8.015625 3.890625 -7.828125 C 3.890625 -7.753906 3.890625 -7.6875 3.890625 -7.625 C 3.898438 -7.570312 3.921875 -7.519531 3.953125 -7.46875 C 3.984375 -7.414062 4.007812 -7.375 4.03125 -7.34375 C 4.050781 -7.3125 4.085938 -7.28125 4.140625 -7.25 C 4.203125 -7.21875 4.25 -7.191406 4.28125 -7.171875 C 4.320312 -7.160156 4.390625 -7.132812 4.484375 -7.09375 C 4.578125 -7.0625 4.648438 -7.035156 4.703125 -7.015625 C 4.753906 -7.003906 4.847656 -6.976562 4.984375 -6.9375 C 5.117188 -6.90625 5.222656 -6.882812 5.296875 -6.875 L 8.015625 -6.140625 C 8.960938 -5.859375 9.640625 -5.488281 10.046875 -5.03125 C 10.453125 -4.582031 10.65625 -3.914062 10.65625 -3.03125 C 10.65625 -1.757812 10.285156 -0.894531 9.546875 -0.4375 C 8.816406 0.0078125 7.554688 0.234375 5.765625 0.234375 C 4.035156 0.234375 2.445312 0.113281 1 -0.125 L 1.1875 -2.203125 C 1.707031 -2.171875 2.941406 -2.15625 4.890625 -2.15625 C 5.992188 -2.15625 6.710938 -2.203125 7.046875 -2.296875 C 7.390625 -2.390625 7.5625 -2.609375 7.5625 -2.953125 C 7.5625 -3.023438 7.554688 -3.085938 7.546875 -3.140625 C 7.546875 -3.203125 7.53125 -3.257812 7.5 -3.3125 C 7.46875 -3.363281 7.4375 -3.40625 7.40625 -3.4375 C 7.382812 -3.46875 7.335938 -3.5 7.265625 -3.53125 C 7.203125 -3.570312 7.148438 -3.601562 7.109375 -3.625 C 7.078125 -3.644531 7.007812 -3.671875 6.90625 -3.703125 C 6.8125 -3.742188 6.734375 -3.769531 6.671875 -3.78125 C 6.617188 -3.789062 6.519531 -3.8125 6.375 -3.84375 C 6.226562 -3.882812 6.117188 -3.921875 6.046875 -3.953125 Z M 6.046875 -3.953125 "/>
            </g>
        </g>
    </g>
    <g fill="#f6f6e9" fill-opacity="1">
        <g transform="translate(231.446568, 319.098613)">
            <g>
                <path d="M 6.359375 -10.953125 C 8.335938 -10.953125 9.738281 -10.523438 10.5625 -9.671875 C 11.394531 -8.816406 11.8125 -7.363281 11.8125 -5.3125 C 11.8125 -3.269531 11.394531 -1.828125 10.5625 -0.984375 C 9.738281 -0.140625 8.335938 0.28125 6.359375 0.28125 C 4.347656 0.28125 2.925781 -0.140625 2.09375 -0.984375 C 1.269531 -1.828125 0.859375 -3.269531 0.859375 -5.3125 C 0.859375 -7.375 1.269531 -8.828125 2.09375 -9.671875 C 2.925781 -10.523438 4.347656 -10.953125 6.359375 -10.953125 Z M 6.359375 -8.5625 C 5.503906 -8.5625 4.929688 -8.34375 4.640625 -7.90625 C 4.359375 -7.476562 4.21875 -6.613281 4.21875 -5.3125 C 4.21875 -4.050781 4.359375 -3.203125 4.640625 -2.765625 C 4.929688 -2.335938 5.503906 -2.125 6.359375 -2.125 C 7.171875 -2.125 7.722656 -2.335938 8.015625 -2.765625 C 8.316406 -3.203125 8.46875 -4.050781 8.46875 -5.3125 C 8.46875 -6.59375 8.320312 -7.453125 8.03125 -7.890625 C 7.75 -8.335938 7.191406 -8.5625 6.359375 -8.5625 Z M 6.359375 -8.5625 "/>
            </g>
        </g>
    </g>
    <g fill="#f6f6e9" fill-opacity="1">
        <g transform="translate(250.089759, 319.098613)">
            <g>
                <path d="M 3.90625 -10.65625 L 4.15625 -9.078125 C 5.695312 -10.328125 7.210938 -10.953125 8.703125 -10.953125 C 9.671875 -10.953125 10.410156 -10.695312 10.921875 -10.1875 C 11.429688 -9.6875 11.6875 -8.957031 11.6875 -8 L 11.6875 0 L 8.515625 0 L 8.515625 -7 C 8.515625 -7.476562 8.4375 -7.804688 8.28125 -7.984375 C 8.132812 -8.160156 7.867188 -8.25 7.484375 -8.25 C 6.804688 -8.25 5.816406 -7.925781 4.515625 -7.28125 L 4.515625 0 L 1.3125 0 L 1.3125 -10.65625 Z M 3.90625 -10.65625 "/>
            </g>
        </g>
    </g>
    <g fill="#f6f6e9" fill-opacity="1">
        <g transform="translate(268.992113, 319.098613)">
            <g>
                <path d="M 1.59375 -8.28125 L 1.296875 -10.4375 C 3.210938 -10.78125 5.0625 -10.953125 6.84375 -10.953125 C 8.289062 -10.953125 9.351562 -10.660156 10.03125 -10.078125 C 10.707031 -9.492188 11.046875 -8.484375 11.046875 -7.046875 L 11.046875 0 L 8.515625 0 L 8.1875 -1.625 C 7.125 -0.363281 5.8125 0.265625 4.25 0.265625 C 3.226562 0.265625 2.394531 -0.00390625 1.75 -0.546875 C 1.101562 -1.085938 0.78125 -1.84375 0.78125 -2.8125 L 0.78125 -3.890625 C 0.78125 -4.742188 1.066406 -5.40625 1.640625 -5.875 C 2.210938 -6.351562 3.015625 -6.59375 4.046875 -6.59375 L 7.84375 -6.59375 L 7.84375 -7.0625 C 7.832031 -7.613281 7.707031 -7.984375 7.46875 -8.171875 C 7.226562 -8.359375 6.769531 -8.453125 6.09375 -8.453125 C 4.914062 -8.453125 3.414062 -8.394531 1.59375 -8.28125 Z M 3.9375 -3.65625 L 3.9375 -3.234375 C 3.9375 -2.503906 4.351562 -2.140625 5.1875 -2.140625 C 6.050781 -2.140625 6.9375 -2.484375 7.84375 -3.171875 L 7.84375 -4.671875 L 4.96875 -4.671875 C 4.28125 -4.648438 3.9375 -4.3125 3.9375 -3.65625 Z M 3.9375 -3.65625 "/>
            </g>
        </g>
    </g>
    <g fill="#f6f6e9" fill-opacity="1">
        <g transform="translate(287.203347, 319.098613)">
            <g>
                <path d="M 4.515625 -15.125 L 4.515625 -3.484375 C 4.515625 -2.765625 4.914062 -2.40625 5.71875 -2.40625 L 6.59375 -2.40625 L 6.953125 -0.171875 C 6.410156 0.117188 5.5625 0.265625 4.40625 0.265625 C 3.457031 0.265625 2.707031 0.0078125 2.15625 -0.5 C 1.613281 -1.019531 1.34375 -1.742188 1.34375 -2.671875 L 1.34375 -15.125 Z M 4.515625 -15.125 "/>
            </g>
        </g>
    </g>
    <g fill="#f6f6e9" fill-opacity="1">
        <g transform="translate(119.84894, 349.098611)">
            <g>
                <path d="M 4.515625 -15.125 L 4.515625 -3.484375 C 4.515625 -2.765625 4.914062 -2.40625 5.71875 -2.40625 L 6.59375 -2.40625 L 6.953125 -0.171875 C 6.410156 0.117188 5.5625 0.265625 4.40625 0.265625 C 3.457031 0.265625 2.707031 0.0078125 2.15625 -0.5 C 1.613281 -1.019531 1.34375 -1.742188 1.34375 -2.671875 L 1.34375 -15.125 Z M 4.515625 -15.125 "/>
            </g>
        </g>
    </g>
    <g fill="#f6f6e9" fill-opacity="1">
        <g transform="translate(132.876733, 349.098611)">
            <g>
                <path d="M 2.265625 -15.359375 L 3.6875 -15.359375 C 4.3125 -15.359375 4.625 -15.050781 4.625 -14.4375 L 4.625 -13.265625 C 4.625 -12.648438 4.3125 -12.34375 3.6875 -12.34375 L 2.265625 -12.34375 C 1.648438 -12.34375 1.34375 -12.648438 1.34375 -13.265625 L 1.34375 -14.4375 C 1.34375 -15.050781 1.648438 -15.359375 2.265625 -15.359375 Z M 4.578125 0 L 1.40625 0 L 1.40625 -10.65625 L 4.578125 -10.65625 Z M 4.578125 0 "/>
            </g>
        </g>
    </g>
    <g fill="#f6f6e9" fill-opacity="1">
        <g transform="translate(144.803044, 349.098611)">
            <g>
                <path d="M 4.5 -15.125 L 4.5 -11.734375 C 4.5 -10.742188 4.40625 -9.910156 4.21875 -9.234375 C 5.34375 -10.378906 6.601562 -10.953125 8 -10.953125 C 9.375 -10.953125 10.367188 -10.523438 10.984375 -9.671875 C 11.597656 -8.816406 11.90625 -7.398438 11.90625 -5.421875 C 11.90625 -3.585938 11.53125 -2.179688 10.78125 -1.203125 C 10.03125 -0.222656 8.671875 0.265625 6.703125 0.265625 C 5.835938 0.265625 4.867188 0.191406 3.796875 0.046875 C 2.722656 -0.0976562 1.882812 -0.300781 1.28125 -0.5625 L 1.28125 -15.125 Z M 4.46875 -7.5 L 4.46875 -2.3125 C 5.207031 -2.15625 5.929688 -2.09375 6.640625 -2.125 C 7.367188 -2.144531 7.878906 -2.382812 8.171875 -2.84375 C 8.472656 -3.3125 8.625 -4.164062 8.625 -5.40625 C 8.625 -6.582031 8.5 -7.375 8.25 -7.78125 C 8.007812 -8.195312 7.5 -8.40625 6.71875 -8.40625 C 6.125 -8.40625 5.375 -8.101562 4.46875 -7.5 Z M 4.46875 -7.5 "/>
            </g>
        </g>
    </g>
    <g fill="#f6f6e9" fill-opacity="1">
        <g transform="translate(163.554222, 349.098611)">
            <g>
                <path d="M 8.96875 -10.953125 L 8.640625 -8 L 7.78125 -8 C 7.070312 -8 5.984375 -7.753906 4.515625 -7.265625 L 4.515625 0 L 1.3125 0 L 1.3125 -10.65625 L 3.796875 -10.65625 L 4.078125 -9.09375 C 5.535156 -10.332031 6.976562 -10.953125 8.40625 -10.953125 Z M 8.96875 -10.953125 "/>
            </g>
        </g>
    </g>
    <g fill="#f6f6e9" fill-opacity="1">
        <g transform="translate(178.698588, 349.098611)">
            <g>
                <path d="M 1.59375 -8.28125 L 1.296875 -10.4375 C 3.210938 -10.78125 5.0625 -10.953125 6.84375 -10.953125 C 8.289062 -10.953125 9.351562 -10.660156 10.03125 -10.078125 C 10.707031 -9.492188 11.046875 -8.484375 11.046875 -7.046875 L 11.046875 0 L 8.515625 0 L 8.1875 -1.625 C 7.125 -0.363281 5.8125 0.265625 4.25 0.265625 C 3.226562 0.265625 2.394531 -0.00390625 1.75 -0.546875 C 1.101562 -1.085938 0.78125 -1.84375 0.78125 -2.8125 L 0.78125 -3.890625 C 0.78125 -4.742188 1.066406 -5.40625 1.640625 -5.875 C 2.210938 -6.351562 3.015625 -6.59375 4.046875 -6.59375 L 7.84375 -6.59375 L 7.84375 -7.0625 C 7.832031 -7.613281 7.707031 -7.984375 7.46875 -8.171875 C 7.226562 -8.359375 6.769531 -8.453125 6.09375 -8.453125 C 4.914062 -8.453125 3.414062 -8.394531 1.59375 -8.28125 Z M 3.9375 -3.65625 L 3.9375 -3.234375 C 3.9375 -2.503906 4.351562 -2.140625 5.1875 -2.140625 C 6.050781 -2.140625 6.9375 -2.484375 7.84375 -3.171875 L 7.84375 -4.671875 L 4.96875 -4.671875 C 4.28125 -4.648438 3.9375 -4.3125 3.9375 -3.65625 Z M 3.9375 -3.65625 "/>
            </g>
        </g>
    </g>
    <g fill="#f6f6e9" fill-opacity="1">
        <g transform="translate(196.909822, 349.098611)">
            <g>
                <path d="M 8.96875 -10.953125 L 8.640625 -8 L 7.78125 -8 C 7.070312 -8 5.984375 -7.753906 4.515625 -7.265625 L 4.515625 0 L 1.3125 0 L 1.3125 -10.65625 L 3.796875 -10.65625 L 4.078125 -9.09375 C 5.535156 -10.332031 6.976562 -10.953125 8.40625 -10.953125 Z M 8.96875 -10.953125 "/>
            </g>
        </g>
    </g>
    <g fill="#f6f6e9" fill-opacity="1">
        <g transform="translate(212.054189, 349.098611)">
            <g>
                <path d="M 2.265625 -15.359375 L 3.6875 -15.359375 C 4.3125 -15.359375 4.625 -15.050781 4.625 -14.4375 L 4.625 -13.265625 C 4.625 -12.648438 4.3125 -12.34375 3.6875 -12.34375 L 2.265625 -12.34375 C 1.648438 -12.34375 1.34375 -12.648438 1.34375 -13.265625 L 1.34375 -14.4375 C 1.34375 -15.050781 1.648438 -15.359375 2.265625 -15.359375 Z M 4.578125 0 L 1.40625 0 L 1.40625 -10.65625 L 4.578125 -10.65625 Z M 4.578125 0 "/>
            </g>
        </g>
    </g>
    <g fill="#f6f6e9" fill-opacity="1">
        <g transform="translate(223.9805, 349.098611)">
            <g>
                <path d="M 1.59375 -8.28125 L 1.296875 -10.4375 C 3.210938 -10.78125 5.0625 -10.953125 6.84375 -10.953125 C 8.289062 -10.953125 9.351562 -10.660156 10.03125 -10.078125 C 10.707031 -9.492188 11.046875 -8.484375 11.046875 -7.046875 L 11.046875 0 L 8.515625 0 L 8.1875 -1.625 C 7.125 -0.363281 5.8125 0.265625 4.25 0.265625 C 3.226562 0.265625 2.394531 -0.00390625 1.75 -0.546875 C 1.101562 -1.085938 0.78125 -1.84375 0.78125 -2.8125 L 0.78125 -3.890625 C 0.78125 -4.742188 1.066406 -5.40625 1.640625 -5.875 C 2.210938 -6.351562 3.015625 -6.59375 4.046875 -6.59375 L 7.84375 -6.59375 L 7.84375 -7.0625 C 7.832031 -7.613281 7.707031 -7.984375 7.46875 -8.171875 C 7.226562 -8.359375 6.769531 -8.453125 6.09375 -8.453125 C 4.914062 -8.453125 3.414062 -8.394531 1.59375 -8.28125 Z M 3.9375 -3.65625 L 3.9375 -3.234375 C 3.9375 -2.503906 4.351562 -2.140625 5.1875 -2.140625 C 6.050781 -2.140625 6.9375 -2.484375 7.84375 -3.171875 L 7.84375 -4.671875 L 4.96875 -4.671875 C 4.28125 -4.648438 3.9375 -4.3125 3.9375 -3.65625 Z M 3.9375 -3.65625 "/>
            </g>
        </g>
    </g>
    <g fill="#f6f6e9" fill-opacity="1">
        <g transform="translate(242.191734, 349.098611)">
            <g>
                <path d="M 3.90625 -10.65625 L 4.15625 -9.078125 C 5.695312 -10.328125 7.210938 -10.953125 8.703125 -10.953125 C 9.671875 -10.953125 10.410156 -10.695312 10.921875 -10.1875 C 11.429688 -9.6875 11.6875 -8.957031 11.6875 -8 L 11.6875 0 L 8.515625 0 L 8.515625 -7 C 8.515625 -7.476562 8.4375 -7.804688 8.28125 -7.984375 C 8.132812 -8.160156 7.867188 -8.25 7.484375 -8.25 C 6.804688 -8.25 5.816406 -7.925781 4.515625 -7.28125 L 4.515625 0 L 1.3125 0 L 1.3125 -10.65625 Z M 3.90625 -10.65625 "/>
            </g>
        </g>
    </g>
</svg>