<svg xmlns="http://www.w3.org/2000/svg" width="500" zoomAndPan="magnify"
     viewBox="0 0 375 374.999991" height="500" preserveAspectRatio="xMidYMid meet" version="1.0">
    <defs>
        <clipPath id="d1752f92e6">
            <path d="M 181 136 L 202 136 L 202 213.726562 L 181 213.726562 Z M 181 136 " clip-rule="nonzero"/>
        </clipPath>
        <clipPath id="c7ff9f0dee">
            <path d="M 181.480469 136.480469 L 202 136.480469 L 202 213.480469 L 181.480469 213.480469 Z M 181.480469 136.480469 "
                  clip-rule="nonzero"/>
        </clipPath>
        <clipPath id="0e1577a4ea">
            <path d="M 200.328125 115.605469 L 228.960938 115.605469 L 228.960938 212.449219 L 200.328125 212.449219 Z M 200.328125 115.605469 "
                  clip-rule="nonzero"/>
        </clipPath>
        <clipPath id="ee660e98a7">
            <path d="M 222 180 L 228.960938 180 L 228.960938 196.792969 L 222 196.792969 Z M 222 180 "
                  clip-rule="nonzero"/>
        </clipPath>
        <clipPath id="ee0f0c5bee">
            <path d="M 171 101.976562 L 207 101.976562 L 207 122 L 171 122 Z M 171 101.976562 " clip-rule="nonzero"/>
        </clipPath>
    </defs>
    <g clip-path="url(#d1752f92e6)">
        <path fill="#ed5b2d"
              d="M 200.910156 139.089844 C 201.246094 187.707031 201.417969 212.015625 201.417969 212.015625 C 192.984375 213.703125 186.507812 213.316406 181.988281 210.855469 C 181.988281 210.855469 181.988281 186.207031 181.988281 136.914062 C 186.480469 138.527344 192.789062 139.25 200.910156 139.089844 "
              fill-opacity="1" fill-rule="evenodd"/>
    </g>
    <g clip-path="url(#c7ff9f0dee)">
        <path fill="#291b25"
              d="M 200.980469 211.65625 L 200.476562 139.53125 C 196.574219 139.59375 193.09375 139.449219 190.039062 139.097656 C 187.121094 138.761719 184.582031 138.238281 182.421875 137.523438 L 182.421875 210.59375 C 184.582031 211.722656 187.195312 212.375 190.261719 212.558594 C 193.371094 212.746094 196.941406 212.445312 200.980469 211.65625 Z M 201.339844 139.09375 L 201.847656 212.011719 C 201.851562 212.222656 201.699219 212.398438 201.5 212.441406 C 197.25 213.292969 193.488281 213.621094 190.210938 213.425781 C 186.90625 213.226562 184.097656 212.496094 181.78125 211.234375 C 181.632812 211.15625 181.550781 211 181.554688 210.84375 L 181.554688 136.914062 C 181.554688 136.675781 181.75 136.480469 181.988281 136.480469 C 182.042969 136.480469 182.097656 136.492188 182.144531 136.511719 C 184.355469 137.300781 187.019531 137.875 190.136719 138.234375 C 193.277344 138.597656 196.863281 138.734375 200.898438 138.65625 C 201.140625 138.652344 201.335938 138.84375 201.339844 139.082031 L 201.339844 139.09375 "
              fill-opacity="1" fill-rule="evenodd"/>
    </g>
    <path fill="#ed5b2d"
          d="M 201.417969 212.015625 C 201.417969 212.015625 210.453125 205.25 228.527344 191.71875 C 228.527344 191.71875 227.851562 166.492188 226.496094 116.039062 C 226.496094 116.039062 217.96875 123.722656 200.910156 139.089844 C 201.246094 187.707031 201.417969 212.015625 201.417969 212.015625 "
          fill-opacity="1" fill-rule="evenodd"/>
    <g clip-path="url(#0e1577a4ea)">
        <path fill="#291b25"
              d="M 228.785156 192.0625 L 201.679688 212.359375 C 201.605469 212.414062 201.515625 212.449219 201.417969 212.449219 C 201.179688 212.449219 200.984375 212.253906 200.980469 212.015625 L 200.476562 139.121094 C 200.464844 138.992188 200.515625 138.859375 200.617188 138.765625 L 226.207031 115.714844 C 226.28125 115.648438 226.378906 115.609375 226.488281 115.605469 C 226.726562 115.597656 226.925781 115.789062 226.929688 116.027344 L 228.960938 191.707031 C 228.964844 191.84375 228.902344 191.976562 228.785156 192.0625 Z M 201.84375 211.152344 L 228.085938 191.503906 L 226.089844 116.992188 L 201.34375 139.285156 L 201.84375 211.152344 "
              fill-opacity="1" fill-rule="evenodd"/>
    </g>
    <path fill="#468b91"
          d="M 226.8125 127.765625 L 226.496094 116.039062 L 218.761719 123.007812 C 221.078125 125.738281 223.761719 127.324219 226.8125 127.765625 "
          fill-opacity="1" fill-rule="evenodd"/>
    <path fill="#291b25"
          d="M 226.929688 116.027344 L 227.242188 127.726562 C 227.246094 127.757812 227.246094 127.792969 227.242188 127.828125 C 227.207031 128.0625 226.988281 128.230469 226.75 128.195312 C 225.167969 127.96875 223.679688 127.441406 222.289062 126.617188 C 220.910156 125.804688 219.625 124.695312 218.441406 123.300781 L 218.4375 123.296875 C 218.277344 123.121094 218.292969 122.84375 218.46875 122.683594 L 226.207031 115.714844 C 226.28125 115.648438 226.378906 115.609375 226.488281 115.605469 C 226.726562 115.597656 226.925781 115.789062 226.929688 116.027344 Z M 226.363281 127.25 L 226.089844 116.992188 L 219.367188 123.042969 C 220.417969 124.222656 221.535156 125.164062 222.730469 125.871094 C 223.875 126.546875 225.085938 127.007812 226.363281 127.25 "
          fill-opacity="1" fill-rule="evenodd"/>
    <path fill="#468b91"
          d="M 222.507812 196.222656 L 228.527344 191.71875 L 228.230469 180.691406 C 224.300781 184.390625 222.394531 189.566406 222.507812 196.222656 "
          fill-opacity="1" fill-rule="evenodd"/>
    <g clip-path="url(#ee660e98a7)">
        <path fill="#291b25"
              d="M 228.785156 192.0625 L 222.773438 196.566406 C 222.703125 196.621094 222.613281 196.65625 222.515625 196.65625 C 222.273438 196.660156 222.078125 196.46875 222.074219 196.230469 C 222.015625 192.847656 222.472656 189.835938 223.445312 187.199219 C 224.421875 184.546875 225.917969 182.273438 227.933594 180.375 C 228.007812 180.304688 228.109375 180.261719 228.21875 180.257812 C 228.460938 180.253906 228.660156 180.441406 228.664062 180.683594 L 228.960938 191.707031 C 228.964844 191.84375 228.902344 191.976562 228.785156 192.0625 Z M 222.9375 195.359375 L 228.085938 191.503906 L 227.824219 181.707031 C 226.261719 183.363281 225.074219 185.292969 224.261719 187.496094 C 223.40625 189.8125 222.964844 192.433594 222.9375 195.359375 "
              fill-opacity="1" fill-rule="evenodd"/>
    </g>
    <path fill="#61a6ab"
          d="M 181.988281 136.914062 C 198.5625 122.609375 206.851562 115.457031 206.851562 115.457031 C 219.949219 115.84375 226.496094 116.039062 226.496094 116.039062 C 226.496094 116.039062 217.96875 123.722656 200.910156 139.089844 C 192.789062 139.25 186.480469 138.527344 181.988281 136.914062 "
          fill-opacity="1" fill-rule="evenodd"/>
    <path fill="#291b25"
          d="M 207.007812 115.894531 L 182.84375 136.75 C 184.910156 137.417969 187.34375 137.914062 190.136719 138.234375 C 193.234375 138.589844 196.769531 138.734375 200.738281 138.660156 L 225.402344 116.441406 Z M 181.703125 136.585938 L 206.570312 115.128906 C 206.65625 115.054688 206.769531 115.019531 206.875 115.023438 L 226.507812 115.605469 C 226.746094 115.613281 226.9375 115.8125 226.929688 116.050781 C 226.925781 116.171875 226.871094 116.285156 226.789062 116.359375 L 201.199219 139.414062 C 201.109375 139.492188 201 139.527344 200.886719 139.523438 C 196.816406 139.601562 193.199219 139.460938 190.039062 139.097656 C 186.855469 138.730469 184.121094 138.140625 181.84375 137.324219 C 181.617188 137.242188 181.5 136.996094 181.582031 136.769531 C 181.605469 136.695312 181.648438 136.636719 181.703125 136.585938 "
          fill-opacity="1" fill-rule="evenodd"/>
    <path fill="#468b91"
          d="M 171.839844 120.097656 C 172.5625 180.410156 172.925781 210.566406 172.925781 210.566406 C 176.558594 211.910156 179.578125 212.007812 181.988281 210.855469 C 181.988281 161.5625 181.988281 136.914062 181.988281 136.914062 C 181.988281 126.378906 181.988281 121.113281 181.988281 121.113281 C 178.953125 121.796875 175.566406 121.460938 171.839844 120.097656 "
          fill-opacity="1" fill-rule="evenodd"/>
    <path fill="#291b25"
          d="M 172.492188 210.570312 L 171.40625 120.125 C 171.402344 120.066406 171.410156 120.007812 171.429688 119.949219 C 171.511719 119.726562 171.761719 119.609375 171.988281 119.691406 C 173.816406 120.359375 175.5625 120.777344 177.214844 120.941406 C 178.859375 121.105469 180.421875 121.023438 181.894531 120.691406 C 181.921875 120.683594 181.953125 120.679688 181.988281 120.679688 C 182.226562 120.679688 182.421875 120.875 182.421875 121.113281 L 182.421875 210.855469 C 182.421875 211.015625 182.332031 211.171875 182.175781 211.246094 C 180.90625 211.851562 179.480469 212.128906 177.902344 212.082031 C 176.339844 212.03125 174.632812 211.660156 172.773438 210.972656 L 172.777344 210.972656 C 172.613281 210.910156 172.496094 210.753906 172.492188 210.570312 Z M 172.28125 120.714844 L 173.355469 210.257812 C 175.019531 210.851562 176.546875 211.167969 177.929688 211.214844 C 179.265625 211.257812 180.476562 211.042969 181.554688 210.574219 L 181.554688 121.644531 C 180.148438 121.90625 178.671875 121.960938 177.132812 121.804688 C 175.582031 121.648438 173.964844 121.285156 172.28125 120.714844 "
          fill-opacity="1" fill-rule="evenodd"/>
    <path fill="#468b91"
          d="M 181.988281 136.914062 C 198.5625 122.609375 206.851562 115.457031 206.851562 115.457031 C 206.851562 115.457031 206.585938 111.496094 206.054688 103.570312 C 206.054688 103.570312 198.03125 109.417969 181.988281 121.113281 C 181.988281 131.648438 181.988281 136.914062 181.988281 136.914062 "
          fill-opacity="1" fill-rule="evenodd"/>
    <path fill="#291b25"
          d="M 207.136719 115.785156 L 182.273438 137.242188 C 182.195312 137.308594 182.097656 137.347656 181.988281 137.347656 C 181.75 137.347656 181.554688 137.152344 181.554688 136.914062 L 181.554688 121.113281 C 181.554688 120.980469 181.617188 120.847656 181.734375 120.761719 L 205.769531 103.238281 C 205.839844 103.179688 205.925781 103.144531 206.023438 103.136719 C 206.265625 103.121094 206.472656 103.300781 206.488281 103.542969 L 207.285156 115.429688 C 207.292969 115.5625 207.242188 115.695312 207.136719 115.785156 Z M 182.421875 135.96875 L 206.40625 115.273438 L 205.671875 104.382812 L 182.421875 121.332031 L 182.421875 135.96875 "
          fill-opacity="1" fill-rule="evenodd"/>
    <path fill="#61a6ab"
          d="M 171.839844 120.097656 C 188.269531 108.304688 196.484375 102.410156 196.484375 102.410156 C 202.863281 103.183594 206.054688 103.570312 206.054688 103.570312 C 206.054688 103.570312 198.03125 109.417969 181.988281 121.113281 C 178.953125 121.796875 175.566406 121.460938 171.839844 120.097656 "
          fill-opacity="1" fill-rule="evenodd"/>
    <g clip-path="url(#ee0f0c5bee)">
        <path fill="#291b25"
              d="M 196.597656 102.863281 L 172.769531 119.960938 C 174.316406 120.472656 175.800781 120.800781 177.214844 120.941406 C 178.828125 121.101562 180.359375 121.027344 181.804688 120.707031 L 204.910156 103.871094 Z M 171.601562 119.734375 L 196.230469 102.058594 C 196.324219 101.992188 196.433594 101.96875 196.535156 101.980469 L 206.105469 103.140625 C 206.34375 103.167969 206.511719 103.382812 206.484375 103.621094 C 206.46875 103.761719 206.390625 103.875 206.277344 103.941406 L 182.242188 121.460938 C 182.191406 121.5 182.136719 121.523438 182.082031 121.535156 C 180.519531 121.890625 178.867188 121.980469 177.132812 121.804688 C 175.402344 121.632812 173.589844 121.199219 171.691406 120.507812 C 171.464844 120.421875 171.351562 120.175781 171.429688 119.949219 C 171.464844 119.859375 171.527344 119.785156 171.601562 119.734375 "
              fill-opacity="1" fill-rule="evenodd"/>
    </g>
    <path fill="#ed5b2d"
          d="M 171.945312 128.941406 C 172.597656 183.355469 172.925781 210.566406 172.925781 210.566406 C 168.378906 212.730469 163.765625 212.488281 159.078125 209.839844 C 159.078125 209.839844 159.054688 182.511719 159.007812 127.855469 C 162.535156 129.101562 166.847656 129.464844 171.945312 128.941406 "
          fill-opacity="1" fill-rule="evenodd"/>
    <path fill="#291b25"
          d="M 172.488281 210.289062 L 171.519531 129.417969 C 169.121094 129.640625 166.898438 129.667969 164.851562 129.496094 C 162.890625 129.332031 161.089844 128.984375 159.441406 128.457031 L 159.511719 209.585938 C 161.722656 210.796875 163.910156 211.460938 166.078125 211.574219 C 168.226562 211.6875 170.363281 211.257812 172.488281 210.289062 Z M 172.378906 128.957031 L 173.359375 210.558594 C 173.363281 210.734375 173.261719 210.886719 173.113281 210.957031 C 170.777344 212.070312 168.414062 212.566406 166.035156 212.441406 C 163.65625 212.316406 161.269531 211.574219 158.867188 210.21875 C 158.71875 210.132812 158.640625 209.976562 158.648438 209.820312 L 158.574219 127.855469 C 158.574219 127.613281 158.769531 127.421875 159.007812 127.421875 C 159.058594 127.421875 159.105469 127.429688 159.152344 127.445312 C 160.878906 128.054688 162.804688 128.449219 164.921875 128.628906 C 167.058594 128.808594 169.382812 128.769531 171.902344 128.507812 C 172.140625 128.484375 172.351562 128.65625 172.378906 128.898438 C 172.378906 128.917969 172.378906 128.9375 172.378906 128.957031 "
          fill-opacity="1" fill-rule="evenodd"/>
    <path fill="#f6f6e9"
          d="M 172.804688 200.273438 L 172.925781 210.566406 C 168.378906 212.730469 163.765625 212.488281 159.078125 209.839844 L 159.070312 199.300781 C 163.136719 201.109375 167.714844 201.4375 172.804688 200.273438 "
          fill-opacity="1" fill-rule="evenodd"/>
    <path fill="#291b25"
          d="M 172.488281 210.289062 L 172.375 200.8125 C 169.980469 201.316406 167.695312 201.492188 165.523438 201.335938 C 163.414062 201.1875 161.40625 200.726562 159.503906 199.957031 L 159.511719 209.585938 C 161.722656 210.796875 163.910156 211.460938 166.078125 211.574219 C 168.226562 211.6875 170.363281 211.257812 172.488281 210.289062 Z M 173.238281 200.289062 L 173.359375 210.558594 C 173.363281 210.734375 173.261719 210.886719 173.113281 210.957031 C 170.777344 212.070312 168.414062 212.566406 166.035156 212.441406 C 163.65625 212.316406 161.269531 211.574219 158.867188 210.21875 C 158.71875 210.132812 158.640625 209.976562 158.648438 209.820312 L 158.636719 199.300781 C 158.636719 199.0625 158.832031 198.867188 159.070312 198.867188 C 159.132812 198.867188 159.191406 198.882812 159.246094 198.90625 C 161.230469 199.789062 163.34375 200.308594 165.582031 200.46875 C 167.832031 200.628906 170.207031 200.421875 172.707031 199.851562 C 172.941406 199.800781 173.171875 199.945312 173.226562 200.179688 C 173.234375 200.21875 173.238281 200.253906 173.238281 200.289062 "
          fill-opacity="1" fill-rule="evenodd"/>
    <path fill="#f6f6e9"
          d="M 171.945312 128.941406 L 172.109375 142.476562 C 168.078125 143.386719 163.71875 143.199219 159.019531 141.910156 L 159.007812 127.855469 C 162.535156 129.101562 166.847656 129.464844 171.945312 128.941406 "
          fill-opacity="1" fill-rule="evenodd"/>
    <path fill="#291b25"
          d="M 171.671875 142.128906 L 171.519531 129.417969 C 169.121094 129.640625 166.898438 129.667969 164.851562 129.496094 C 162.890625 129.332031 161.089844 128.984375 159.441406 128.457031 L 159.453125 141.578125 C 161.65625 142.160156 163.78125 142.496094 165.832031 142.585938 C 167.851562 142.671875 169.800781 142.519531 171.671875 142.128906 Z M 172.378906 128.957031 L 172.542969 142.472656 C 172.542969 142.679688 172.398438 142.855469 172.203125 142.898438 C 170.152344 143.363281 168.015625 143.546875 165.796875 143.453125 C 163.585938 143.355469 161.289062 142.980469 158.90625 142.328125 C 158.714844 142.277344 158.585938 142.101562 158.585938 141.910156 L 158.574219 127.855469 C 158.574219 127.613281 158.769531 127.421875 159.007812 127.421875 C 159.058594 127.421875 159.105469 127.429688 159.152344 127.445312 C 160.878906 128.054688 162.804688 128.449219 164.921875 128.628906 C 167.058594 128.808594 169.382812 128.769531 171.902344 128.507812 C 172.140625 128.484375 172.351562 128.65625 172.378906 128.898438 C 172.378906 128.917969 172.378906 128.9375 172.378906 128.957031 "
          fill-opacity="1" fill-rule="evenodd"/>
    <path fill="#ed5b2d"
          d="M 171.945312 128.941406 C 167 129.480469 162.683594 129.117188 159.007812 127.855469 C 179.449219 111.375 189.671875 103.136719 189.671875 103.136719 L 194.800781 103.621094 L 171.839844 120.097656 L 171.945312 128.941406 "
          fill-opacity="1" fill-rule="evenodd"/>
    <path fill="#291b25"
          d="M 165.035156 128.640625 C 167.050781 128.808594 169.210938 128.777344 171.507812 128.550781 L 171.40625 120.113281 C 171.402344 119.972656 171.464844 119.835938 171.585938 119.746094 L 193.609375 103.941406 L 189.804688 103.582031 L 159.90625 127.6875 C 161.5 128.167969 163.207031 128.488281 165.035156 128.640625 Z M 171.992188 129.371094 C 169.488281 129.644531 167.144531 129.6875 164.964844 129.507812 C 162.773438 129.324219 160.738281 128.90625 158.867188 128.265625 C 158.640625 128.1875 158.519531 127.941406 158.597656 127.714844 C 158.628906 127.625 158.683594 127.550781 158.757812 127.5 L 189.398438 102.796875 C 189.496094 102.71875 189.613281 102.691406 189.726562 102.707031 L 194.839844 103.1875 C 195.082031 103.210938 195.253906 103.421875 195.230469 103.660156 C 195.21875 103.792969 195.148438 103.90625 195.046875 103.976562 L 172.273438 120.316406 L 172.378906 128.933594 C 172.378906 129.160156 172.210938 129.347656 171.992188 129.371094 "
          fill-opacity="1" fill-rule="evenodd"/>
    <path fill="#468b91"
          d="M 159.015625 136.46875 C 159.058594 185.382812 159.078125 209.839844 159.078125 209.839844 C 155.003906 211.867188 150.847656 211.769531 146.613281 209.550781 C 146.5625 160.835938 146.539062 136.480469 146.539062 136.480469 C 150.5 137.449219 154.65625 137.445312 159.015625 136.46875 "
          fill-opacity="1" fill-rule="evenodd"/>
    <path fill="#291b25"
          d="M 158.644531 209.570312 L 158.582031 137.007812 C 156.558594 137.425781 154.570312 137.636719 152.628906 137.636719 C 150.699219 137.640625 148.816406 137.4375 146.972656 137.027344 L 147.042969 209.285156 C 149.023438 210.285156 150.980469 210.808594 152.914062 210.855469 C 154.839844 210.898438 156.75 210.46875 158.644531 209.570312 Z M 159.449219 136.488281 L 159.515625 209.839844 C 159.515625 210.011719 159.414062 210.160156 159.269531 210.230469 C 157.171875 211.273438 155.046875 211.773438 152.898438 211.722656 C 150.75 211.671875 148.589844 211.078125 146.410156 209.933594 C 146.261719 209.855469 146.179688 209.707031 146.179688 209.550781 L 146.105469 136.480469 C 146.105469 136.242188 146.300781 136.046875 146.539062 136.046875 C 146.574219 136.046875 146.605469 136.050781 146.640625 136.058594 C 148.589844 136.535156 150.582031 136.773438 152.628906 136.773438 C 154.675781 136.769531 156.773438 136.527344 158.921875 136.046875 C 159.152344 135.992188 159.386719 136.140625 159.4375 136.375 C 159.445312 136.414062 159.449219 136.449219 159.449219 136.488281 "
          fill-opacity="1" fill-rule="evenodd"/>
    <path fill="#ed5b2d"
          d="M 160.039062 128.1875 C 159.6875 128.082031 159.34375 127.972656 159.007812 127.855469 L 183.980469 107.722656 L 181.476562 107.265625 L 146.539062 136.480469 C 150.5 137.449219 154.65625 137.445312 159.015625 136.46875 L 159.007812 127.855469 C 159.347656 127.96875 159.691406 128.078125 160.042969 128.179688 L 160.039062 128.1875 "
          fill-opacity="1" fill-rule="evenodd"/>
    <path fill="#291b25"
          d="M 158.574219 127.882812 C 158.570312 127.828125 158.578125 127.769531 158.597656 127.710938 C 158.628906 127.625 158.683594 127.554688 158.75 127.507812 L 182.972656 107.980469 L 181.601562 107.730469 L 147.488281 136.25 C 149.167969 136.601562 150.878906 136.773438 152.628906 136.773438 C 154.566406 136.769531 156.550781 136.554688 158.582031 136.121094 Z M 159.917969 128.605469 C 159.761719 128.558594 159.601562 128.507812 159.441406 128.457031 L 159.449219 136.449219 C 159.457031 136.65625 159.320312 136.847656 159.109375 136.890625 C 156.902344 137.386719 154.742188 137.636719 152.628906 137.636719 C 150.523438 137.640625 148.464844 137.394531 146.460938 136.90625 C 146.363281 136.890625 146.273438 136.839844 146.207031 136.757812 C 146.050781 136.574219 146.074219 136.300781 146.257812 136.148438 L 181.199219 106.933594 C 181.296875 106.855469 181.421875 106.816406 181.554688 106.839844 L 184.039062 107.292969 C 184.144531 107.304688 184.246094 107.359375 184.320312 107.449219 C 184.46875 107.636719 184.441406 107.910156 184.253906 108.0625 L 159.90625 127.6875 L 160.160156 127.765625 C 160.390625 127.832031 160.523438 128.070312 160.457031 128.300781 L 160.445312 128.335938 C 160.367188 128.550781 160.132812 128.667969 159.917969 128.605469 "
          fill-opacity="1" fill-rule="evenodd"/>
    <path fill="#f6f6e9"
          d="M 156.324219 140.214844 C 156.324219 185.304688 156.324219 207.847656 156.324219 207.847656 C 153.628906 208.769531 151.117188 208.625 148.785156 207.414062 C 148.785156 207.414062 148.929688 185.011719 149.21875 140.214844 C 151.441406 140.699219 153.808594 140.699219 156.324219 140.214844 "
          fill-opacity="1" fill-rule="evenodd"/>
    <path fill="#291b25"
          d="M 155.890625 207.53125 L 155.890625 140.734375 C 153.703125 141.101562 151.621094 141.101562 149.648438 140.742188 L 149.21875 207.144531 C 151.289062 208.152344 153.515625 208.28125 155.890625 207.53125 Z M 156.757812 140.242188 L 156.757812 207.847656 C 156.757812 208.039062 156.632812 208.199219 156.464844 208.257812 C 153.652344 209.222656 151.027344 209.070312 148.582031 207.796875 C 148.421875 207.714844 148.335938 207.542969 148.351562 207.375 L 148.785156 140.210938 C 148.789062 139.972656 148.980469 139.78125 149.222656 139.78125 C 149.253906 139.78125 149.28125 139.785156 149.3125 139.789062 C 151.476562 140.261719 153.785156 140.257812 156.242188 139.789062 C 156.476562 139.742188 156.703125 139.898438 156.75 140.132812 C 156.757812 140.171875 156.757812 140.207031 156.757812 140.242188 "
          fill-opacity="1" fill-rule="evenodd"/>
    <path fill="#f6f6e9"
          d="M 196.625 149.636719 C 196.722656 167.421875 196.769531 176.3125 196.769531 176.3125 C 191.867188 177.230469 188.167969 176.992188 185.679688 175.589844 C 185.679688 175.589844 185.730469 166.550781 185.824219 148.476562 C 189.480469 149.242188 193.078125 149.628906 196.625 149.636719 "
          fill-opacity="1" fill-rule="evenodd"/>
    <path fill="#291b25"
          d="M 196.335938 175.953125 L 196.195312 150.070312 C 194.542969 150.050781 192.886719 149.949219 191.21875 149.773438 C 189.578125 149.597656 187.921875 149.339844 186.253906 149.007812 L 186.113281 175.328125 C 187.265625 175.925781 188.675781 176.277344 190.347656 176.386719 C 192.070312 176.5 194.066406 176.355469 196.335938 175.953125 Z M 197.058594 149.636719 L 197.203125 176.3125 C 197.203125 176.523438 197.054688 176.703125 196.851562 176.738281 C 194.363281 177.207031 192.175781 177.378906 190.292969 177.253906 C 188.375 177.128906 186.769531 176.699219 185.46875 175.96875 C 185.316406 175.882812 185.234375 175.71875 185.246094 175.554688 L 185.390625 148.476562 C 185.394531 148.238281 185.589844 148.042969 185.828125 148.042969 C 185.855469 148.042969 185.886719 148.046875 185.914062 148.054688 C 187.726562 148.433594 189.523438 148.71875 191.3125 148.910156 C 193.101562 149.101562 194.871094 149.199219 196.625 149.203125 C 196.863281 149.203125 197.058594 149.398438 197.058594 149.636719 "
          fill-opacity="1" fill-rule="evenodd"/>
    <path fill="#f6f6e9"
          d="M 196.78125 179.644531 C 196.734375 180.550781 196.808594 182.765625 196.808594 182.765625 C 192.421875 183.496094 188.59375 183.28125 185.316406 182.113281 C 185.316406 182.113281 185.332031 181.039062 185.355469 178.886719 C 189.390625 179.890625 193.039062 180.164062 196.78125 179.644531 "
          fill-opacity="1" fill-rule="evenodd"/>
    <path fill="#291b25"
          d="M 196.363281 182.398438 C 196.347656 181.863281 196.328125 180.871094 196.335938 180.140625 C 194.605469 180.347656 192.894531 180.390625 191.152344 180.269531 C 189.40625 180.152344 187.632812 179.871094 185.78125 179.4375 L 185.753906 181.804688 C 187.273438 182.3125 188.910156 182.617188 190.667969 182.71875 C 192.445312 182.820312 194.339844 182.710938 196.363281 182.398438 Z M 197.214844 179.675781 C 197.171875 180.574219 197.242188 182.75 197.242188 182.753906 C 197.246094 182.972656 197.089844 183.160156 196.878906 183.191406 C 194.65625 183.566406 192.570312 183.695312 190.621094 183.585938 C 188.664062 183.472656 186.847656 183.121094 185.175781 182.523438 C 184.984375 182.457031 184.871094 182.269531 184.886719 182.078125 L 184.921875 178.882812 C 184.921875 178.644531 185.117188 178.453125 185.359375 178.453125 C 185.390625 178.453125 185.425781 178.457031 185.457031 178.464844 C 187.453125 178.960938 189.347656 179.277344 191.207031 179.402344 C 193.0625 179.53125 194.882812 179.472656 196.722656 179.214844 C 196.960938 179.183594 197.179688 179.347656 197.214844 179.585938 C 197.214844 179.617188 197.21875 179.644531 197.214844 179.675781 "
          fill-opacity="1" fill-rule="evenodd"/>
    <path fill="#291b25"
          d="M 209.082031 115.3125 C 209.199219 115.207031 209.382812 115.21875 209.488281 115.339844 C 209.59375 115.457031 209.582031 115.640625 209.464844 115.746094 L 184.457031 137.832031 C 184.335938 137.9375 184.152344 137.925781 184.046875 137.804688 C 183.941406 137.6875 183.953125 137.503906 184.070312 137.398438 L 209.082031 115.3125 "
          fill-opacity="1" fill-rule="evenodd"/>
    <path fill="#291b25"
          d="M 186.148438 138.222656 C 186.035156 138.332031 185.851562 138.324219 185.742188 138.207031 C 185.632812 138.09375 185.636719 137.910156 185.753906 137.800781 L 194.21875 129.855469 C 194.332031 129.746094 194.515625 129.75 194.625 129.867188 C 194.734375 129.984375 194.730469 130.167969 194.613281 130.277344 L 186.148438 138.222656 "
          fill-opacity="1" fill-rule="evenodd"/>
    <path fill="#291b25"
          d="M 224.234375 115.761719 C 224.355469 115.65625 224.535156 115.667969 224.640625 115.785156 C 224.75 115.90625 224.738281 116.085938 224.617188 116.191406 L 215.195312 124.554688 C 215.074219 124.660156 214.890625 124.648438 214.785156 124.53125 C 214.679688 124.410156 214.691406 124.226562 214.8125 124.121094 L 224.234375 115.761719 "
          fill-opacity="1" fill-rule="evenodd"/>
    <path fill="#291b25"
          d="M 191.066406 138.96875 C 190.945312 139.074219 190.761719 139.0625 190.65625 138.945312 C 190.546875 138.824219 190.558594 138.640625 190.679688 138.535156 L 216.484375 115.53125 C 216.601562 115.425781 216.785156 115.4375 216.890625 115.554688 C 216.996094 115.675781 216.988281 115.859375 216.867188 115.964844 L 191.066406 138.96875 "
          fill-opacity="1" fill-rule="evenodd"/>
    <path fill="#291b25"
          d="M 193.054688 139.132812 C 192.9375 139.242188 192.753906 139.234375 192.644531 139.117188 C 192.539062 138.996094 192.542969 138.816406 192.660156 138.707031 L 197.625 134.128906 C 197.742188 134.019531 197.925781 134.027344 198.035156 134.148438 C 198.144531 134.261719 198.136719 134.445312 198.019531 134.554688 L 193.054688 139.132812 "
          fill-opacity="1" fill-rule="evenodd"/>
    <path fill="#291b25"
          d="M 197.691406 139.320312 C 197.570312 139.425781 197.386719 139.414062 197.28125 139.296875 C 197.175781 139.179688 197.1875 138.996094 197.304688 138.890625 L 207.960938 129.378906 C 208.078125 129.273438 208.261719 129.28125 208.367188 129.402344 C 208.472656 129.519531 208.464844 129.703125 208.34375 129.808594 L 197.691406 139.320312 "
          fill-opacity="1" fill-rule="evenodd"/>
    <path fill="#291b25"
          d="M 221.988281 115.695312 C 222.109375 115.589844 222.289062 115.597656 222.398438 115.71875 C 222.503906 115.835938 222.492188 116.019531 222.375 116.125 L 218.78125 119.335938 C 218.664062 119.441406 218.480469 119.429688 218.375 119.3125 C 218.269531 119.195312 218.277344 119.011719 218.398438 118.90625 L 221.988281 115.695312 "
          fill-opacity="1" fill-rule="evenodd"/>
    <path fill="#291b25"
          d="M 214.707031 115.476562 C 214.828125 115.371094 215.007812 115.386719 215.113281 115.507812 C 215.21875 115.625 215.203125 115.808594 215.082031 115.914062 L 211.242188 119.230469 C 211.121094 119.332031 210.9375 119.320312 210.832031 119.199219 C 210.726562 119.078125 210.742188 118.898438 210.863281 118.792969 L 214.707031 115.476562 "
          fill-opacity="1" fill-rule="evenodd"/>
    <path fill="#291b25"
          d="M 211.835938 115.394531 C 211.957031 115.289062 212.140625 115.296875 212.246094 115.417969 C 212.355469 115.535156 212.34375 115.71875 212.226562 115.824219 L 203.234375 123.9375 C 203.117188 124.042969 202.933594 124.035156 202.824219 123.917969 C 202.71875 123.796875 202.730469 123.613281 202.847656 123.507812 L 211.835938 115.394531 "
          fill-opacity="1" fill-rule="evenodd"/>
    <path fill="#291b25"
          d="M 173.542969 120.839844 C 173.414062 120.933594 173.234375 120.90625 173.136719 120.777344 C 173.042969 120.648438 173.070312 120.46875 173.199219 120.375 L 183.40625 112.835938 C 183.535156 112.738281 183.714844 112.765625 183.808594 112.894531 C 183.902344 113.023438 183.878906 113.203125 183.75 113.300781 L 173.542969 120.839844 "
          fill-opacity="1" fill-rule="evenodd"/>
    <path fill="#291b25"
          d="M 174.972656 121.214844 C 174.84375 121.308594 174.664062 121.28125 174.570312 121.152344 C 174.476562 121.023438 174.503906 120.84375 174.632812 120.75 L 179.746094 117 C 179.875 116.90625 180.054688 116.933594 180.148438 117.0625 C 180.246094 117.191406 180.214844 117.375 180.085938 117.46875 L 174.972656 121.214844 "
          fill-opacity="1" fill-rule="evenodd"/>
    <path fill="#291b25"
          d="M 193.734375 110.550781 C 193.863281 110.457031 194.042969 110.480469 194.140625 110.609375 C 194.234375 110.738281 194.210938 110.921875 194.082031 111.015625 L 179.808594 121.667969 C 179.679688 121.761719 179.5 121.738281 179.402344 121.609375 C 179.308594 121.480469 179.332031 121.300781 179.460938 121.203125 L 193.734375 110.550781 "
          fill-opacity="1" fill-rule="evenodd"/>
    <path fill="#291b25"
          d="M 199.496094 102.566406 C 199.621094 102.46875 199.804688 102.492188 199.902344 102.621094 C 200 102.746094 199.972656 102.925781 199.847656 103.027344 L 193.757812 107.75 C 193.632812 107.847656 193.449219 107.824219 193.351562 107.699219 C 193.253906 107.574219 193.277344 107.390625 193.40625 107.292969 L 199.496094 102.566406 "
          fill-opacity="1" fill-rule="evenodd"/>
    <path fill="#291b25"
          d="M 201.101562 102.757812 C 201.230469 102.664062 201.410156 102.691406 201.503906 102.820312 C 201.597656 102.953125 201.566406 103.132812 201.4375 103.226562 L 197.699219 105.90625 C 197.570312 106 197.390625 105.972656 197.296875 105.839844 C 197.203125 105.710938 197.234375 105.53125 197.363281 105.4375 L 201.101562 102.757812 "
          fill-opacity="1" fill-rule="evenodd"/>
    <path fill="#291b25"
          d="M 171.671875 121.914062 C 171.789062 121.808594 171.972656 121.816406 172.078125 121.9375 C 172.1875 122.058594 172.175781 122.242188 172.054688 122.34375 L 164.34375 129.203125 C 164.222656 129.3125 164.039062 129.300781 163.933594 129.179688 C 163.828125 129.0625 163.835938 128.878906 163.957031 128.773438 L 171.671875 121.914062 "
          fill-opacity="1" fill-rule="evenodd"/>
    <path fill="#291b25"
          d="M 162.855469 128.992188 C 162.738281 129.097656 162.554688 129.089844 162.449219 128.972656 C 162.339844 128.855469 162.347656 128.671875 162.464844 128.566406 L 167.179688 124.234375 C 167.296875 124.128906 167.480469 124.132812 167.589844 124.25 C 167.695312 124.371094 167.6875 124.554688 167.574219 124.660156 L 162.855469 128.992188 "
          fill-opacity="1" fill-rule="evenodd"/>
    <path fill="#291b25"
          d="M 171.6875 123.65625 C 171.804688 123.550781 171.988281 123.554688 172.097656 123.671875 C 172.203125 123.789062 172.195312 123.972656 172.082031 124.082031 L 166.375 129.359375 C 166.261719 129.46875 166.078125 129.460938 165.96875 129.34375 C 165.859375 129.226562 165.867188 129.046875 165.984375 128.9375 L 171.6875 123.65625 "
          fill-opacity="1" fill-rule="evenodd"/>
    <path fill="#291b25"
          d="M 148.53125 137.078125 C 148.40625 137.175781 148.226562 137.160156 148.121094 137.039062 C 148.023438 136.914062 148.039062 136.730469 148.164062 136.628906 L 156.679688 129.625 C 156.804688 129.523438 156.988281 129.542969 157.089844 129.664062 C 157.191406 129.789062 157.171875 129.96875 157.050781 130.070312 L 148.53125 137.078125 "
          fill-opacity="1" fill-rule="evenodd"/>
    <path fill="#291b25"
          d="M 150.640625 137.335938 C 150.519531 137.441406 150.335938 137.429688 150.230469 137.308594 C 150.125 137.1875 150.136719 137.003906 150.257812 136.898438 L 154.355469 133.292969 C 154.472656 133.1875 154.65625 133.199219 154.761719 133.316406 C 154.867188 133.4375 154.859375 133.621094 154.738281 133.726562 L 150.640625 137.335938 "
          fill-opacity="1" fill-rule="evenodd"/>
    <path fill="#291b25"
          d="M 220.992188 142.933594 C 220.945312 142.78125 221.027344 142.617188 221.175781 142.566406 C 221.328125 142.519531 221.492188 142.601562 221.542969 142.75 L 221.6875 143.1875 C 221.738281 143.339844 221.65625 143.5 221.503906 143.550781 C 221.351562 143.601562 221.1875 143.519531 221.140625 143.367188 L 220.992188 142.933594 "
          fill-opacity="1" fill-rule="evenodd"/>
    <path fill="#291b25"
          d="M 212.5 142.941406 C 212.484375 142.785156 212.601562 142.644531 212.757812 142.625 C 212.917969 142.609375 213.058594 142.726562 213.074219 142.886719 L 213.148438 143.609375 C 213.164062 143.769531 213.046875 143.910156 212.886719 143.925781 C 212.730469 143.941406 212.585938 143.828125 212.570312 143.667969 L 212.5 142.941406 "
          fill-opacity="1" fill-rule="evenodd"/>
    <path fill="#291b25"
          d="M 221.050781 134 C 220.890625 134 220.761719 133.867188 220.761719 133.707031 C 220.761719 133.546875 220.890625 133.417969 221.050781 133.417969 L 221.414062 133.417969 C 221.574219 133.417969 221.703125 133.546875 221.703125 133.707031 C 221.703125 133.867188 221.574219 134 221.414062 134 L 221.050781 134 "
          fill-opacity="1" fill-rule="evenodd"/>
    <path fill="#291b25"
          d="M 220.8125 174.171875 C 220.722656 174.039062 220.757812 173.859375 220.890625 173.769531 C 221.023438 173.683594 221.203125 173.71875 221.292969 173.851562 L 221.582031 174.289062 C 221.671875 174.421875 221.632812 174.601562 221.5 174.6875 C 221.367188 174.777344 221.1875 174.742188 221.101562 174.605469 L 220.8125 174.171875 "
          fill-opacity="1" fill-rule="evenodd"/>
    <path fill="#291b25"
          d="M 206.015625 164.21875 C 206.101562 164.082031 206.277344 164.039062 206.414062 164.125 C 206.550781 164.207031 206.59375 164.386719 206.507812 164.523438 L 205.929688 165.464844 C 205.847656 165.601562 205.667969 165.644531 205.53125 165.5625 C 205.394531 165.476562 205.351562 165.300781 205.4375 165.160156 L 206.015625 164.21875 "
          fill-opacity="1" fill-rule="evenodd"/>
    <path fill="#291b25"
          d="M 205.914062 194.660156 C 205.800781 194.546875 205.800781 194.363281 205.914062 194.25 C 206.027344 194.136719 206.210938 194.136719 206.324219 194.25 L 206.832031 194.757812 C 206.945312 194.871094 206.945312 195.054688 206.832031 195.167969 C 206.71875 195.28125 206.535156 195.28125 206.421875 195.167969 L 205.914062 194.660156 "
          fill-opacity="1" fill-rule="evenodd"/>
    <path fill="#291b25"
          d="M 214.960938 191.152344 C 214.820312 191.070312 214.777344 190.890625 214.859375 190.753906 C 214.941406 190.617188 215.117188 190.574219 215.253906 190.65625 L 215.617188 190.871094 C 215.753906 190.953125 215.800781 191.132812 215.71875 191.269531 C 215.636719 191.40625 215.457031 191.449219 215.320312 191.367188 L 214.960938 191.152344 "
          fill-opacity="1" fill-rule="evenodd"/>
    <path fill="#291b25"
          d="M 190.171875 122.585938 C 190.152344 122.425781 190.261719 122.28125 190.421875 122.257812 C 190.578125 122.234375 190.726562 122.34375 190.746094 122.503906 L 190.820312 123.011719 C 190.839844 123.171875 190.730469 123.316406 190.574219 123.339844 C 190.414062 123.363281 190.269531 123.25 190.246094 123.09375 L 190.171875 122.585938 "
          fill-opacity="1" fill-rule="evenodd"/>
    <path fill="#291b25"
          d="M 201.34375 113.476562 C 201.1875 113.441406 201.089844 113.289062 201.125 113.132812 C 201.160156 112.976562 201.3125 112.878906 201.46875 112.910156 L 202.121094 113.058594 C 202.277344 113.089844 202.375 113.246094 202.339844 113.402344 C 202.304688 113.558594 202.152344 113.65625 201.996094 113.621094 L 201.34375 113.476562 "
          fill-opacity="1" fill-rule="evenodd"/>
    <path fill="#291b25"
          d="M 194.664062 113.847656 C 194.664062 113.6875 194.792969 113.554688 194.953125 113.554688 C 195.117188 113.554688 195.246094 113.6875 195.246094 113.847656 L 195.246094 114.28125 C 195.246094 114.441406 195.117188 114.570312 194.953125 114.570312 C 194.792969 114.570312 194.664062 114.441406 194.664062 114.28125 L 194.664062 113.847656 "
          fill-opacity="1" fill-rule="evenodd"/>
    <path fill="#291b25"
          d="M 163.421875 133.054688 C 163.421875 132.894531 163.550781 132.765625 163.710938 132.765625 C 163.871094 132.765625 164 132.894531 164 133.054688 L 164 133.476562 L 164.242188 133.839844 C 164.332031 133.972656 164.292969 134.152344 164.160156 134.238281 C 164.027344 134.328125 163.847656 134.292969 163.761719 134.15625 L 163.480469 133.738281 C 163.445312 133.691406 163.421875 133.628906 163.421875 133.5625 L 163.421875 133.054688 "
          fill-opacity="1" fill-rule="evenodd"/>
    <path fill="#291b25"
          d="M 161.855469 139.511719 C 161.734375 139.40625 161.722656 139.222656 161.824219 139.101562 C 161.929688 138.980469 162.109375 138.964844 162.230469 139.070312 L 162.738281 139.503906 C 162.859375 139.609375 162.875 139.792969 162.769531 139.914062 C 162.667969 140.035156 162.484375 140.050781 162.363281 139.945312 L 161.855469 139.511719 "
          fill-opacity="1" fill-rule="evenodd"/>
    <path fill="#291b25"
          d="M 169.078125 137.394531 C 168.925781 137.359375 168.828125 137.199219 168.867188 137.046875 C 168.90625 136.890625 169.0625 136.796875 169.21875 136.835938 L 169.507812 136.90625 C 169.664062 136.945312 169.757812 137.101562 169.71875 137.257812 C 169.679688 137.414062 169.523438 137.507812 169.367188 137.46875 L 169.078125 137.394531 "
          fill-opacity="1" fill-rule="evenodd"/>
    <path fill="#291b25"
          d="M 160.890625 203.625 C 160.75 203.546875 160.699219 203.371094 160.777344 203.230469 C 160.855469 203.089844 161.03125 203.042969 161.167969 203.117188 L 161.820312 203.480469 C 161.960938 203.558594 162.011719 203.734375 161.933594 203.875 C 161.855469 204.011719 161.679688 204.0625 161.542969 203.984375 L 160.890625 203.625 "
          fill-opacity="1" fill-rule="evenodd"/>
    <path fill="#291b25"
          d="M 165.027344 210.355469 C 164.894531 210.441406 164.714844 210.402344 164.628906 210.269531 C 164.542969 210.132812 164.582031 209.953125 164.714844 209.867188 L 165.511719 209.363281 C 165.648438 209.277344 165.828125 209.316406 165.914062 209.449219 C 166 209.585938 165.957031 209.761719 165.824219 209.847656 L 165.027344 210.355469 "
          fill-opacity="1" fill-rule="evenodd"/>
    <path fill="#291b25"
          d="M 169.695312 204.179688 C 169.570312 204.082031 169.546875 203.902344 169.644531 203.773438 C 169.742188 203.648438 169.925781 203.625 170.050781 203.722656 L 170.992188 204.445312 C 171.117188 204.542969 171.144531 204.726562 171.042969 204.851562 C 170.945312 204.980469 170.765625 205 170.636719 204.90625 L 169.695312 204.179688 "
          fill-opacity="1" fill-rule="evenodd"/>
</svg>